<?xml version="1.0" encoding="UTF-8"?>
<svg id="Calque_2" data-name="Calque 2" xmlns="http://www.w3.org/2000/svg" viewBox="0 0 394.44 249.68">
  <defs>
    <style>
      .cls-1 {
        fill: #ca756f;
      }

      .cls-2 {
        fill: #f3e8cc;
      }
    </style>
  </defs>
  <g id="Calque_4" data-name="Calque 4">
    <g>
      <path class="cls-2" d="M346.84,63.17s-.06.02-.09.03c-.32.09-.64.17-.95.25-.32.08-.63.16-.94.22.11,2.38-.27,4.84-1.11,7.3.73-.1,1.47-.23,2.23-.39.74-2.52,1.03-5.01.86-7.41ZM336.84,63.98c.09,2.11-.54,4.45-1.76,6.81.67.14,1.36.25,2.07.33,1.13-2.37,1.73-4.72,1.69-6.91-.7-.03-1.37-.11-2-.23Z"/>
      <path class="cls-2" d="M382.28,45.28c-2.33,3.13-5.01,6.17-7.97,9.04-7.93,7.65-17.04,13.2-25.67,15.62-.9.25-1.79.47-2.66.64.74-2.52,1.03-5.01.86-7.41,7.5-2.12,15.53-7.05,22.6-13.88,2.92-2.82,5.52-5.81,7.73-8.88,1.64,1.69,3.34,3.32,5.11,4.87Z"/>
      <path class="cls-2" d="M391.26,27.65c-2.1-2.12-4.07-4.36-5.89-6.73.28-3.84-.58-6.99-2.55-9.02-1.19-1.24-2.82-2.08-4.77-2.52-.75-.17-1.55-.28-2.39-.32-.34-.03-.7-.04-1.06-.04-2.09,0-4.43.34-6.92,1.04-2.25.63-4.55,1.51-6.86,2.64-.59.27-1.19.58-1.79.9-4.81,2.56-9.61,6.09-14.04,10.37-7.04,6.8-12.23,14.6-14.62,22-.03.07-.05.13-.07.2-.18.58-.35,1.16-.49,1.72-.56,2.14-.82,4.15-.8,5.97.01.73.06,1.42.15,2.08.32,2.22,1.14,4.07,2.45,5.42.23.24.48.46.74.67s.53.4.82.58c.3.19.6.35.92.5.32.15.65.29,1,.41.55.19,1.13.34,1.75.46.09,2.11-.54,4.45-1.76,6.81-3.37-.71-6.26-2.24-8.5-4.57-2.7-2.8-4.22-6.49-4.53-10.81-.05-.66-.07-1.33-.05-2.01.02-1.91.26-3.93.74-6.04.14-.66.3-1.33.49-2.01.13-.43.26-.87.4-1.31,2.72-8.54,8.57-17.45,16.5-25.11,5.09-4.92,10.67-8.96,16.3-11.86.6-.32,1.2-.62,1.81-.9,2.53-1.19,5.06-2.15,7.55-2.85,2.41-.67,4.72-1.09,6.91-1.25.67-.05,1.33-.07,1.98-.07h.12c1.65.01,3.22.18,4.69.5.6.13,1.19.29,1.76.47,2,.65,3.79,1.61,5.33,2.89.44.37.87.75,1.27,1.17,4.59,4.74,5.77,12.02,3.41,20.62Z"/>
      <path d="M374.8,2h-.12c-.65,0-1.31.02-1.98.07-2.19.16-4.5.58-6.91,1.25-2.49.7-5.02,1.66-7.55,2.85-.61.28-1.21.58-1.81.9-5.63,2.9-11.21,6.94-16.3,11.86-7.93,7.66-13.78,16.57-16.5,25.11-.14.44-.27.88-.4,1.31-.19.68-.35,1.35-.49,2.01-.48,2.11-.72,4.13-.74,6.04-.02.68,0,1.35.05,2.01-.66.04-1.32.11-2,.2-.05-.66-.07-1.33-.07-2.01.01-1.94.24-3.98.67-6.1.14-.67.3-1.36.49-2.05.17-.66.37-1.33.58-2.01,2.82-8.85,8.86-18.07,17.02-25.94,5.3-5.13,11.14-9.34,17.04-12.34.6-.32,1.21-.61,1.81-.89,2.57-1.2,5.13-2.17,7.66-2.88,2.34-.65,4.6-1.07,6.77-1.26.7-.07,1.39-.11,2.07-.12.22.67.46,1.33.71,1.99Z"/>
      <path d="M346.6,61.15c-.13.05-.26.08-.39.12-.53.15-1.05.28-1.56.39.11.66.18,1.32.21,2,.31-.07.62-.13.94-.21.31-.08.63-.16.95-.25.03-.01.06-.02.09-.03-.04-.68-.12-1.36-.24-2.02ZM326.58,66.22c-2.7-2.8-4.22-6.49-4.53-10.81-.66.04-1.32.11-2,.2.34,4.77,2.06,8.87,5.09,12,2.36,2.45,5.38,4.14,8.9,4.99.38-.6.73-1.21,1.04-1.81-3.37-.71-6.26-2.24-8.5-4.57ZM336.47,61.83c-1.42-.36-2.58-.99-3.42-1.86-.81-.84-1.37-1.96-1.69-3.3-.68-.29-1.41-.54-2.2-.73.32,2.22,1.14,4.07,2.45,5.42.23.24.48.46.74.67s.53.4.82.58c.3.19.6.35.92.5.32.15.65.29,1,.41.55.19,1.13.34,1.75.46-.03-.74-.15-1.47-.37-2.15ZM343.75,70.97c-.23.71-.51,1.41-.82,2.11.76-.07,1.53-.18,2.31-.32.28-.73.53-1.46.74-2.18-.76.16-1.5.29-2.23.39ZM346.6,61.15c-.13.05-.26.08-.39.12-.53.15-1.05.28-1.56.39.11.66.18,1.32.21,2,.31-.07.62-.13.94-.21.31-.08.63-.16.95-.25.03-.01.06-.02.09-.03-.04-.68-.12-1.36-.24-2.02ZM346.6,61.15c-.13.05-.26.08-.39.12-.53.15-1.05.28-1.56.39.11.66.18,1.32.21,2,.31-.07.62-.13.94-.21.31-.08.63-.16.95-.25.03-.01.06-.02.09-.03-.04-.68-.12-1.36-.24-2.02ZM336.47,61.83c-1.42-.36-2.58-.99-3.42-1.86-.81-.84-1.37-1.96-1.69-3.3-.68-.29-1.41-.54-2.2-.73.32,2.22,1.14,4.07,2.45,5.42.23.24.48.46.74.67s.53.4.82.58c.3.19.6.35.92.5.32.15.65.29,1,.41.55.19,1.13.34,1.75.46-.03-.74-.15-1.47-.37-2.15ZM335.08,70.79c-3.37-.71-6.26-2.24-8.5-4.57-2.7-2.8-4.22-6.49-4.53-10.81-.66.04-1.32.11-2,.2.34,4.77,2.06,8.87,5.09,12,2.36,2.45,5.38,4.14,8.9,4.99.69.17,1.4.31,2.12.4.37-.63.7-1.26.99-1.88-.71-.08-1.4-.19-2.07-.33ZM338.63,62.19c-.77-.05-1.5-.17-2.16-.36-1.42-.36-2.58-.99-3.42-1.86-.81-.84-1.37-1.96-1.69-3.3-.68-.29-1.41-.54-2.2-.73.32,2.22,1.14,4.07,2.45,5.42.23.24.48.46.74.67s.53.4.82.58c.3.19.6.35.92.5.32.15.65.29,1,.41.55.19,1.13.34,1.75.46.63.12,1.3.2,2,.23,0-.69-.07-1.37-.21-2.02ZM326.58,66.22c-2.7-2.8-4.22-6.49-4.53-10.81-.66.04-1.32.11-2,.2.34,4.77,2.06,8.87,5.09,12,2.36,2.45,5.38,4.14,8.9,4.99.38-.6.73-1.21,1.04-1.81-3.37-.71-6.26-2.24-8.5-4.57ZM346.6,61.15c-.13.05-.26.08-.39.12-.53.15-1.05.28-1.56.39.11.66.18,1.32.21,2,.31-.07.62-.13.94-.21.31-.08.63-.16.95-.25.03-.01.06-.02.09-.03-.04-.68-.12-1.36-.24-2.02ZM338.63,62.19c-.77-.05-1.5-.17-2.16-.36-1.42-.36-2.58-.99-3.42-1.86-.81-.84-1.37-1.96-1.69-3.3-.68-.29-1.41-.54-2.2-.73.32,2.22,1.14,4.07,2.45,5.42.23.24.48.46.74.67s.53.4.82.58c.3.19.6.35.92.5.32.15.65.29,1,.41.55.19,1.13.34,1.75.46.63.12,1.3.2,2,.23,0-.69-.07-1.37-.21-2.02ZM326.58,66.22c-2.7-2.8-4.22-6.49-4.53-10.81-.66.04-1.32.11-2,.2.34,4.77,2.06,8.87,5.09,12,2.36,2.45,5.38,4.14,8.9,4.99.38-.6.73-1.21,1.04-1.81-3.37-.71-6.26-2.24-8.5-4.57ZM346.6,61.15c-.13.05-.26.08-.39.12-.53.15-1.05.28-1.56.39.11.66.18,1.32.21,2,.31-.07.62-.13.94-.21.31-.08.63-.16.95-.25.03-.01.06-.02.09-.03-.04-.68-.12-1.36-.24-2.02ZM338.63,62.19c-.77-.05-1.5-.17-2.16-.36-1.42-.36-2.58-.99-3.42-1.86-.81-.84-1.37-1.96-1.69-3.3-.68-.29-1.41-.54-2.2-.73.32,2.22,1.14,4.07,2.45,5.42.23.24.48.46.74.67s.53.4.82.58c.3.19.6.35.92.5.32.15.65.29,1,.41.55.19,1.13.34,1.75.46.63.12,1.3.2,2,.23,0-.69-.07-1.37-.21-2.02ZM326.58,66.22c-2.7-2.8-4.22-6.49-4.53-10.81-.66.04-1.32.11-2,.2.34,4.77,2.06,8.87,5.09,12,2.36,2.45,5.38,4.14,8.9,4.99.38-.6.73-1.21,1.04-1.81-3.37-.71-6.26-2.24-8.5-4.57ZM346.6,61.15c-.13.05-.26.08-.39.12-.53.15-1.05.28-1.56.39.11.66.18,1.32.21,2,.31-.07.62-.13.94-.21.31-.08.63-.16.95-.25.03-.01.06-.02.09-.03-.04-.68-.12-1.36-.24-2.02Z"/>
      <path d="M392.88,29.25c-.05.19-.11.38-.17.57-.16.51-.33,1.02-.52,1.52-.54-.49-1.08-1-1.6-1.52-1.97-1.94-3.84-3.99-5.59-6.13-.58-.71-1.15-1.43-1.7-2.17.14-1.19.15-2.31.05-3.33-.2-2.07-.86-3.76-1.97-4.9-.54-.55-1.19-1.01-1.96-1.36-.48-.84-.93-1.69-1.37-2.55,1.95.44,3.58,1.28,4.77,2.52,1.97,2.03,2.83,5.18,2.55,9.02,1.82,2.37,3.79,4.61,5.89,6.73,2.36-8.6,1.18-15.88-3.41-20.62-.4-.42-.83-.81-1.27-1.17-1.54-1.28-3.33-2.24-5.33-2.89-.57-.18-1.16-.34-1.76-.47-1.47-.32-3.04-.49-4.69-.5-.25-.66-.49-1.32-.71-1.99.2-.01.4-.01.59-.01,5.99,0,11.05,1.95,14.61,5.64,5.29,5.47,6.55,13.83,3.59,23.61Z"/>
      <path d="M384.96,44.96c-.37.55-.77,1.09-1.17,1.63-2.38,3.18-5.09,6.27-8.1,9.17-8.15,7.88-17.57,13.6-26.51,16.1-1.34.38-2.65.68-3.94.9.28-.73.53-1.46.74-2.18.87-.17,1.76-.39,2.66-.64,8.63-2.42,17.74-7.97,25.67-15.62,2.96-2.87,5.64-5.91,7.97-9.04-1.77-1.55-3.47-3.18-5.11-4.87-2.21,3.07-4.81,6.06-7.73,8.88-7.07,6.83-15.1,11.76-22.6,13.88-.04-.68-.12-1.36-.24-2.02,7.11-2.07,14.7-6.79,21.45-13.3,2.93-2.84,5.53-5.85,7.72-8.92.41-.56.79-1.12,1.16-1.68.46.51.93,1.01,1.4,1.5,1.65,1.7,3.36,3.34,5.13,4.9.49.45.99.89,1.5,1.31Z"/>
      <path d="M379.42,11.93c-.79-.36-1.69-.62-2.69-.77h-.01c-.66-.09-1.37-.14-2.12-.14-1.94,0-4.08.32-6.38.97-2.16.6-4.36,1.45-6.57,2.52-.6.29-1.19.59-1.79.91-4.61,2.47-9.21,5.87-13.48,9.99-6.76,6.53-11.74,13.99-14.06,21.03-.04.11-.08.22-.11.33-.17.54-.32,1.07-.45,1.59-.5,1.91-.74,3.7-.74,5.31,0,.25,0,.5.02.74.04.81.14,1.56.32,2.26-.68-.29-1.41-.54-2.2-.73-.09-.66-.14-1.35-.15-2.08-.02-1.82.24-3.83.8-5.97.14-.56.31-1.14.49-1.72.02-.07.04-.13.07-.2,2.39-7.4,7.58-15.2,14.62-22,4.43-4.28,9.23-7.81,14.04-10.37.6-.32,1.2-.63,1.79-.9,2.31-1.13,4.61-2.01,6.86-2.64,2.49-.7,4.83-1.04,6.92-1.04.36,0,.72.01,1.06.04.84.04,1.64.15,2.39.32.44.86.89,1.71,1.37,2.55Z"/>
    </g>
    <g>
      <g>
        <path class="cls-1" d="M269.71,95.99c-1.28-1.55-2.64-3.03-4.06-4.43-.48-.47-.96-.93-1.45-1.38-7.96,7-14.71,15.4-17.99,23.12.24-.02.48-.03.72-.03.48,0,.97.03,1.44.1,2.01.25,3.92,1.03,5.52,2.26.56.42,1.08.89,1.56,1.42.28-.65.6-1.35.99-2.09,2.93-5.61,8.06-11.77,14.51-17.39-.4-.53-.82-1.06-1.24-1.58ZM55.56,153.85l22.97,65.54,150.84-52.86-22.97-65.54-150.84,52.86Z"/>
        <path d="M271.21,94.71c-1.28-1.55-2.63-3.03-4.05-4.44-.48-.47-.96-.94-1.45-1.39-.32.26-.63.54-.95.81-.19.16-.38.33-.56.49.49.45.97.91,1.45,1.38,1.42,1.4,2.78,2.88,4.06,4.43.42.52.84,1.05,1.24,1.58.11-.11.23-.21.35-.31.38-.33.77-.66,1.16-.98-.41-.53-.82-1.06-1.25-1.57Z"/>
        <path class="cls-1" d="M282.16,124.55c-.1-.73-.22-1.46-.35-2.19-.37-2.11-.86-4.22-1.49-6.32-.2-.68-.41-1.36-.64-2.03-.07-.21-.15-.43-.22-.64-2.05-5.84-4.94-11.14-8.51-15.8-6.45,5.62-11.58,11.78-14.51,17.39-.39.74-.71,1.44-.99,2.09,1,1.1,1.8,2.42,2.32,3.92.41,1.15.62,2.34.64,3.5.02.68-.02,1.36-.13,2.02-.33,2.23-1.32,4.32-2.84,5.99-.57.64-1.23,1.22-1.96,1.72-.83.58-1.75,1.06-2.75,1.41-1.26.44-2.54.65-3.8.65-4.75,0-9.19-2.97-10.85-7.69-2.1-6,1.06-12.55,7.05-14.65,1.01-.36,2.05-.56,3.08-.62,3.28-7.72,10.03-16.12,17.99-23.12-10.46-9.58-24.27-15.05-38.63-15.05-6.27,0-12.64,1.04-18.88,3.23l-166.44,58.33c-14.88,5.21-26.24,15.96-32.57,29.14-6.34,13.16-7.65,28.74-2.43,43.63,8.23,23.5,30.3,38.22,53.87,38.22,6.27,0,12.64-1.04,18.89-3.23l166.44-58.32c14.87-5.22,26.24-15.97,32.57-29.13,4.76-9.89,6.69-21.15,5.14-32.45ZM41.58,208.9c-1.26.44-2.54.65-3.8.65-4.75,0-9.19-2.96-10.85-7.69-2.1-6,1.06-12.55,7.05-14.65,1.26-.44,2.54-.65,3.8-.65,4.75,0,9.18,2.96,10.84,7.7,2.1,5.98-1.05,12.54-7.04,14.64ZM78.53,219.39l-22.97-65.54,150.84-52.86,22.97,65.54-150.84,52.86Z"/>
        <path d="M48.62,194.26c-1.66-4.74-6.09-7.7-10.84-7.7-1.26,0-2.54.21-3.8.65-5.99,2.1-9.15,8.65-7.05,14.65,1.66,4.73,6.1,7.69,10.85,7.69,1.26,0,2.54-.21,3.8-.65,5.99-2.1,9.14-8.66,7.04-14.64ZM46.33,202.17c-1.1,2.29-3.02,4.01-5.41,4.85-1.02.35-2.08.53-3.14.53-4.03,0-7.63-2.55-8.96-6.35-1.73-4.94.88-10.37,5.82-12.1,1.02-.36,2.08-.54,3.14-.54,4.02,0,7.62,2.56,8.95,6.36.84,2.39.7,4.97-.4,7.25Z"/>
        <path d="M253.89,115.63c-1.6-1.23-3.51-2.01-5.52-2.26-.47-.07-.96-.1-1.44-.1-.24,0-.48.01-.72.03-.3.7-.57,1.41-.81,2.1.51-.09,1.02-.13,1.53-.13.21,0,.43.01.64.03,2.07.13,4.01.95,5.53,2.27.57.49,1.09,1.05,1.54,1.67.2-.66.47-1.39.81-2.19-.48-.53-1-1-1.56-1.42Z"/>
      </g>
      <g>
        <rect class="cls-2" x="61.54" y="124.47" width="161.83" height="71.45" transform="translate(-44.96 56.13) rotate(-19.31)"/>
        <path d="M206.4,100.99l22.97,65.54-150.84,52.86-22.97-65.54,150.84-52.86M207.62,98.44l-1.89.66-150.84,52.86-1.89.66.66,1.89,22.97,65.54.66,1.89,1.89-.66,150.84-52.86,1.89-.66-.66-1.89-22.97-65.54-.66-1.89h0Z"/>
      </g>
    </g>
    <g>
      <path class="cls-2" d="M304.2,52.49c-11.72,6.09-19.24,15.73-20.3,24.73-.1.76-.14,1.52-.14,2.26.34-.16.68-.32,1.02-.47.36-.16.72-.31,1.08-.46.42-.17.84-.34,1.25-.49.49-.2.98-.37,1.46-.54.35-.12.69-.23,1.02-.33.15-.05.3-.1.45-.14.13-.74.34-1.49.6-2.25,2.12-6.16,8.11-12.71,16.33-16.99,2.81-1.46,5.69-2.58,8.54-3.33,1.07-.28,2.14-.51,3.2-.69.42-.07.85-.14,1.27-.19.01-1.94.24-3.98.67-6.1-5.42.49-11.09,2.19-16.45,4.99ZM290.47,83.21c-.57.19-1.14.41-1.72.64-.33.13-.67.26-1,.41-.47.19-.93.4-1.4.62h-.01c-.46.22-.93.44-1.4.68.18.46.39.9.62,1.34.08.15.16.31.25.46,1.84-.92,3.63-1.69,5.36-2.28.08-.03.16-.05.23-.08-.19-.28-.36-.57-.52-.87-.16-.3-.3-.61-.41-.92ZM343.14,63.98c.57-.08,1.14-.19,1.72-.31h0c-.58.12-1.16.22-1.72.31Z"/>
      <path d="M319.98,53.6c-.42.05-.85.12-1.27.19-1.06.18-2.13.41-3.2.69-2.85.75-5.73,1.87-8.54,3.33-8.22,4.28-14.21,10.83-16.33,16.99-.26.76-.47,1.51-.6,2.25.32-.1.64-.19.95-.27.39-.11.78-.21,1.16-.29.02-.01.04-.01.06-.01h0c.19-.74.46-1.47.78-2.22,2.31-5.32,7.75-10.97,14.89-14.68,3.97-2.06,8.17-3.42,12.16-3.97-.05-.66-.07-1.33-.07-2.01ZM292.65,83.21c-.1-.19-.19-.39-.27-.59-.6.16-1.22.35-1.86.57-.02.01-.03.01-.05.02.11.31.25.62.41.92.16.3.33.59.52.87h0c.7-.23,1.38-.43,2.03-.59-.31-.38-.57-.78-.79-1.2ZM338.63,62.19c-.18-.86-.46-1.68-.87-2.45-1.27-2.45-3.59-4.26-6.72-5.33.04.81.14,1.56.32,2.26,2.14.91,3.73,2.26,4.63,3.99.19.38.35.77.48,1.17.22.68.34,1.41.37,2.15.09,2.11-.54,4.45-1.76,6.81-.31.6-.66,1.21-1.04,1.81.69.17,1.4.31,2.12.4.37-.63.7-1.26.99-1.88,1.13-2.37,1.73-4.72,1.69-6.91,0-.69-.07-1.37-.21-2.02ZM319.98,53.6c-.42.05-.85.12-1.27.19-1.06.18-2.13.41-3.2.69-2.85.75-5.73,1.87-8.54,3.33-8.22,4.28-14.21,10.83-16.33,16.99-.26.76-.47,1.51-.6,2.25.32-.1.64-.19.95-.27.39-.11.78-.21,1.16-.29.02-.01.04-.01.06-.01h0c.19-.74.46-1.47.78-2.22,2.31-5.32,7.75-10.97,14.89-14.68,3.97-2.06,8.17-3.42,12.16-3.97-.05-.66-.07-1.33-.07-2.01ZM292.65,83.21c-.1-.19-.19-.39-.27-.59-.6.16-1.22.35-1.86.57-.02.01-.03.01-.05.02.11.31.25.62.41.92.16.3.33.59.52.87h0c.7-.23,1.38-.43,2.03-.59-.31-.38-.57-.78-.79-1.2ZM338.63,62.19c-.18-.86-.46-1.68-.87-2.45-1.27-2.45-3.59-4.26-6.72-5.33.04.81.14,1.56.32,2.26,2.14.91,3.73,2.26,4.63,3.99.19.38.35.77.48,1.17.22.68.34,1.41.37,2.15.09,2.11-.54,4.45-1.76,6.81-.31.6-.66,1.21-1.04,1.81.69.17,1.4.31,2.12.4.37-.63.7-1.26.99-1.88,1.13-2.37,1.73-4.72,1.69-6.91,0-.69-.07-1.37-.21-2.02ZM319.98,53.6c-.42.05-.85.12-1.27.19-1.06.18-2.13.41-3.2.69-2.85.75-5.73,1.87-8.54,3.33-8.22,4.28-14.21,10.83-16.33,16.99-.26.76-.47,1.51-.6,2.25.32-.1.64-.19.95-.27.39-.11.78-.21,1.16-.29.02-.01.04-.01.06-.01h0c.19-.74.46-1.47.78-2.22,2.31-5.32,7.75-10.97,14.89-14.68,3.97-2.06,8.17-3.42,12.16-3.97-.05-.66-.07-1.33-.07-2.01ZM292.65,83.21c-.1-.19-.19-.39-.27-.59-.6.16-1.22.35-1.86.57-.02.01-.03.01-.05.02.11.31.25.62.41.92.16.3.33.59.52.87h0c.7-.23,1.38-.43,2.03-.59-.31-.38-.57-.78-.79-1.2ZM338.63,62.19c-.18-.86-.46-1.68-.87-2.45-1.27-2.45-3.59-4.26-6.72-5.33.04.81.14,1.56.32,2.26,2.14.91,3.73,2.26,4.63,3.99.19.38.35.77.48,1.17.22.68.34,1.41.37,2.15.09,2.11-.54,4.45-1.76,6.81-.31.6-.66,1.21-1.04,1.81.69.17,1.4.31,2.12.4.37-.63.7-1.26.99-1.88,1.13-2.37,1.73-4.72,1.69-6.91,0-.69-.07-1.37-.21-2.02ZM344.86,56.04c-2.45-4.69-6.81-8-12.54-9.6-.04.11-.08.22-.11.33-.17.54-.32,1.07-.45,1.59,5.21,1.44,9.15,4.42,11.33,8.61.78,1.5,1.29,3.07,1.56,4.69.51-.11,1.03-.24,1.56-.39.13-.04.26-.07.39-.12-.32-1.78-.9-3.49-1.74-5.11ZM319.98,53.6c-.42.05-.85.12-1.27.19-1.06.18-2.13.41-3.2.69-2.85.75-5.73,1.87-8.54,3.33-8.22,4.28-14.21,10.83-16.33,16.99-.26.76-.47,1.51-.6,2.25.32-.1.64-.19.95-.27.39-.11.78-.21,1.16-.29.02-.01.04-.01.06-.01h0c.19-.74.46-1.47.78-2.22,2.31-5.32,7.75-10.97,14.89-14.68,3.97-2.06,8.17-3.42,12.16-3.97-.05-.66-.07-1.33-.07-2.01ZM292.65,83.21c-.1-.19-.19-.39-.27-.59-.6.16-1.22.35-1.86.57-.02.01-.03.01-.05.02.11.31.25.62.41.92.16.3.33.59.52.87h0c.7-.23,1.38-.43,2.03-.59-.31-.38-.57-.78-.79-1.2ZM338.63,62.19c-.18-.86-.46-1.68-.87-2.45-1.27-2.45-3.59-4.26-6.72-5.33.04.81.14,1.56.32,2.26,2.14.91,3.73,2.26,4.63,3.99.19.38.35.77.48,1.17.22.68.34,1.41.37,2.15.09,2.11-.54,4.45-1.76,6.81-.31.6-.66,1.21-1.04,1.81.69.17,1.4.31,2.12.4.37-.63.7-1.26.99-1.88,1.13-2.37,1.73-4.72,1.69-6.91,0-.69-.07-1.37-.21-2.02ZM319.98,53.6c-.42.05-.85.12-1.27.19-1.06.18-2.13.41-3.2.69-2.85.75-5.73,1.87-8.54,3.33-8.22,4.28-14.21,10.83-16.33,16.99-.26.76-.47,1.51-.6,2.25.32-.1.64-.19.95-.27.39-.11.78-.21,1.16-.29.02-.01.04-.01.06-.01h0c.19-.74.46-1.47.78-2.22,2.31-5.32,7.75-10.97,14.89-14.68,3.97-2.06,8.17-3.42,12.16-3.97-.05-.66-.07-1.33-.07-2.01ZM292.65,83.21c-.1-.19-.19-.39-.27-.59-.6.16-1.22.35-1.86.57-.02.01-.03.01-.05.02.11.31.25.62.41.92.16.3.33.59.52.87h0c.7-.23,1.38-.43,2.03-.59-.31-.38-.57-.78-.79-1.2ZM338.63,62.19c-.18-.86-.46-1.68-.87-2.45-1.27-2.45-3.59-4.26-6.72-5.33.04.81.14,1.56.32,2.26,2.14.91,3.73,2.26,4.63,3.99.19.38.35.77.48,1.17.22.68.34,1.41.37,2.15.09,2.11-.54,4.45-1.76,6.81-.31.6-.66,1.21-1.04,1.81.69.17,1.4.31,2.12.4.37-.63.7-1.26.99-1.88,1.13-2.37,1.73-4.72,1.69-6.91,0-.69-.07-1.37-.21-2.02ZM338.63,62.19c-.18-.86-.46-1.68-.87-2.45-1.27-2.45-3.59-4.26-6.72-5.33.04.81.14,1.56.32,2.26,2.14.91,3.73,2.26,4.63,3.99.19.38.35.77.48,1.17.22.68.34,1.41.37,2.15.09,2.11-.54,4.45-1.76,6.81-.31.6-.66,1.21-1.04,1.81.69.17,1.4.31,2.12.4.37-.63.7-1.26.99-1.88,1.13-2.37,1.73-4.72,1.69-6.91,0-.69-.07-1.37-.21-2.02ZM346.84,63.17c-.04-.68-.12-1.36-.24-2.02-.32-1.78-.9-3.49-1.74-5.11-2.45-4.69-6.81-8-12.54-9.6-.04.11-.08.22-.11.33-.17.54-.32,1.07-.45,1.59,5.21,1.44,9.15,4.42,11.33,8.61.78,1.5,1.29,3.07,1.56,4.69.11.66.18,1.32.21,2h0c.11,2.39-.27,4.85-1.11,7.31-.23.71-.51,1.41-.82,2.11.76-.07,1.53-.18,2.31-.32.28-.73.53-1.46.74-2.18.74-2.52,1.03-5.01.86-7.41ZM338.63,62.19c-.18-.86-.46-1.68-.87-2.45-1.27-2.45-3.59-4.26-6.72-5.33.04.81.14,1.56.32,2.26,2.14.91,3.73,2.26,4.63,3.99.19.38.35.77.48,1.17.22.68.34,1.41.37,2.15.09,2.11-.54,4.45-1.76,6.81-.31.6-.66,1.21-1.04,1.81.69.17,1.4.31,2.12.4.37-.63.7-1.26.99-1.88,1.13-2.37,1.73-4.72,1.69-6.91,0-.69-.07-1.37-.21-2.02ZM303.28,50.71c-12.82,6.67-20.84,17.48-21.47,27.48-.05.75-.05,1.5-.01,2.24.66-.34,1.31-.66,1.96-.95,0-.74.04-1.5.14-2.26,1.06-9,8.58-18.64,20.3-24.73,5.36-2.8,11.03-4.5,16.45-4.99.14-.67.3-1.36.49-2.05-5.91.43-12.03,2.23-17.86,5.26ZM285.56,86.9c-.23-.44-.44-.88-.62-1.34-.59.29-1.18.6-1.78.93.19.45.39.89.62,1.33.08.16.17.32.26.47.6-.33,1.19-.64,1.77-.93-.09-.15-.17-.31-.25-.46ZM305.43,96.57c-.04.1-.09.19-.14.29.05-.1.1-.19.15-.29h-.01ZM338.63,62.19c-.18-.86-.46-1.68-.87-2.45-1.27-2.45-3.59-4.26-6.72-5.33.04.81.14,1.56.32,2.26,2.14.91,3.73,2.26,4.63,3.99.19.38.35.77.48,1.17.22.68.34,1.41.37,2.15.09,2.11-.54,4.45-1.76,6.81-.31.6-.66,1.21-1.04,1.81.69.17,1.4.31,2.12.4.37-.63.7-1.26.99-1.88,1.13-2.37,1.73-4.72,1.69-6.91,0-.69-.07-1.37-.21-2.02ZM319.98,53.6c-.42.05-.85.12-1.27.19-1.06.18-2.13.41-3.2.69-2.85.75-5.73,1.87-8.54,3.33-8.22,4.28-14.21,10.83-16.33,16.99-.26.76-.47,1.51-.6,2.25.32-.1.64-.19.95-.27.39-.11.78-.21,1.16-.29.02-.01.04-.01.06-.01h0c.19-.74.46-1.47.78-2.22,2.31-5.32,7.75-10.97,14.89-14.68,3.97-2.06,8.17-3.42,12.16-3.97-.05-.66-.07-1.33-.07-2.01ZM292.65,83.21c-.1-.19-.19-.39-.27-.59-.6.16-1.22.35-1.86.57-.02.01-.03.01-.05.02.11.31.25.62.41.92.16.3.33.59.52.87h0c.7-.23,1.38-.43,2.03-.59-.31-.38-.57-.78-.79-1.2ZM338.63,62.19c-.18-.86-.46-1.68-.87-2.45-1.27-2.45-3.59-4.26-6.72-5.33.04.81.14,1.56.32,2.26,2.14.91,3.73,2.26,4.63,3.99.19.38.35.77.48,1.17.22.68.34,1.41.37,2.15.09,2.11-.54,4.45-1.76,6.81-.31.6-.66,1.21-1.04,1.81.69.17,1.4.31,2.12.4.37-.63.7-1.26.99-1.88,1.13-2.37,1.73-4.72,1.69-6.91,0-.69-.07-1.37-.21-2.02Z"/>
      <path d="M345.24,72.76c-.43,1.1-.94,2.21-1.54,3.31-3.67,6.78-10.19,12.85-18.34,17.09-6.15,3.19-12.57,5.03-18.7,5.36-.67.04-1.34.06-2,.06h-.31c-2.33-.02-4.54-.27-6.59-.73-.7-.15-1.38-.33-2.04-.54-5.21-1.61-9.27-4.7-11.68-9.02.6-.33,1.19-.64,1.77-.93,2.27,4.05,6.18,6.81,11.03,8.19.66.19,1.35.35,2.05.48,1.83.37,3.76.55,5.77.55.26,0,.51,0,.77-.01-.04.1-.09.19-.14.29.05-.1.1-.19.15-.29.75-.02,1.5-.06,2.27-.13,5.34-.46,11.09-2.13,16.73-5.06,8.94-4.65,15.44-11.38,18.49-18.3.76-.07,1.53-.18,2.31-.32Z"/>
      <path class="cls-2" d="M343.14,63.98c.57-.08,1.14-.19,1.72-.31.11,2.38-.27,4.84-1.11,7.3-.23.71-.51,1.41-.82,2.11-3.05,6.92-9.55,13.65-18.49,18.3-5.64,2.93-11.39,4.6-16.73,5.06-.77.07-1.52.11-2.27.13h-.01c-.26.01-.51.01-.77.01-2.01,0-3.94-.18-5.77-.55-.7-.13-1.39-.29-2.05-.48-4.85-1.38-8.76-4.14-11.03-8.19,1.84-.92,3.63-1.69,5.36-2.28.08-.03.16-.05.23-.08h0c.62.94,1.42,1.77,2.36,2.47.49.37,1.01.7,1.57,1,1.26.67,2.69,1.17,4.25,1.51.64.14,1.31.26,2,.33.99.13,2.03.19,3.1.19.68,0,1.37-.02,2.07-.08.36-.02.72-.05,1.08-.09.59-.06,1.19-.14,1.8-.24.1-.01.21-.03.32-.05,1-.16,2.01-.38,3.04-.64,1.08-.28,2.16-.61,3.25-.99,1.81-.64,3.63-1.42,5.42-2.35,6.48-3.37,11.58-8.16,14.49-13.06.37-.63.7-1.26.99-1.88,1.13-2.37,1.73-4.72,1.69-6.91,0-.69-.07-1.37-.21-2.02-.18-.86-.46-1.68-.87-2.45-1.27-2.45-3.59-4.26-6.72-5.33-.01-.24-.02-.49-.02-.74,0-1.61.24-3.4.74-5.31,5.21,1.44,9.15,4.42,11.33,8.61.78,1.5,1.29,3.07,1.56,4.69.11.66.18,1.32.21,2-.58.13-1.16.23-1.72.32Z"/>
    </g>
    <g>
      <path class="cls-2" d="M298.61,106.81c.65-.79,1.27-1.58,1.85-2.36-.59.79-1.21,1.57-1.85,2.36Z"/>
      <path class="cls-2" d="M304.35,98.58c-.04.07-.08.15-.13.22-.18.31-.37.63-.56.94-.23.39-.48.78-.73,1.17-.76,1.18-1.58,2.36-2.47,3.54-.59.79-1.21,1.57-1.85,2.36-.3.37-.61.74-.93,1.11-.36.43-.74.86-1.12,1.28-.34.38-.68.76-1.02,1.13-.33.36-.67.71-1,1.07-1.88,1.96-3.91,3.88-6.06,5.74-1.57,1.36-3.2,2.66-4.87,3.91-.41-2.13-.95-4.25-1.6-6.34.84-.67,1.69-1.37,2.54-2.11.51-.44,1.01-.88,1.5-1.33.33-.3.67-.6.99-.91,1.27-1.18,2.48-2.38,3.63-3.6.32-.34.63-.67.93-1.01.7-.76,1.37-1.53,2.01-2.3.99-1.19,1.91-2.38,2.76-3.57.25-.34.49-.68.72-1.03.23-.34.45-.67.67-1,2.05.46,4.26.71,6.59.73Z"/>
      <path class="cls-2" d="M308.42,86.55c-.02.36-.05.72-.09,1.1-.02.2-.05.41-.08.62-1.21.15-2.4.23-3.56.23-.89,0-1.74-.04-2.55-.14.1-.44.17-.87.22-1.28.03-.19.05-.38.05-.57.05-.67.02-1.27-.09-1.8-.03-.13-.06-.25-.1-.37-.13-.47-.34-.87-.62-1.19-.76-.89-2.19-1.33-4.08-1.33-.29,0-.58.01-.89.03-.21.01-.43.03-.65.06-.19.02-.39.04-.59.07-.63.09-1.3.22-1.99.38-.21.05-.42.1-.64.16-.12.03-.25.06-.38.1-.6.16-1.22.35-1.86.57-.02.01-.03.01-.05.02-.57.19-1.14.41-1.72.64-.33.13-.67.26-1,.41-.47.19-.93.4-1.4.62h-.01c-.46.22-.93.44-1.4.68-.59.29-1.18.6-1.78.93-.54.3-1.09.6-1.64.92-.49.29-.98.59-1.48.89-1.18.74-2.37,1.53-3.56,2.36-.52.37-1.05.75-1.57,1.14-1.1.82-2.2,1.67-3.29,2.57-.14.11-.27.22-.41.34-.41.34-.81.68-1.22,1.03-.1.08-.19.16-.28.25-8.16,7.1-13.32,14.15-15.82,19.64-.31.67-.57,1.32-.79,1.94-1.31,3.57-1.32,6.29-.16,7.63.65.75,1.79,1.21,3.32,1.32-.15.81-.41,1.6-.78,2.36-.59,1.23-1.42,2.3-2.44,3.16-1.83-.53-3.4-1.48-4.64-2.92-2.97-3.44-2.91-8.37-.83-13.82.23-.64.5-1.28.8-1.93,3.3-7.29,9.83-15.28,17.28-21.81.14-.12.28-.24.42-.36.36-.31.73-.62,1.09-.93,1.03-.86,2.07-1.69,3.12-2.49.43-.33.85-.65,1.28-.97,1.96-1.44,3.94-2.76,5.9-3.95.8-.49,1.59-.95,2.38-1.38.65-.37,1.31-.72,1.96-1.05.66-.34,1.31-.66,1.96-.95.34-.16.68-.32,1.02-.47.36-.16.72-.31,1.08-.46.42-.17.84-.34,1.25-.49.49-.2.98-.37,1.46-.54.35-.12.69-.23,1.02-.33.15-.05.3-.1.45-.14.32-.1.64-.19.95-.27.39-.11.78-.21,1.16-.29.02-.01.04-.01.06-.01h0c.74-.18,1.47-.32,2.17-.42.36-.05.72-.1,1.07-.13.36-.04.7-.07,1.04-.08.34-.02.67-.03.99-.03h.01c.32,0,.63.01.94.03.28.01.56.03.84.06.08.01.16.02.24.03.5.06.98.15,1.44.26.33.08.66.17.97.27.23.08.46.17.69.26.19.08.39.16.57.25.29.14.56.29.83.45.32.19.63.41.92.64.17.13.33.27.49.43.08.06.15.14.23.21.17.16.33.33.48.51,1.65,1.9,2.41,4.39,2.28,7.33Z"/>
      <path d="M302.32,84.71c-.03-.13-.06-.25-.1-.37-.13-.47-.34-.87-.62-1.19-.76-.89-2.19-1.33-4.08-1.33-.29,0-.58.01-.89.03-.21.01-.43.03-.65.06-.19.02-.39.04-.59.07-.63.09-1.3.22-1.99.38-.21.05-.42.1-.64.16-.12.03-.25.06-.38.1-.6.16-1.22.35-1.86.57-.02.01-.03.01-.05.02-.57.19-1.14.41-1.72.64-.33.13-.67.26-1,.41-.47.19-.93.4-1.4.62h-.01c-.46.22-.93.44-1.4.68-.59.29-1.18.6-1.78.93-.54.3-1.09.6-1.64.92-.49.29-.98.59-1.48.89-1.18.74-2.37,1.53-3.56,2.36-.52.37-1.05.75-1.57,1.14-1.1.82-2.2,1.67-3.29,2.57-.14.11-.27.22-.41.34-.41.34-.81.68-1.22,1.03-.1.08-.19.16-.28.25-8.16,7.1-13.32,14.15-15.82,19.64-.31.67-.57,1.32-.79,1.94-1.31,3.57-1.32,6.29-.16,7.63.65.75,1.79,1.21,3.32,1.32.12-.66.18-1.33.15-2-1.1-.07-1.73-.36-1.96-.63-.43-.5-.59-2.08.19-4.65.2-.66.47-1.39.81-2.19.28-.65.6-1.35.99-2.09,2.93-5.61,8.06-11.77,14.51-17.39.11-.11.23-.21.35-.31.38-.33.77-.66,1.16-.98,3.83-3.2,7.77-5.91,11.58-7.99.6-.33,1.19-.64,1.77-.93,1.84-.92,3.63-1.69,5.36-2.28.08-.03.16-.05.23-.08h0c.7-.23,1.38-.43,2.03-.59,1.52-.39,2.91-.59,4.08-.59,1.49,0,2.3.33,2.57.63.37.43.53,1.65.08,3.61.63.14,1.28.24,1.97.3.1-.44.17-.87.22-1.28.02-.19.04-.39.05-.57.05-.67.02-1.27-.09-1.8ZM295.72,97.31c-3.07,4.61-7.38,9.38-12.47,13.78-.64.55-1.28,1.09-1.91,1.6t.01.02c.23.66.45,1.33.66,2,.84-.67,1.69-1.37,2.54-2.11.51-.44,1.01-.88,1.5-1.33.33-.3.67-.6.99-.91,1.27-1.18,2.48-2.38,3.63-3.6.32-.34.63-.67.93-1.01.7-.76,1.37-1.53,2.01-2.3.99-1.19,1.91-2.38,2.76-3.57.25-.34.49-.68.72-1.03.23-.34.45-.67.67-1-.7-.15-1.38-.33-2.04-.54ZM302.32,84.71c-.03-.13-.06-.25-.1-.37-.13-.47-.34-.87-.62-1.19-.76-.89-2.19-1.33-4.08-1.33-.29,0-.58.01-.89.03-.21.01-.43.03-.65.06-.19.02-.39.04-.59.07-.63.09-1.3.22-1.99.38-.21.05-.42.1-.64.16-.12.03-.25.06-.38.1-.6.16-1.22.35-1.86.57-.02.01-.03.01-.05.02.11.31.25.62.41.92.16.3.33.59.52.87h0c.7-.23,1.38-.43,2.03-.59,1.52-.39,2.91-.59,4.08-.59,1.49,0,2.3.33,2.57.63.37.43.53,1.65.08,3.61.63.14,1.28.24,1.97.3.1-.44.17-.87.22-1.28.02-.19.04-.39.05-.57.05-.67.02-1.27-.09-1.8ZM307.66,77.92c-2.32-2.68-5.83-4.1-10.16-4.1-1.42,0-2.92.15-4.5.44-.77.15-1.56.32-2.36.54-.89.23-1.79.5-2.72.82-1.32.45-2.66.99-4.02,1.6-.69.3-1.39.62-2.09.97-5.31,2.6-10.84,6.26-16.1,10.69-.32.26-.63.54-.95.81-.19.16-.38.33-.56.49-7.96,7-14.71,15.4-17.99,23.12-.3.7-.57,1.41-.81,2.1-2.02,5.83-1.87,11.15,1.48,15.03,1.11,1.28,2.46,2.28,4.02,2.96.78-.35,1.49-.81,2.14-1.35-1.83-.53-3.4-1.48-4.64-2.92-2.97-3.44-2.91-8.37-.83-13.82.23-.64.5-1.28.8-1.93,3.3-7.29,9.83-15.28,17.28-21.81.14-.12.28-.24.42-.36.36-.31.73-.62,1.09-.93,1.03-.86,2.07-1.69,3.12-2.49.43-.33.85-.65,1.28-.97,1.96-1.44,3.94-2.76,5.9-3.95.8-.49,1.59-.95,2.38-1.38.65-.37,1.31-.72,1.96-1.05.66-.34,1.31-.66,1.96-.95.34-.16.68-.32,1.02-.47.36-.16.72-.31,1.08-.46.42-.17.84-.34,1.25-.49.49-.2.98-.37,1.46-.54.35-.12.69-.23,1.02-.33.15-.05.3-.1.45-.14.32-.1.64-.19.95-.27.39-.11.78-.21,1.16-.29.02-.01.05-.01.07-.02.74-.17,1.47-.31,2.17-.41.36-.05.72-.1,1.07-.13.36-.04.7-.07,1.04-.08.34-.02.67-.03.99-.03h.01c.32,0,.63.01.94.03.28.01.56.03.84.06.08.01.16.02.24.03.5.06.98.15,1.44.26.33.08.66.17.97.27.23.08.46.17.69.26.19.08.39.16.57.25.29.14.56.29.83.45.32.19.63.41.92.64.17.13.33.27.49.43.08.06.15.14.23.21.17.16.33.33.48.51,1.65,1.9,2.41,4.39,2.28,7.33-.02.36-.05.72-.09,1.1-.02.2-.05.41-.08.62.68-.08,1.37-.19,2.06-.33.47-4.01-.42-7.44-2.65-10.02ZM304.66,98.58h-.31c-.04.07-.08.15-.13.22-.18.31-.37.63-.56.94-.23.39-.48.78-.73,1.17-.76,1.18-1.58,2.36-2.47,3.54-.59.79-1.21,1.57-1.85,2.36-.3.37-.61.74-.93,1.11-.36.43-.74.86-1.12,1.28-.34.38-.68.76-1.02,1.13-.33.36-.67.71-1,1.07-1.88,1.96-3.91,3.88-6.06,5.74-1.57,1.36-3.2,2.66-4.87,3.91.15.73.27,1.46.38,2.19,2.07-1.5,4.02-3.06,5.79-4.59,7.31-6.3,13.28-13.43,16.88-20.13-.67.04-1.34.06-2,.06ZM302.32,84.71c-.03-.13-.06-.25-.1-.37-.13-.47-.34-.87-.62-1.19-.76-.89-2.19-1.33-4.08-1.33-.29,0-.58.01-.89.03-.21.01-.43.03-.65.06-.19.02-.39.04-.59.07-.63.09-1.3.22-1.99.38-.21.05-.42.1-.64.16-.12.03-.25.06-.38.1.08.2.17.4.27.59.22.42.48.82.79,1.2,1.52-.39,2.91-.59,4.08-.59,1.49,0,2.3.33,2.57.63.37.43.53,1.65.08,3.61.63.14,1.28.24,1.97.3.1-.44.17-.87.22-1.28.02-.19.04-.39.05-.57.05-.67.02-1.27-.09-1.8ZM307.84,90.32h0c.59-.05,1.19-.13,1.8-.23-.61.1-1.21.18-1.8.23ZM295.72,97.31c-3.07,4.61-7.38,9.38-12.47,13.78-.64.55-1.28,1.09-1.91,1.6t.01.02c.23.66.45,1.33.66,2,.84-.67,1.69-1.37,2.54-2.11.51-.44,1.01-.88,1.5-1.33.33-.3.67-.6.99-.91,1.27-1.18,2.48-2.38,3.63-3.6.32-.34.63-.67.93-1.01.7-.76,1.37-1.53,2.01-2.3.99-1.19,1.91-2.38,2.76-3.57.25-.34.49-.68.72-1.03.23-.34.45-.67.67-1-.7-.15-1.38-.33-2.04-.54ZM292.65,83.21c-.1-.19-.19-.39-.27-.59-.6.16-1.22.35-1.86.57-.02.01-.03.01-.05.02-.57.19-1.14.41-1.72.64-.33.13-.67.26-1,.41-.47.19-.93.4-1.4.62h-.01c-.46.22-.93.44-1.4.68-.59.29-1.18.6-1.78.93-.54.3-1.09.6-1.64.92-.49.29-.98.59-1.48.89-1.18.74-2.37,1.53-3.56,2.36-.52.37-1.05.75-1.57,1.14-1.1.82-2.2,1.67-3.29,2.57-.14.11-.27.22-.41.34-.41.34-.81.68-1.22,1.03-.1.08-.19.16-.28.25-8.16,7.1-13.32,14.15-15.82,19.64-.31.67-.57,1.32-.79,1.94-1.31,3.57-1.32,6.29-.16,7.63.65.75,1.79,1.21,3.32,1.32.12-.66.18-1.33.15-2-1.1-.07-1.73-.36-1.96-.63-.43-.5-.59-2.08.19-4.65.2-.66.47-1.39.81-2.19.28-.65.6-1.35.99-2.09,2.93-5.61,8.06-11.77,14.51-17.39.11-.11.23-.21.35-.31.38-.33.77-.66,1.16-.98,3.83-3.2,7.77-5.91,11.58-7.99.6-.33,1.19-.64,1.77-.93,1.84-.92,3.63-1.69,5.36-2.28.08-.03.16-.05.23-.08h0c.7-.23,1.38-.43,2.03-.59-.31-.38-.57-.78-.79-1.2ZM302.32,84.71c-.03-.13-.06-.25-.1-.37-.13-.47-.34-.87-.62-1.19-.76-.89-2.19-1.33-4.08-1.33-.29,0-.58.01-.89.03-.21.01-.43.03-.65.06-.19.02-.39.04-.59.07-.63.09-1.3.22-1.99.38-.21.05-.42.1-.64.16-.12.03-.25.06-.38.1-.6.16-1.22.35-1.86.57-.02.01-.03.01-.05.02-.57.19-1.14.41-1.72.64-.33.13-.67.26-1,.41-.47.19-.93.4-1.4.62h-.01c-.46.22-.93.44-1.4.68-.59.29-1.18.6-1.78.93-.54.3-1.09.6-1.64.92-.49.29-.98.59-1.48.89-1.18.74-2.37,1.53-3.56,2.36-.52.37-1.05.75-1.57,1.14-1.1.82-2.2,1.67-3.29,2.57-.14.11-.27.22-.41.34-.41.34-.81.68-1.22,1.03-.1.08-.19.16-.28.25-8.16,7.1-13.32,14.15-15.82,19.64-.31.67-.57,1.32-.79,1.94-1.31,3.57-1.32,6.29-.16,7.63.65.75,1.79,1.21,3.32,1.32.12-.66.18-1.33.15-2-1.1-.07-1.73-.36-1.96-.63-.43-.5-.59-2.08.19-4.65.2-.66.47-1.39.81-2.19.28-.65.6-1.35.99-2.09,2.93-5.61,8.06-11.77,14.51-17.39.11-.11.23-.21.35-.31.38-.33.77-.66,1.16-.98,3.83-3.2,7.77-5.91,11.58-7.99.6-.33,1.19-.64,1.77-.93,1.84-.92,3.63-1.69,5.36-2.28.08-.03.16-.05.23-.08h0c.7-.23,1.38-.43,2.03-.59,1.52-.39,2.91-.59,4.08-.59,1.49,0,2.3.33,2.57.63.37.43.53,1.65.08,3.61.63.14,1.28.24,1.97.3.1-.44.17-.87.22-1.28.02-.19.04-.39.05-.57.05-.67.02-1.27-.09-1.8ZM295.72,97.31c-3.07,4.61-7.38,9.38-12.47,13.78-.64.55-1.28,1.09-1.91,1.6t.01.02c.23.66.45,1.33.66,2,.84-.67,1.69-1.37,2.54-2.11.51-.44,1.01-.88,1.5-1.33.33-.3.67-.6.99-.91,1.27-1.18,2.48-2.38,3.63-3.6.32-.34.63-.67.93-1.01.7-.76,1.37-1.53,2.01-2.3.99-1.19,1.91-2.38,2.76-3.57.25-.34.49-.68.72-1.03.23-.34.45-.67.67-1-.7-.15-1.38-.33-2.04-.54ZM302.32,84.71c-.03-.13-.06-.25-.1-.37-.13-.47-.34-.87-.62-1.19-.76-.89-2.19-1.33-4.08-1.33-.29,0-.58.01-.89.03-.21.01-.43.03-.65.06-.19.02-.39.04-.59.07-.63.09-1.3.22-1.99.38-.21.05-.42.1-.64.16-.12.03-.25.06-.38.1-.6.16-1.22.35-1.86.57-.02.01-.03.01-.05.02-.57.19-1.14.41-1.72.64-.33.13-.67.26-1,.41-.47.19-.93.4-1.4.62h-.01c-.46.22-.93.44-1.4.68-.59.29-1.18.6-1.78.93-.54.3-1.09.6-1.64.92-.49.29-.98.59-1.48.89-1.18.74-2.37,1.53-3.56,2.36-.52.37-1.05.75-1.57,1.14-1.1.82-2.2,1.67-3.29,2.57-.14.11-.27.22-.41.34-.41.34-.81.68-1.22,1.03-.1.08-.19.16-.28.25-8.16,7.1-13.32,14.15-15.82,19.64-.31.67-.57,1.32-.79,1.94-1.31,3.57-1.32,6.29-.16,7.63.65.75,1.79,1.21,3.32,1.32.12-.66.18-1.33.15-2-1.1-.07-1.73-.36-1.96-.63-.43-.5-.59-2.08.19-4.65.2-.66.47-1.39.81-2.19.28-.65.6-1.35.99-2.09,2.93-5.61,8.06-11.77,14.51-17.39.11-.11.23-.21.35-.31.38-.33.77-.66,1.16-.98,3.83-3.2,7.77-5.91,11.58-7.99.6-.33,1.19-.64,1.77-.93,1.84-.92,3.63-1.69,5.36-2.28.08-.03.16-.05.23-.08h0c.7-.23,1.38-.43,2.03-.59,1.52-.39,2.91-.59,4.08-.59,1.49,0,2.3.33,2.57.63.37.43.53,1.65.08,3.61.63.14,1.28.24,1.97.3.1-.44.17-.87.22-1.28.02-.19.04-.39.05-.57.05-.67.02-1.27-.09-1.8ZM295.72,97.31c-3.07,4.61-7.38,9.38-12.47,13.78-.64.55-1.28,1.09-1.91,1.6t.01.02c.23.66.45,1.33.66,2,.84-.67,1.69-1.37,2.54-2.11.51-.44,1.01-.88,1.5-1.33.33-.3.67-.6.99-.91,1.27-1.18,2.48-2.38,3.63-3.6.32-.34.63-.67.93-1.01.7-.76,1.37-1.53,2.01-2.3.99-1.19,1.91-2.38,2.76-3.57.25-.34.49-.68.72-1.03.23-.34.45-.67.67-1-.7-.15-1.38-.33-2.04-.54ZM302.32,84.71c-.03-.13-.06-.25-.1-.37-.13-.47-.34-.87-.62-1.19-.76-.89-2.19-1.33-4.08-1.33-.29,0-.58.01-.89.03-.21.01-.43.03-.65.06-.19.02-.39.04-.59.07-.63.09-1.3.22-1.99.38-.21.05-.42.1-.64.16-.12.03-.25.06-.38.1-.6.16-1.22.35-1.86.57-.02.01-.03.01-.05.02-.57.19-1.14.41-1.72.64-.33.13-.67.26-1,.41-.47.19-.93.4-1.4.62h-.01c-.46.22-.93.44-1.4.68-.59.29-1.18.6-1.78.93-.54.3-1.09.6-1.64.92-.49.29-.98.59-1.48.89-1.18.74-2.37,1.53-3.56,2.36-.52.37-1.05.75-1.57,1.14-1.1.82-2.2,1.67-3.29,2.57-.14.11-.27.22-.41.34-.41.34-.81.68-1.22,1.03-.1.08-.19.16-.28.25-8.16,7.1-13.32,14.15-15.82,19.64-.31.67-.57,1.32-.79,1.94-1.31,3.57-1.32,6.29-.16,7.63.65.75,1.79,1.21,3.32,1.32.12-.66.18-1.33.15-2-1.1-.07-1.73-.36-1.96-.63-.43-.5-.59-2.08.19-4.65.2-.66.47-1.39.81-2.19.28-.65.6-1.35.99-2.09,2.93-5.61,8.06-11.77,14.51-17.39.11-.11.23-.21.35-.31.38-.33.77-.66,1.16-.98,3.83-3.2,7.77-5.91,11.58-7.99.6-.33,1.19-.64,1.77-.93,1.84-.92,3.63-1.69,5.36-2.28.08-.03.16-.05.23-.08h0c.7-.23,1.38-.43,2.03-.59,1.52-.39,2.91-.59,4.08-.59,1.49,0,2.3.33,2.57.63.37.43.53,1.65.08,3.61.63.14,1.28.24,1.97.3.1-.44.17-.87.22-1.28.02-.19.04-.39.05-.57.05-.67.02-1.27-.09-1.8ZM295.72,97.31c-3.07,4.61-7.38,9.38-12.47,13.78-.64.55-1.28,1.09-1.91,1.6t.01.02c.23.66.45,1.33.66,2,.84-.67,1.69-1.37,2.54-2.11.51-.44,1.01-.88,1.5-1.33.33-.3.67-.6.99-.91,1.27-1.18,2.48-2.38,3.63-3.6.32-.34.63-.67.93-1.01.7-.76,1.37-1.53,2.01-2.3.99-1.19,1.91-2.38,2.76-3.57.25-.34.49-.68.72-1.03.23-.34.45-.67.67-1-.7-.15-1.38-.33-2.04-.54ZM302.32,84.71c-.03-.13-.06-.25-.1-.37-.13-.47-.34-.87-.62-1.19-.76-.89-2.19-1.33-4.08-1.33-.29,0-.58.01-.89.03-.21.01-.43.03-.65.06-.19.02-.39.04-.59.07-.63.09-1.3.22-1.99.38-.21.05-.42.1-.64.16-.12.03-.25.06-.38.1-.6.16-1.22.35-1.86.57-.02.01-.03.01-.05.02-.57.19-1.14.41-1.72.64-.33.13-.67.26-1,.41-.47.19-.93.4-1.4.62h-.01c-.46.22-.93.44-1.4.68-.59.29-1.18.6-1.78.93-.54.3-1.09.6-1.64.92-.49.29-.98.59-1.48.89-1.18.74-2.37,1.53-3.56,2.36-.52.37-1.05.75-1.57,1.14-1.1.82-2.2,1.67-3.29,2.57-.14.11-.27.22-.41.34-.41.34-.81.68-1.22,1.03-.1.08-.19.16-.28.25-8.16,7.1-13.32,14.15-15.82,19.64-.31.67-.57,1.32-.79,1.94-1.31,3.57-1.32,6.29-.16,7.63.65.75,1.79,1.21,3.32,1.32.12-.66.18-1.33.15-2-1.1-.07-1.73-.36-1.96-.63-.43-.5-.59-2.08.19-4.65.2-.66.47-1.39.81-2.19.28-.65.6-1.35.99-2.09,2.93-5.61,8.06-11.77,14.51-17.39.11-.11.23-.21.35-.31.38-.33.77-.66,1.16-.98,3.83-3.2,7.77-5.91,11.58-7.99.6-.33,1.19-.64,1.77-.93,1.84-.92,3.63-1.69,5.36-2.28.08-.03.16-.05.23-.08h0c.7-.23,1.38-.43,2.03-.59,1.52-.39,2.91-.59,4.08-.59,1.49,0,2.3.33,2.57.63.37.43.53,1.65.08,3.61.63.14,1.28.24,1.97.3.1-.44.17-.87.22-1.28.02-.19.04-.39.05-.57.05-.67.02-1.27-.09-1.8ZM295.72,97.31c-3.07,4.61-7.38,9.38-12.47,13.78-.64.55-1.28,1.09-1.91,1.6t.01.02c.23.66.45,1.33.66,2,.84-.67,1.69-1.37,2.54-2.11.51-.44,1.01-.88,1.5-1.33.33-.3.67-.6.99-.91,1.27-1.18,2.48-2.38,3.63-3.6.32-.34.63-.67.93-1.01.7-.76,1.37-1.53,2.01-2.3.99-1.19,1.91-2.38,2.76-3.57.25-.34.49-.68.72-1.03.23-.34.45-.67.67-1-.7-.15-1.38-.33-2.04-.54Z"/>
      <path d="M278.82,157.87c-6.83,14.21-18.8,24.92-33.71,30.15l-166.44,58.32c-6.33,2.22-12.9,3.34-19.55,3.34-25.06,0-47.47-15.89-55.76-39.55-5.22-14.91-4.33-30.95,2.52-45.16,6.83-14.23,18.81-24.95,33.71-30.16l166.44-58.33c6.32-2.22,12.9-3.35,19.54-3.35,15.21,0,29.44,5.86,40.14,15.75-.32.26-.63.54-.95.81-.19.16-.38.33-.56.49-10.46-9.58-24.27-15.05-38.63-15.05-6.27,0-12.64,1.04-18.88,3.23l-166.44,58.33c-14.88,5.21-26.24,15.96-32.57,29.14-6.34,13.16-7.65,28.74-2.43,43.63,8.23,23.5,30.3,38.22,53.87,38.22,6.27,0,12.64-1.04,18.89-3.23l166.44-58.32c14.87-5.22,26.24-15.97,32.57-29.13,4.76-9.89,6.69-21.15,5.14-32.45-.1-.73-.22-1.46-.35-2.19-.37-2.11-.86-4.22-1.49-6.32-.2-.68-.41-1.36-.64-2.03-.07-.21-.15-.43-.22-.64-2.05-5.84-4.94-11.14-8.51-15.8.11-.11.23-.21.35-.31.38-.33.77-.66,1.16-.98,3.75,4.88,6.77,10.39,8.88,16.41t.01.02c.23.66.45,1.33.66,2,.65,2.09,1.19,4.21,1.6,6.34.15.73.27,1.46.38,2.19,1.84,11.73.09,23.71-5.17,34.63Z"/>
      <path d="M258.41,124.47c.02.68-.02,1.36-.13,2.02-.33,2.23-1.32,4.32-2.84,5.99-.57.64-1.23,1.22-1.96,1.72-.83.58-1.75,1.06-2.75,1.41-1.26.44-2.54.65-3.8.65-4.75,0-9.19-2.97-10.85-7.69-2.1-6,1.06-12.55,7.05-14.65,1.01-.36,2.05-.56,3.08-.62-.3.7-.57,1.41-.81,2.1-.54.08-1.08.22-1.61.41-4.94,1.73-7.55,7.16-5.82,12.1,1.34,3.8,4.94,6.35,8.96,6.35,1.06,0,2.12-.18,3.14-.53.28-.1.56-.21.83-.34.78-.35,1.49-.81,2.14-1.35,1.02-.86,1.85-1.93,2.44-3.16.37-.76.63-1.55.78-2.36.12-.66.18-1.33.15-2-.02-.97-.2-1.94-.53-2.89-.3-.87-.72-1.67-1.24-2.39.2-.66.47-1.39.81-2.19,1,1.1,1.8,2.42,2.32,3.92.41,1.15.62,2.34.64,3.5Z"/>
      <path d="M336.16,73c-2.91,4.9-8.01,9.69-14.49,13.06-1.79.93-3.61,1.71-5.42,2.35-1.09.38-2.17.71-3.25.99-1.03.26-2.04.48-3.04.64-.11.02-.22.04-.32.05-.61.1-1.21.18-1.8.23h0c-.36.05-.72.08-1.08.1-.7.06-1.39.08-2.07.08-1.07,0-2.11-.06-3.1-.19-.69-.07-1.36-.19-2-.33-1.56-.34-2.99-.84-4.25-1.51-.56-.3-1.08-.63-1.57-1-.94-.7-1.74-1.53-2.36-2.47.7-.23,1.38-.43,2.03-.59,1.43,1.79,3.75,3.04,6.73,3.65.63.14,1.28.24,1.97.3.81.1,1.66.14,2.55.14,1.16,0,2.35-.08,3.56-.23.68-.08,1.37-.19,2.06-.33,3.49-.65,7.07-1.9,10.44-3.65,5.81-3.02,10.5-7.33,13.29-11.69.69.17,1.4.31,2.12.4Z"/>
    </g>
  </g>
</svg>