<?xml version="1.0" encoding="UTF-8"?>
<svg id="Calque_2" data-name="Calque 2" xmlns="http://www.w3.org/2000/svg" viewBox="0 0 316.87 344.95">
  <defs>
    <style>
      .cls-1 {
        fill: #ca756f;
      }

      .cls-2 {
        fill: #ffca26;
      }

      .cls-3 {
        fill: #9abc04;
      }

      .cls-4 {
        fill: #f3e8cc;
      }
    </style>
  </defs>
  <g id="Calque_2-2" data-name="Calque 2">
    <g>
      <g>
        <path class="cls-4" d="M35.72,2.53c.79.14,1.58.3,2.38.5-.8-.2-1.59-.37-2.38-.5ZM75.16,49.25c-.59-.15-1.17-.28-1.74-.39-1.71-.33-3.37-.5-4.91-.5-.12,0-.24,0-.35.01.06.67.09,1.34.1,2,.04,2.07-.11,4.09-.46,6.02-.12.69-.27,1.37-.44,2.03.33-.04.72-.06,1.15-.06.91,0,1.93.11,3.02.32.89.17,1.8.4,2.73.69.16-.65.29-1.3.41-1.97.33-1.97.51-4,.53-6.08,0-.69-.01-1.38-.04-2.07Z"/>
        <path d="M68.16,48.37c-.68,0-1.34.05-1.98.13.06.67.09,1.34.1,2,.05,2.17-.14,4.26-.56,6.24.6-.2,1.3-.32,2.08-.35.35-1.93.5-3.95.46-6.02-.01-.66-.04-1.33-.1-2ZM65.45,59.16c-.32.43-.38,1.66.33,3.59.66-1.36,1.19-2.81,1.58-4.33-1.09.14-1.7.46-1.91.74ZM68.16,48.37c-.68,0-1.34.05-1.98.13.06.67.09,1.34.1,2,.05,2.17-.14,4.26-.56,6.24.6-.2,1.3-.32,2.08-.35.35-1.93.5-3.95.46-6.02-.01-.66-.04-1.33-.1-2ZM65.45,59.16c-.32.43-.38,1.66.33,3.59.66-1.36,1.19-2.81,1.58-4.33-1.09.14-1.7.46-1.91.74ZM68.16,48.37c-.68,0-1.34.05-1.98.13.06.67.09,1.34.1,2,.05,2.17-.14,4.26-.56,6.24.6-.2,1.3-.32,2.08-.35.35-1.93.5-3.95.46-6.02-.01-.66-.04-1.33-.1-2ZM65.45,59.16c-.32.43-.38,1.66.33,3.59.66-1.36,1.19-2.81,1.58-4.33-1.09.14-1.7.46-1.91.74ZM74.26,59.37c-.85,3.7-2.29,7.13-4.33,10.13.43.52.88,1.03,1.36,1.54,2.28-3.25,3.9-6.98,4.86-11.01-.64-.25-1.27-.47-1.89-.66ZM65.45,59.16c-.32.43-.38,1.66.33,3.59.66-1.36,1.19-2.81,1.58-4.33-1.09.14-1.7.46-1.91.74ZM29.83,0v2c.36,0,.73.01,1.09.02.31-.65.61-1.3.89-1.96-.66-.04-1.32-.06-1.98-.06ZM74.26,59.37c-.85,3.7-2.29,7.13-4.33,10.13.43.52.88,1.03,1.36,1.54,2.28-3.25,3.9-6.98,4.86-11.01-.64-.25-1.27-.47-1.89-.66ZM65.45,59.16c-.32.43-.38,1.66.33,3.59.66-1.36,1.19-2.81,1.58-4.33-1.09.14-1.7.46-1.91.74ZM64.45,75.4c-.26.2-.52.4-.78.59h0c-.28.21-.56.41-.84.59.44.5.88,1,1.35,1.49.22-.15.44-.3.66-.46.33-.24.65-.48.96-.73-.46-.49-.91-.98-1.35-1.48ZM74.26,59.37c-.85,3.7-2.29,7.13-4.33,10.13.43.52.88,1.03,1.36,1.54,2.28-3.25,3.9-6.98,4.86-11.01-.64-.25-1.27-.47-1.89-.66ZM29.83,0v2c.36,0,.73.01,1.09.02.31-.65.61-1.3.89-1.96-.66-.04-1.32-.06-1.98-.06ZM29.83,0v2c.36,0,.73.01,1.09.02.31-.65.61-1.3.89-1.96-.66-.04-1.32-.06-1.98-.06ZM29.83,0v2c.36,0,.73.01,1.09.02.31-.65.61-1.3.89-1.96-.66-.04-1.32-.06-1.98-.06ZM65.45,59.16c-.32.43-.38,1.66.33,3.59.66-1.36,1.19-2.81,1.58-4.33-1.09.14-1.7.46-1.91.74ZM74.26,59.37c-.85,3.7-2.29,7.13-4.33,10.13.43.52.88,1.03,1.36,1.54,2.28-3.25,3.9-6.98,4.86-11.01-.64-.25-1.27-.47-1.89-.66ZM65.45,59.16c-.32.43-.38,1.66.33,3.59.66-1.36,1.19-2.81,1.58-4.33-1.09.14-1.7.46-1.91.74ZM74.26,59.37c-.85,3.7-2.29,7.13-4.33,10.13.43.52.88,1.03,1.36,1.54,2.28-3.25,3.9-6.98,4.86-11.01-.64-.25-1.27-.47-1.89-.66ZM68.16,48.37c-.68,0-1.34.05-1.98.13.06.67.09,1.34.1,2,.05,2.17-.14,4.26-.56,6.24.6-.2,1.3-.32,2.08-.35.35-1.93.5-3.95.46-6.02-.01-.66-.04-1.33-.1-2ZM65.45,59.16c-.32.43-.38,1.66.33,3.59.66-1.36,1.19-2.81,1.58-4.33-1.09.14-1.7.46-1.91.74ZM65.45,59.16c-.32.43-.38,1.66.33,3.59.66-1.36,1.19-2.81,1.58-4.33-1.09.14-1.7.46-1.91.74ZM68.16,48.37c-.68,0-1.34.05-1.98.13.06.67.09,1.34.1,2,.05,2.17-.14,4.26-.56,6.24.6-.2,1.3-.32,2.08-.35.35-1.93.5-3.95.46-6.02-.01-.66-.04-1.33-.1-2ZM65.45,59.16c-.32.43-.38,1.66.33,3.59.66-1.36,1.19-2.81,1.58-4.33-1.09.14-1.7.46-1.91.74ZM68.16,48.37c-.68,0-1.34.05-1.98.13.06.67.09,1.34.1,2,.05,2.17-.14,4.26-.56,6.24.6-.2,1.3-.32,2.08-.35.35-1.93.5-3.95.46-6.02-.01-.66-.04-1.33-.1-2ZM65.45,59.16c-.32.43-.38,1.66.33,3.59.66-1.36,1.19-2.81,1.58-4.33-1.09.14-1.7.46-1.91.74ZM68.16,48.37c-.68,0-1.34.05-1.98.13.06.67.09,1.34.1,2,.05,2.17-.14,4.26-.56,6.24.6-.2,1.3-.32,2.08-.35.35-1.93.5-3.95.46-6.02-.01-.66-.04-1.33-.1-2ZM68.16,48.37c-.68,0-1.34.05-1.98.13.06.67.09,1.34.1,2,.05,2.17-.14,4.26-.56,6.24.6-.2,1.3-.32,2.08-.35.35-1.93.5-3.95.46-6.02-.01-.66-.04-1.33-.1-2ZM68.16,48.37c-.68,0-1.34.05-1.98.13.06.67.09,1.34.1,2,.05,2.17-.14,4.26-.56,6.24.6-.2,1.3-.32,2.08-.35.35-1.93.5-3.95.46-6.02-.01-.66-.04-1.33-.1-2ZM68.16,48.37c-.68,0-1.34.05-1.98.13.06.67.09,1.34.1,2,.63-.08,1.29-.13,1.98-.13-.01-.66-.04-1.33-.1-2ZM77.16,49.81c-.25-9.52-3.64-19.76-10.24-28.84-4.67-6.43-10.52-11.64-16.88-15.25-.59-.34-1.18-.66-1.77-.96-4.64-2.4-9.51-3.95-14.36-4.52-.7-.08-1.4-.14-2.1-.18-.66-.04-1.32-.06-1.98-.06v2c.36,0,.73.01,1.09.02.71.02,1.42.07,2.13.14.89.09,1.78.21,2.67.37.79.14,1.58.3,2.38.5,3.15.77,6.32,1.96,9.4,3.57.59.3,1.18.62,1.77.96,2.87,1.65,5.66,3.67,8.29,6,.69.63,1.38,1.27,2.06,1.94,2.02,2.01,3.93,4.23,5.68,6.65,6.22,8.56,9.49,18.15,9.86,27.1.03.69.04,1.38.04,2.07-.02,2.08-.2,4.11-.53,6.08-.12.67-.25,1.32-.41,1.97-.85,3.7-2.29,7.13-4.33,10.13.43.52.88,1.03,1.36,1.54,2.28-3.25,3.9-6.98,4.86-11.01.15-.66.29-1.32.41-1.99.36-1.99.56-4.05.61-6.14.02-.69.01-1.39-.01-2.09ZM68.16,48.37c-.68,0-1.34.05-1.98.13.06.67.09,1.34.1,2,.05,2.17-.14,4.26-.56,6.24.6-.2,1.3-.32,2.08-.35.35-1.93.5-3.95.46-6.02-.01-.66-.04-1.33-.1-2ZM68.16,48.37c-.68,0-1.34.05-1.98.13.06.67.09,1.34.1,2,.05,2.17-.14,4.26-.56,6.24.6-.2,1.3-.32,2.08-.35.35-1.93.5-3.95.46-6.02-.01-.66-.04-1.33-.1-2ZM68.16,48.37c-.68,0-1.34.05-1.98.13.06.67.09,1.34.1,2,.05,2.17-.14,4.26-.56,6.24.6-.2,1.3-.32,2.08-.35.35-1.93.5-3.95.46-6.02-.01-.66-.04-1.33-.1-2ZM65.45,59.16c-.32.43-.38,1.66.33,3.59.66-1.36,1.19-2.81,1.58-4.33-1.09.14-1.7.46-1.91.74ZM68.16,48.37c-.68,0-1.34.05-1.98.13.06.67.09,1.34.1,2,.05,2.17-.14,4.26-.56,6.24.6-.2,1.3-.32,2.08-.35.35-1.93.5-3.95.46-6.02-.01-.66-.04-1.33-.1-2ZM65.45,59.16c-.32.43-.38,1.66.33,3.59.66-1.36,1.19-2.81,1.58-4.33-1.09.14-1.7.46-1.91.74ZM68.16,48.37c-.68,0-1.34.05-1.98.13.06.67.09,1.34.1,2,.05,2.17-.14,4.26-.56,6.24.6-.2,1.3-.32,2.08-.35.35-1.93.5-3.95.46-6.02-.01-.66-.04-1.33-.1-2ZM65.45,59.16c-.32.43-.38,1.66.33,3.59.66-1.36,1.19-2.81,1.58-4.33-1.09.14-1.7.46-1.91.74ZM68.16,48.37c-.68,0-1.34.05-1.98.13.06.67.09,1.34.1,2,.05,2.17-.14,4.26-.56,6.24.6-.2,1.3-.32,2.08-.35.35-1.93.5-3.95.46-6.02-.01-.66-.04-1.33-.1-2ZM65.45,59.16c-.32.43-.38,1.66.33,3.59.66-1.36,1.19-2.81,1.58-4.33-1.09.14-1.7.46-1.91.74ZM68.16,48.37c-.68,0-1.34.05-1.98.13.06.67.09,1.34.1,2,.05,2.17-.14,4.26-.56,6.24.6-.2,1.3-.32,2.08-.35.35-1.93.5-3.95.46-6.02-.01-.66-.04-1.33-.1-2ZM65.45,59.16c-.32.43-.38,1.66.33,3.59.66-1.36,1.19-2.81,1.58-4.33-1.09.14-1.7.46-1.91.74Z"/>
        <path d="M65.45,59.16c-.32.43-.38,1.66.33,3.59-.36.77-.77,1.51-1.22,2.21-1.14,1.81-2.56,3.42-4.24,4.78-.25.2-.51.4-.77.59-.29.21-.58.41-.87.59-.16.11-.32.21-.49.31-.46.28-.93.54-1.42.78-2.89,1.42-6.1,2.11-9.45,2.11-2.29,0-4.66-.32-7.03-.95-.59-.14-1.18-.32-1.77-.51-.66-.21-1.32-.45-1.97-.7-1.11-.44-2.2-.94-3.29-1.49-.54-.28-1.08-.57-1.61-.87-2.9-1.66-5.71-3.76-8.33-6.26-.3-.28-.59-.56-.87-.85-1.72-1.73-3.34-3.62-4.84-5.69-1.76-2.42-3.27-4.96-4.51-7.55-1.98,1.23-4.02,2.38-6.1,3.45,1.38,2.82,3.04,5.58,4.95,8.21,9.36,12.9,23.05,20.16,35.48,20.16,5.55,0,10.84-1.45,15.4-4.49.44.5.88,1,1.35,1.49-4.78,3.27-10.56,5-16.75,5-13.48,0-27.7-8.04-37.1-20.98-1.98-2.72-3.69-5.56-5.12-8.49-.29-.6-.58-1.21-.85-1.82.6-.29,1.2-.59,1.8-.9,2.09-1.08,4.13-2.24,6.12-3.47.58-.36,1.15-.72,1.71-1.1.25.62.52,1.24.82,1.85,1.2,2.56,2.68,5.07,4.42,7.46,7.39,10.18,18.16,16.5,28.09,16.5,3.92,0,7.41-.98,10.38-2.95.23-.15.45-.3.67-.46.33-.24.66-.5.97-.76,1.77-1.49,3.2-3.3,4.29-5.35.96-1.78,1.65-3.76,2.09-5.86.6-.2,1.3-.32,2.08-.35-.12.69-.27,1.37-.44,2.03-1.09.14-1.7.46-1.91.74Z"/>
      </g>
      <g>
        <g>
          <g>
            <path class="cls-3" d="M304.08,258.99c-5.23,12.93-15.26,23.25-28.25,29.05l-96.36,43.07c-12.98,5.81-27.37,6.4-40.49,1.68-13.07-4.71-23.33-14.14-28.88-26.56l-22.69-50.77c-2.79-6.25-1.25-13.8,3.85-18.79,4.01-3.92,5.61-9.58,4.19-14.78l-12.4-45.25c.26-1.48,1.24-2.72,2.71-3.38,1.64-.73,3.4-.53,4.73.52l.51.41,55.75,17.57c5.22,2.3,11.24,2.26,16.55-.11l18.43-8.24c5.31-2.37,9.35-6.82,11.12-12.24l24.1-53.12.04-.65c.1-1.74,1.17-3.23,2.85-3.98,1.51-.68,3.14-.58,4.44.25l25.1,39c3.03,4.7,8.54,7.27,14.36,6.7,7.34-.71,14.23,3.15,17.12,9.62l22.7,50.77c5.55,12.42,5.73,26.35.52,39.23Z"/>
            <g>
              <path class="cls-2" d="M309.96,216.9l-22.7-50.77c-1.54-3.45-3.87-6.38-6.73-8.64-.43-.35-.89-.69-1.35-1-2.08-1.42-4.39-2.52-6.85-3.23-.54-.16-1.1-.3-1.66-.42-1.67-.36-3.41-.55-5.17-.55-.81,0-1.62.04-2.43.12-.3.03-.6.04-.89.04-.9,0-1.77-.13-2.58-.37-.32-.1-.64-.22-.95-.35-1.38-.61-2.55-1.58-3.37-2.85l-25.46-39.56-.31-.48-.45-.36c-2.07-1.65-4.61-2.5-7.18-2.5-1.65,0-3.31.35-4.88,1.05-3.84,1.71-6.44,5.21-6.93,9.26l-23.67,52.17-.15.4c-.65,2.06-1.8,3.92-3.34,5.42h0c-1.15,1.13-2.51,2.06-4.02,2.74l-18.44,8.24c-.96.43-1.94.74-2.94.94h-.02c-.87.17-1.74.26-2.61.26-1.87,0-3.71-.39-5.42-1.17l-.2-.08-54.97-17.33c-1.94-1.35-4.22-2.05-6.54-2.05-1.63,0-3.27.34-4.83,1.04-4.01,1.79-6.65,5.57-6.9,9.85l-.03.58,12.72,46.44c.75,2.75-.14,5.78-2.33,7.93-7.19,7.02-9.33,17.73-5.35,26.64l22.69,50.78c6.34,14.17,18.02,24.93,32.9,30.28,6.63,2.39,13.53,3.58,20.45,3.58,8.57,0,17.16-1.82,25.27-5.45l96.35-43.07c14.66-6.55,25.98-18.2,31.89-32.81,5.93-14.66,5.71-30.54-.62-44.72ZM304.09,258.99c-5.23,12.93-15.26,23.25-28.25,29.05l-96.36,43.07c-3.59,1.61-7.3,2.82-11.05,3.62-.94.2-1.88.38-2.83.53-.79.13-1.58.23-2.37.32-.27.04-.55.07-.82.09-.83.09-1.66.15-2.49.19-.47.03-.94.05-1.41.06-.48.01-.96.02-1.44.02-1.53,0-3.06-.06-4.58-.2-.77-.06-1.53-.14-2.29-.24-.38-.05-.76-.1-1.14-.16-.47-.07-.95-.15-1.42-.23-.66-.12-1.32-.25-1.97-.4-.75-.16-1.5-.34-2.25-.54-1.49-.39-2.97-.85-4.43-1.38-13.07-4.71-23.33-14.14-28.88-26.56l-22.69-50.77c-2.79-6.25-1.25-13.8,3.85-18.79,4.01-3.92,5.61-9.58,4.19-14.78l-12.4-45.25c.26-1.48,1.24-2.72,2.71-3.38.65-.29,1.33-.43,1.98-.43.99,0,1.95.32,2.75.95l.51.41,55.75,17.57c2.57,1.13,5.33,1.7,8.1,1.7s5.75-.61,8.45-1.81l18.43-8.24c5.31-2.37,9.35-6.82,11.12-12.24l24.1-53.12.04-.65c.1-1.74,1.17-3.23,2.85-3.98.67-.3,1.36-.45,2.03-.45.85,0,1.68.24,2.41.7l25.1,39c.17.27.35.53.54.78.37.51.78.98,1.21,1.43.43.45.9.87,1.39,1.25.05.04.09.08.14.11.16.14.34.27.51.39.05.04.1.07.15.11.23.16.46.31.69.44.02.02.05.04.07.05.25.15.5.3.76.43.21.11.42.22.64.32.04.02.08.03.12.05.05.03.1.05.16.08.25.11.51.22.78.32.58.23,1.19.42,1.8.56.3.08.6.14.91.2h.04s.1.02.15.03c.25.04.49.08.74.11.02,0,.05,0,.07,0,.03,0,.05,0,.08,0,.2.03.41.05.62.06h.01c.12.01.24.02.37.02.27.02.54.03.81.03.53,0,1.06-.03,1.6-.08.58-.06,1.16-.08,1.73-.08.32,0,.64.01.96.03.17.01.33.02.49.03.13.01.26.02.38.04.15,0,.29.03.43.05.33.04.65.09.96.15.17.03.35.06.52.1.18.03.35.07.52.12.39.1.78.21,1.16.33.38.12.76.26,1.13.41.37.15.73.31,1.09.49.18.08.36.17.53.27.35.18.7.38,1.03.59.23.15.46.3.69.47.21.14.42.29.63.46.2.15.4.31.59.47.3.25.59.52.88.8.28.27.55.56.81.86.26.3.51.6.75.92s.47.65.69.98c.22.34.42.68.61,1.04.19.35.37.72.54,1.09l22.7,50.77c5.55,12.42,5.73,26.35.52,39.23Z"/>
              <path d="M303.57,219.76l-22.7-50.77c-.17-.37-.35-.74-.54-1.09-.19-.36-.39-.7-.61-1.04-.22-.33-.45-.66-.69-.98s-.49-.62-.75-.92c-.26-.3-.53-.59-.81-.86-.29-.28-.58-.55-.88-.8-.19-.16-.39-.32-.59-.47-.21-.17-.42-.32-.63-.46-.23-.17-.46-.32-.69-.47-.33-.21-.68-.41-1.03-.59-.17-.1-.35-.19-.53-.27-.36-.18-.72-.34-1.09-.49-.37-.15-.75-.29-1.13-.41-.38-.12-.77-.23-1.16-.33-.17-.05-.34-.09-.52-.12-.17-.04-.35-.07-.52-.1-.31-.06-.63-.11-.96-.15-.14-.02-.28-.04-.43-.05-.13-.02-.25-.03-.38-.04-.16-.01-.32-.02-.49-.03-.32-.02-.64-.03-.96-.03-.57,0-1.15.02-1.73.08-.54.05-1.07.08-1.6.08-.27,0-.54,0-.81-.03-.13,0-.25-.01-.37-.02h-.01c-.21,0-.41-.03-.62-.06-.03,0-.05,0-.08,0-.02,0-.05,0-.07,0-.25-.02-.5-.06-.74-.11-.05,0-.1-.02-.15-.03h-.04c-.31-.06-.61-.12-.91-.2-.61-.14-1.22-.33-1.8-.56-.27-.1-.53-.21-.78-.32-.06-.03-.11-.05-.16-.08-.04-.02-.08-.03-.12-.05-.22-.1-.43-.2-.64-.32-.26-.13-.51-.28-.76-.43-.02-.01-.05-.03-.07-.05-.24-.14-.47-.29-.69-.44-.05-.04-.1-.07-.15-.11-.17-.12-.34-.25-.51-.39-.05-.03-.09-.07-.14-.11-.49-.38-.96-.8-1.39-1.25-.43-.45-.83-.93-1.21-1.43-.19-.25-.37-.51-.54-.78l-25.1-39c-.73-.46-1.56-.7-2.41-.7-.67,0-1.36.15-2.03.45-1.68.75-2.75,2.24-2.85,3.98l-.04.65-24.1,53.12c-1.77,5.42-5.81,9.87-11.12,12.24l-18.43,8.24c-2.7,1.2-5.58,1.81-8.45,1.81s-5.53-.57-8.1-1.7l-55.75-17.57-.51-.41c-.8-.63-1.76-.95-2.75-.95-.65,0-1.33.14-1.98.43-1.47.66-2.45,1.9-2.71,3.38l12.4,45.25c1.42,5.2-.18,10.86-4.19,14.78-5.1,4.99-6.64,12.54-3.85,18.79l22.69,50.77c5.55,12.42,15.81,21.85,28.88,26.56,1.46.53,2.94.99,4.43,1.38.75.2,1.5.38,2.25.54.65.15,1.31.28,1.97.4.47.08.95.16,1.42.23.38.06.76.11,1.14.16.76.1,1.52.18,2.29.24,1.52.14,3.05.2,4.58.2.48,0,.96-.01,1.44-.02.47-.01.94-.03,1.41-.06.83-.04,1.66-.1,2.49-.19.27-.02.55-.05.82-.09.79-.09,1.58-.19,2.37-.32.95-.15,1.89-.33,2.83-.53,3.75-.8,7.46-2.01,11.05-3.62l96.36-43.07c12.99-5.8,23.02-16.12,28.25-29.05,5.21-12.88,5.03-26.81-.52-39.23ZM302.23,258.24c-5.03,12.45-14.7,22.39-27.21,27.97l-96.36,43.07c-6.91,3.1-14.17,4.66-21.59,4.66-5.95,0-11.8-1.02-17.41-3.03-12.55-4.53-22.4-13.58-27.73-25.5l-22.69-50.77c-2.45-5.49-1.07-12.14,3.43-16.54,4.52-4.42,6.33-10.84,4.72-16.74l-12.27-44.75c.23-.67.74-1.2,1.47-1.53.38-.17.78-.25,1.16-.25.55,0,1.07.18,1.51.52l.49.4.3.23.36.12,55.64,17.54c2.79,1.2,5.75,1.82,8.81,1.82s6.32-.67,9.26-1.98l18.43-8.24c5.78-2.58,10.21-7.44,12.17-13.34l24.06-53.02.15-.34.02-.37.04-.65c.06-1,.67-1.83,1.67-2.27.41-.19.82-.28,1.22-.28.36,0,.69.07,1,.21l24.83,38.57c3.1,4.82,8.5,7.7,14.44,7.7.59,0,1.2-.03,1.79-.09.51-.05,1.03-.07,1.54-.07,5.93,0,11.25,3.34,13.56,8.52l22.7,50.77c5.33,11.91,5.5,25.28.49,37.66ZM303.57,219.76l-22.7-50.77c-.17-.37-.35-.74-.54-1.09-.19-.36-.39-.7-.61-1.04-.22-.33-.45-.66-.69-.98s-.49-.62-.75-.92c-.26-.3-.53-.59-.81-.86-.29-.28-.58-.55-.88-.8-.19-.16-.39-.32-.59-.47-.21-.17-.42-.32-.63-.46-.23-.17-.46-.32-.69-.47-.33-.21-.68-.41-1.03-.59-.17-.1-.35-.19-.53-.27-.36-.18-.72-.34-1.09-.49-.37-.15-.75-.29-1.13-.41-.38-.12-.77-.23-1.16-.33-.17-.05-.34-.09-.52-.12-.17-.04-.35-.07-.52-.1-.31-.06-.63-.11-.96-.15-.14-.02-.28-.04-.43-.05-.13-.02-.25-.03-.38-.04-.16-.01-.32-.02-.49-.03-.32-.02-.64-.03-.96-.03-.57,0-1.15.02-1.73.08-.54.05-1.07.08-1.6.08-.27,0-.54,0-.81-.03-.13,0-.25-.01-.37-.02h-.01c-.21,0-.41-.03-.62-.06-.03,0-.05,0-.08,0-.02,0-.05,0-.07,0-.25-.02-.5-.06-.74-.11-.05,0-.1-.02-.15-.03h-.04c-.31-.06-.61-.12-.91-.2-.61-.14-1.22-.33-1.8-.56-.27-.1-.53-.21-.78-.32-.06-.03-.11-.05-.16-.08-.04-.02-.08-.03-.12-.05-.22-.1-.43-.2-.64-.32-.26-.13-.51-.28-.76-.43-.02-.01-.05-.03-.07-.05-.24-.14-.47-.29-.69-.44-.05-.04-.1-.07-.15-.11-.17-.12-.34-.25-.51-.39-.05-.03-.09-.07-.14-.11-.49-.38-.96-.8-1.39-1.25-.43-.45-.83-.93-1.21-1.43-.19-.25-.37-.51-.54-.78l-25.1-39c-.73-.46-1.56-.7-2.41-.7-.67,0-1.36.15-2.03.45-1.68.75-2.75,2.24-2.85,3.98l-.04.65-24.1,53.12c-1.77,5.42-5.81,9.87-11.12,12.24l-18.43,8.24c-2.7,1.2-5.58,1.81-8.45,1.81s-5.53-.57-8.1-1.7l-55.75-17.57-.51-.41c-.8-.63-1.76-.95-2.75-.95-.65,0-1.33.14-1.98.43-1.47.66-2.45,1.9-2.71,3.38l12.4,45.25c1.42,5.2-.18,10.86-4.19,14.78-5.1,4.99-6.64,12.54-3.85,18.79l22.69,50.77c5.55,12.42,15.81,21.85,28.88,26.56,1.46.53,2.94.99,4.43,1.38.75.2,1.5.38,2.25.54.65.15,1.31.28,1.97.4.47.08.95.16,1.42.23.38.06.76.11,1.14.16.76.1,1.52.18,2.29.24,1.52.14,3.05.2,4.58.2.48,0,.96-.01,1.44-.02.47-.01.94-.03,1.41-.06.83-.04,1.66-.1,2.49-.19.27-.02.55-.05.82-.09.79-.09,1.58-.19,2.37-.32.95-.15,1.89-.33,2.83-.53,3.75-.8,7.46-2.01,11.05-3.62l96.36-43.07c12.99-5.8,23.02-16.12,28.25-29.05,5.21-12.88,5.03-26.81-.52-39.23ZM302.23,258.24c-5.03,12.45-14.7,22.39-27.21,27.97l-96.36,43.07c-6.91,3.1-14.17,4.66-21.59,4.66-5.95,0-11.8-1.02-17.41-3.03-12.55-4.53-22.4-13.58-27.73-25.5l-22.69-50.77c-2.45-5.49-1.07-12.14,3.43-16.54,4.52-4.42,6.33-10.84,4.72-16.74l-12.27-44.75c.23-.67.74-1.2,1.47-1.53.38-.17.78-.25,1.16-.25.55,0,1.07.18,1.51.52l.49.4.3.23.36.12,55.64,17.54c2.79,1.2,5.75,1.82,8.81,1.82s6.32-.67,9.26-1.98l18.43-8.24c5.78-2.58,10.21-7.44,12.17-13.34l24.06-53.02.15-.34.02-.37.04-.65c.06-1,.67-1.83,1.67-2.27.41-.19.82-.28,1.22-.28.36,0,.69.07,1,.21l24.83,38.57c3.1,4.82,8.5,7.7,14.44,7.7.59,0,1.2-.03,1.79-.09.51-.05,1.03-.07,1.54-.07,5.93,0,11.25,3.34,13.56,8.52l22.7,50.77c5.33,11.91,5.5,25.28.49,37.66ZM311.78,216.08l-22.7-50.77c-4.07-9.12-13.33-15.02-23.58-15.02-.87,0-1.76.04-2.63.13-.22.02-.46.03-.69.03-2.2,0-4.15-.99-5.22-2.65l-25.46-39.56-.31-.48-.18-.28-.25-.2-.45-.36c-2.38-1.9-5.38-2.94-8.43-2.94-1.97,0-3.89.41-5.7,1.22-4.39,1.96-7.38,5.88-8.06,10.53l-23.54,51.9-.03.06-.03.07-.14.4-.02.05-.02.05c-.26.83-.62,1.62-1.07,2.36-.55.92-1.23,1.76-2.03,2.48t-.01.02c-.91.85-1.98,1.55-3.16,2.07l-18.44,8.24c-.69.31-1.39.55-2.1.71h-.03c-.86.22-1.74.32-2.62.32-.19,0-.38,0-.57-.02-1.4-.06-2.75-.39-4.02-.97l-.05-.02-.04-.02-.2-.08-.07-.02-.07-.03-54.69-17.24c-2.2-1.46-4.76-2.23-7.42-2.23-1.95,0-3.85.41-5.65,1.21-4.69,2.1-7.78,6.53-8.08,11.56l-.03.6-.02.32.09.31,12.72,46.44c.56,2.04-.13,4.33-1.8,5.97-7.78,7.6-10.1,19.2-5.78,28.89l22.69,50.78c6.57,14.68,18.66,25.81,34.05,31.34,6.81,2.46,13.92,3.7,21.13,3.7,8.97,0,17.75-1.89,26.08-5.62l96.35-43.07c15.13-6.76,26.83-18.8,32.93-33.89,6.14-15.17,5.91-31.61-.65-46.29ZM310.58,261.62c-5.91,14.61-17.23,26.26-31.89,32.81l-96.35,43.07c-8.11,3.63-16.7,5.45-25.27,5.45-6.92,0-13.82-1.19-20.45-3.58-14.88-5.35-26.56-16.11-32.9-30.28l-22.69-50.78c-3.98-8.91-1.84-19.62,5.35-26.64,2.19-2.15,3.08-5.18,2.33-7.93l-12.72-46.44.03-.58c.25-4.28,2.89-8.06,6.9-9.85,1.56-.7,3.2-1.04,4.83-1.04,2.32,0,4.6.7,6.54,2.05l54.97,17.33.2.08c1.71.78,3.55,1.17,5.42,1.17.87,0,1.74-.09,2.61-.26h.02c1-.2,1.98-.51,2.94-.94l18.44-8.24c1.51-.68,2.87-1.61,4.02-2.73h0c1.54-1.51,2.69-3.37,3.34-5.43l.15-.4,23.67-52.17c.49-4.05,3.09-7.55,6.93-9.26,1.57-.7,3.23-1.05,4.88-1.05,2.57,0,5.11.85,7.18,2.5l.45.36.31.48,25.46,39.56c.82,1.27,1.99,2.24,3.37,2.85.31.13.62.24.95.35.81.24,1.68.37,2.58.37.29,0,.59-.01.89-.04.81-.08,1.62-.12,2.43-.12,1.76,0,3.5.19,5.17.55.56.12,1.12.26,1.66.42,2.46.71,4.77,1.81,6.85,3.23.46.31.92.65,1.35,1,2.86,2.26,5.19,5.19,6.73,8.64l22.7,50.77c6.33,14.18,6.55,30.06.62,44.72ZM280.87,168.99c-.17-.37-.35-.74-.54-1.09-.19-.36-.39-.7-.61-1.04-.22-.33-.45-.66-.69-.98s-.49-.62-.75-.92c-.26-.3-.53-.59-.81-.86-.29-.28-.58-.55-.88-.8-.19-.16-.39-.32-.59-.47-.21-.17-.42-.32-.63-.46-.23-.17-.46-.32-.69-.47-.33-.21-.68-.41-1.03-.59-.17-.1-.35-.19-.53-.27-.36-.18-.72-.34-1.09-.49-.37-.15-.75-.29-1.13-.41-.38-.12-.77-.23-1.16-.33-.17-.05-.34-.09-.52-.12-.17-.04-.35-.07-.52-.1-.31-.06-.63-.11-.96-.15-.14-.02-.28-.04-.43-.05-.13-.02-.25-.03-.38-.04-.16-.01-.32-.02-.49-.03-.32-.02-.64-.03-.96-.03-.57,0-1.15.02-1.73.08-.54.05-1.07.08-1.6.08-.27,0-.54,0-.81-.03-.13,0-.25-.01-.37-.02h-.01c-.21,0-.41-.03-.62-.06-.03,0-.05,0-.08,0-.02,0-.05,0-.07,0-.25-.02-.5-.06-.74-.11-.05,0-.1-.02-.15-.03h-.04c-.31-.06-.61-.12-.91-.2-.61-.14-1.22-.33-1.8-.56-.27-.1-.53-.21-.78-.32-.06-.03-.11-.05-.16-.08-.04-.02-.08-.03-.12-.05-.22-.1-.43-.2-.64-.32-.26-.13-.51-.28-.76-.43-.02-.01-.05-.03-.07-.05-.24-.14-.47-.29-.69-.44-.05-.04-.1-.07-.15-.11-.17-.12-.34-.25-.51-.39-.05-.03-.09-.07-.14-.11-.49-.38-.96-.8-1.39-1.25-.43-.45-.83-.93-1.21-1.43-.19-.25-.37-.51-.54-.78l-25.1-39c-.73-.46-1.56-.7-2.41-.7-.67,0-1.36.15-2.03.45-1.68.75-2.75,2.24-2.85,3.98l-.04.65-24.1,53.12c-1.77,5.42-5.81,9.87-11.12,12.24l-18.43,8.24c-2.7,1.2-5.58,1.81-8.45,1.81s-5.53-.57-8.1-1.7l-55.75-17.57-.51-.41c-.8-.63-1.76-.95-2.75-.95-.65,0-1.33.14-1.98.43-1.47.66-2.45,1.9-2.71,3.38l12.4,45.25c1.42,5.2-.18,10.86-4.19,14.78-5.1,4.99-6.64,12.54-3.85,18.79l22.69,50.77c5.55,12.42,15.81,21.85,28.88,26.56,1.46.53,2.94.99,4.43,1.38.75.2,1.5.38,2.25.54.65.15,1.31.28,1.97.4.47.08.95.16,1.42.23.38.06.76.11,1.14.16.76.1,1.52.18,2.29.24,1.52.14,3.05.2,4.58.2.48,0,.96-.01,1.44-.02.47-.01.94-.03,1.41-.06.83-.04,1.66-.1,2.49-.19.27-.02.55-.05.82-.09.79-.09,1.58-.19,2.37-.32.95-.15,1.89-.33,2.83-.53,3.75-.8,7.46-2.01,11.05-3.62l96.36-43.07c12.99-5.8,23.02-16.12,28.25-29.05,5.21-12.88,5.03-26.81-.52-39.23l-22.7-50.77ZM302.23,258.24c-5.03,12.45-14.7,22.39-27.21,27.97l-96.36,43.07c-6.91,3.1-14.17,4.66-21.59,4.66-5.95,0-11.8-1.02-17.41-3.03-12.55-4.53-22.4-13.58-27.73-25.5l-22.69-50.77c-2.45-5.49-1.07-12.14,3.43-16.54,4.52-4.42,6.33-10.84,4.72-16.74l-12.27-44.75c.23-.67.74-1.2,1.47-1.53.38-.17.78-.25,1.16-.25.55,0,1.07.18,1.51.52l.49.4.3.23.36.12,55.64,17.54c2.79,1.2,5.75,1.82,8.81,1.82s6.32-.67,9.26-1.98l18.43-8.24c5.78-2.58,10.21-7.44,12.17-13.34l24.06-53.02.15-.34.02-.37.04-.65c.06-1,.67-1.83,1.67-2.27.41-.19.82-.28,1.22-.28.36,0,.69.07,1,.21l24.83,38.57c3.1,4.82,8.5,7.7,14.44,7.7.59,0,1.2-.03,1.79-.09.51-.05,1.03-.07,1.54-.07,5.93,0,11.25,3.34,13.56,8.52l22.7,50.77c5.33,11.91,5.5,25.28.49,37.66ZM303.57,219.76l-22.7-50.77c-.17-.37-.35-.74-.54-1.09-.19-.36-.39-.7-.61-1.04-.22-.33-.45-.66-.69-.98s-.49-.62-.75-.92c-.26-.3-.53-.59-.81-.86-.29-.28-.58-.55-.88-.8-.19-.16-.39-.32-.59-.47-.21-.17-.42-.32-.63-.46-.23-.17-.46-.32-.69-.47-.33-.21-.68-.41-1.03-.59-.17-.1-.35-.19-.53-.27-.36-.18-.72-.34-1.09-.49-.37-.15-.75-.29-1.13-.41-.38-.12-.77-.23-1.16-.33-.17-.05-.34-.09-.52-.12-.17-.04-.35-.07-.52-.1-.31-.06-.63-.11-.96-.15-.14-.02-.28-.04-.43-.05-.13-.02-.25-.03-.38-.04-.16-.01-.32-.02-.49-.03-.32-.02-.64-.03-.96-.03-.57,0-1.15.02-1.73.08-.54.05-1.07.08-1.6.08-.27,0-.54,0-.81-.03-.13,0-.25-.01-.37-.02h-.01c-.21,0-.41-.03-.62-.06-.03,0-.05,0-.08,0-.02,0-.05,0-.07,0-.25-.02-.5-.06-.74-.11-.05,0-.1-.02-.15-.03h-.04c-.31-.06-.61-.12-.91-.2-.61-.14-1.22-.33-1.8-.56-.27-.1-.53-.21-.78-.32-.06-.03-.11-.05-.16-.08-.04-.02-.08-.03-.12-.05-.22-.1-.43-.2-.64-.32-.26-.13-.51-.28-.76-.43-.02-.01-.05-.03-.07-.05-.24-.14-.47-.29-.69-.44-.05-.04-.1-.07-.15-.11-.17-.12-.34-.25-.51-.39-.05-.03-.09-.07-.14-.11-.49-.38-.96-.8-1.39-1.25-.43-.45-.83-.93-1.21-1.43-.19-.25-.37-.51-.54-.78l-25.1-39c-.73-.46-1.56-.7-2.41-.7-.67,0-1.36.15-2.03.45-1.68.75-2.75,2.24-2.85,3.98l-.04.65-24.1,53.12c-1.77,5.42-5.81,9.87-11.12,12.24l-18.43,8.24c-2.7,1.2-5.58,1.81-8.45,1.81s-5.53-.57-8.1-1.7l-55.75-17.57-.51-.41c-.8-.63-1.76-.95-2.75-.95-.65,0-1.33.14-1.98.43-1.47.66-2.45,1.9-2.71,3.38l12.4,45.25c1.42,5.2-.18,10.86-4.19,14.78-5.1,4.99-6.64,12.54-3.85,18.79l22.69,50.77c5.55,12.42,15.81,21.85,28.88,26.56,1.46.53,2.94.99,4.43,1.38.75.2,1.5.38,2.25.54.65.15,1.31.28,1.97.4.47.08.95.16,1.42.23.38.06.76.11,1.14.16.76.1,1.52.18,2.29.24,1.52.14,3.05.2,4.58.2.48,0,.96-.01,1.44-.02.47-.01.94-.03,1.41-.06.83-.04,1.66-.1,2.49-.19.27-.02.55-.05.82-.09.79-.09,1.58-.19,2.37-.32.95-.15,1.89-.33,2.83-.53,3.75-.8,7.46-2.01,11.05-3.62l96.36-43.07c12.99-5.8,23.02-16.12,28.25-29.05,5.21-12.88,5.03-26.81-.52-39.23ZM302.23,258.24c-5.03,12.45-14.7,22.39-27.21,27.97l-96.36,43.07c-6.91,3.1-14.17,4.66-21.59,4.66-5.95,0-11.8-1.02-17.41-3.03-12.55-4.53-22.4-13.58-27.73-25.5l-22.69-50.77c-2.45-5.49-1.07-12.14,3.43-16.54,4.52-4.42,6.33-10.84,4.72-16.74l-12.27-44.75c.23-.67.74-1.2,1.47-1.53.38-.17.78-.25,1.16-.25.55,0,1.07.18,1.51.52l.49.4.3.23.36.12,55.64,17.54c2.79,1.2,5.75,1.82,8.81,1.82s6.32-.67,9.26-1.98l18.43-8.24c5.78-2.58,10.21-7.44,12.17-13.34l24.06-53.02.15-.34.02-.37.04-.65c.06-1,.67-1.83,1.67-2.27.41-.19.82-.28,1.22-.28.36,0,.69.07,1,.21l24.83,38.57c3.1,4.82,8.5,7.7,14.44,7.7.59,0,1.2-.03,1.79-.09.51-.05,1.03-.07,1.54-.07,5.93,0,11.25,3.34,13.56,8.52l22.7,50.77c5.33,11.91,5.5,25.28.49,37.66ZM303.57,219.76l-22.7-50.77c-.17-.37-.35-.74-.54-1.09-.19-.36-.39-.7-.61-1.04-.22-.33-.45-.66-.69-.98s-.49-.62-.75-.92c-.26-.3-.53-.59-.81-.86-.29-.28-.58-.55-.88-.8-.19-.16-.39-.32-.59-.47-.21-.17-.42-.32-.63-.46-.23-.17-.46-.32-.69-.47-.33-.21-.68-.41-1.03-.59-.17-.1-.35-.19-.53-.27-.36-.18-.72-.34-1.09-.49-.37-.15-.75-.29-1.13-.41-.38-.12-.77-.23-1.16-.33-.17-.05-.34-.09-.52-.12-.17-.04-.35-.07-.52-.1-.31-.06-.63-.11-.96-.15-.14-.02-.28-.04-.43-.05-.13-.02-.25-.03-.38-.04-.16-.01-.32-.02-.49-.03-.32-.02-.64-.03-.96-.03-.57,0-1.15.02-1.73.08-.54.05-1.07.08-1.6.08-.27,0-.54,0-.81-.03-.13,0-.25-.01-.37-.02h-.01c-.21,0-.41-.03-.62-.06-.03,0-.05,0-.08,0-.02,0-.05,0-.07,0-.25-.02-.5-.06-.74-.11-.05,0-.1-.02-.15-.03h-.04c-.31-.06-.61-.12-.91-.2-.61-.14-1.22-.33-1.8-.56-.27-.1-.53-.21-.78-.32-.06-.03-.11-.05-.16-.08-.04-.02-.08-.03-.12-.05-.22-.1-.43-.2-.64-.32-.26-.13-.51-.28-.76-.43-.02-.01-.05-.03-.07-.05-.24-.14-.47-.29-.69-.44-.05-.04-.1-.07-.15-.11-.17-.12-.34-.25-.51-.39-.05-.03-.09-.07-.14-.11-.49-.38-.96-.8-1.39-1.25-.43-.45-.83-.93-1.21-1.43-.19-.25-.37-.51-.54-.78l-25.1-39c-.73-.46-1.56-.7-2.41-.7-.67,0-1.36.15-2.03.45-1.68.75-2.75,2.24-2.85,3.98l-.04.65-24.1,53.12c-1.77,5.42-5.81,9.87-11.12,12.24l-18.43,8.24c-2.7,1.2-5.58,1.81-8.45,1.81s-5.53-.57-8.1-1.7l-55.75-17.57-.51-.41c-.8-.63-1.76-.95-2.75-.95-.65,0-1.33.14-1.98.43-1.47.66-2.45,1.9-2.71,3.38l12.4,45.25c1.42,5.2-.18,10.86-4.19,14.78-5.1,4.99-6.64,12.54-3.85,18.79l22.69,50.77c5.55,12.42,15.81,21.85,28.88,26.56,1.46.53,2.94.99,4.43,1.38.75.2,1.5.38,2.25.54.65.15,1.31.28,1.97.4.47.08.95.16,1.42.23.38.06.76.11,1.14.16.76.1,1.52.18,2.29.24,1.52.14,3.05.2,4.58.2.48,0,.96-.01,1.44-.02.47-.01.94-.03,1.41-.06.83-.04,1.66-.1,2.49-.19.27-.02.55-.05.82-.09.79-.09,1.58-.19,2.37-.32.95-.15,1.89-.33,2.83-.53,3.75-.8,7.46-2.01,11.05-3.62l96.36-43.07c12.99-5.8,23.02-16.12,28.25-29.05,5.21-12.88,5.03-26.81-.52-39.23ZM302.23,258.24c-5.03,12.45-14.7,22.39-27.21,27.97l-96.36,43.07c-6.91,3.1-14.17,4.66-21.59,4.66-5.95,0-11.8-1.02-17.41-3.03-12.55-4.53-22.4-13.58-27.73-25.5l-22.69-50.77c-2.45-5.49-1.07-12.14,3.43-16.54,4.52-4.42,6.33-10.84,4.72-16.74l-12.27-44.75c.23-.67.74-1.2,1.47-1.53.38-.17.78-.25,1.16-.25.55,0,1.07.18,1.51.52l.49.4.3.23.36.12,55.64,17.54c2.79,1.2,5.75,1.82,8.81,1.82s6.32-.67,9.26-1.98l18.43-8.24c5.78-2.58,10.21-7.44,12.17-13.34l24.06-53.02.15-.34.02-.37.04-.65c.06-1,.67-1.83,1.67-2.27.41-.19.82-.28,1.22-.28.36,0,.69.07,1,.21l24.83,38.57c3.1,4.82,8.5,7.7,14.44,7.7.59,0,1.2-.03,1.79-.09.51-.05,1.03-.07,1.54-.07,5.93,0,11.25,3.34,13.56,8.52l22.7,50.77c5.33,11.91,5.5,25.28.49,37.66ZM303.57,219.76l-22.7-50.77c-.17-.37-.35-.74-.54-1.09-.19-.36-.39-.7-.61-1.04-.22-.33-.45-.66-.69-.98s-.49-.62-.75-.92c-.26-.3-.53-.59-.81-.86-.29-.28-.58-.55-.88-.8-.19-.16-.39-.32-.59-.47-.21-.17-.42-.32-.63-.46-.23-.17-.46-.32-.69-.47-.33-.21-.68-.41-1.03-.59-.17-.1-.35-.19-.53-.27-.36-.18-.72-.34-1.09-.49-.37-.15-.75-.29-1.13-.41-.38-.12-.77-.23-1.16-.33-.17-.05-.34-.09-.52-.12-.17-.04-.35-.07-.52-.1-.31-.06-.63-.11-.96-.15-.14-.02-.28-.04-.43-.05-.13-.02-.25-.03-.38-.04-.16-.01-.32-.02-.49-.03-.32-.02-.64-.03-.96-.03-.57,0-1.15.02-1.73.08-.54.05-1.07.08-1.6.08-.27,0-.54,0-.81-.03-.13,0-.25-.01-.37-.02h-.01c-.21,0-.41-.03-.62-.06-.03,0-.05,0-.08,0-.02,0-.05,0-.07,0-.25-.02-.5-.06-.74-.11-.05,0-.1-.02-.15-.03h-.04c-.31-.06-.61-.12-.91-.2-.61-.14-1.22-.33-1.8-.56-.27-.1-.53-.21-.78-.32-.06-.03-.11-.05-.16-.08-.04-.02-.08-.03-.12-.05-.22-.1-.43-.2-.64-.32-.26-.13-.51-.28-.76-.43-.02-.01-.05-.03-.07-.05-.24-.14-.47-.29-.69-.44-.05-.04-.1-.07-.15-.11-.17-.12-.34-.25-.51-.39-.05-.03-.09-.07-.14-.11-.49-.38-.96-.8-1.39-1.25-.43-.45-.83-.93-1.21-1.43-.19-.25-.37-.51-.54-.78l-25.1-39c-.73-.46-1.56-.7-2.41-.7-.67,0-1.36.15-2.03.45-1.68.75-2.75,2.24-2.85,3.98l-.04.65-24.1,53.12c-1.77,5.42-5.81,9.87-11.12,12.24l-18.43,8.24c-2.7,1.2-5.58,1.81-8.45,1.81s-5.53-.57-8.1-1.7l-55.75-17.57-.51-.41c-.8-.63-1.76-.95-2.75-.95-.65,0-1.33.14-1.98.43-1.47.66-2.45,1.9-2.71,3.38l12.4,45.25c1.42,5.2-.18,10.86-4.19,14.78-5.1,4.99-6.64,12.54-3.85,18.79l22.69,50.77c5.55,12.42,15.81,21.85,28.88,26.56,1.46.53,2.94.99,4.43,1.38.75.2,1.5.38,2.25.54.65.15,1.31.28,1.97.4.47.08.95.16,1.42.23.38.06.76.11,1.14.16.76.1,1.52.18,2.29.24,1.52.14,3.05.2,4.58.2.48,0,.96-.01,1.44-.02.47-.01.94-.03,1.41-.06.83-.04,1.66-.1,2.49-.19.27-.02.55-.05.82-.09.79-.09,1.58-.19,2.37-.32.95-.15,1.89-.33,2.83-.53,3.75-.8,7.46-2.01,11.05-3.62l96.36-43.07c12.99-5.8,23.02-16.12,28.25-29.05,5.21-12.88,5.03-26.81-.52-39.23ZM302.23,258.24c-5.03,12.45-14.7,22.39-27.21,27.97l-96.36,43.07c-6.91,3.1-14.17,4.66-21.59,4.66-5.95,0-11.8-1.02-17.41-3.03-12.55-4.53-22.4-13.58-27.73-25.5l-22.69-50.77c-2.45-5.49-1.07-12.14,3.43-16.54,4.52-4.42,6.33-10.84,4.72-16.74l-12.27-44.75c.23-.67.74-1.2,1.47-1.53.38-.17.78-.25,1.16-.25.55,0,1.07.18,1.51.52l.49.4.3.23.36.12,55.64,17.54c2.79,1.2,5.75,1.82,8.81,1.82s6.32-.67,9.26-1.98l18.43-8.24c5.78-2.58,10.21-7.44,12.17-13.34l24.06-53.02.15-.34.02-.37.04-.65c.06-1,.67-1.83,1.67-2.27.41-.19.82-.28,1.22-.28.36,0,.69.07,1,.21l24.83,38.57c3.1,4.82,8.5,7.7,14.44,7.7.59,0,1.2-.03,1.79-.09.51-.05,1.03-.07,1.54-.07,5.93,0,11.25,3.34,13.56,8.52l22.7,50.77c5.33,11.91,5.5,25.28.49,37.66ZM303.57,219.76l-22.7-50.77c-.17-.37-.35-.74-.54-1.09-.19-.36-.39-.7-.61-1.04-.22-.33-.45-.66-.69-.98s-.49-.62-.75-.92c-.26-.3-.53-.59-.81-.86-.29-.28-.58-.55-.88-.8-.19-.16-.39-.32-.59-.47-.21-.17-.42-.32-.63-.46-.23-.17-.46-.32-.69-.47-.33-.21-.68-.41-1.03-.59-.17-.1-.35-.19-.53-.27-.36-.18-.72-.34-1.09-.49-.37-.15-.75-.29-1.13-.41-.38-.12-.77-.23-1.16-.33-.17-.05-.34-.09-.52-.12-.17-.04-.35-.07-.52-.1-.31-.06-.63-.11-.96-.15-.14-.02-.28-.04-.43-.05-.13-.02-.25-.03-.38-.04-.16-.01-.32-.02-.49-.03-.32-.02-.64-.03-.96-.03-.57,0-1.15.02-1.73.08-.54.05-1.07.08-1.6.08-.27,0-.54,0-.81-.03-.13,0-.25-.01-.37-.02h-.01c-.21,0-.41-.03-.62-.06-.03,0-.05,0-.08,0-.02,0-.05,0-.07,0-.25-.02-.5-.06-.74-.11-.05,0-.1-.02-.15-.03h-.04c-.31-.06-.61-.12-.91-.2-.61-.14-1.22-.33-1.8-.56-.27-.1-.53-.21-.78-.32-.06-.03-.11-.05-.16-.08-.04-.02-.08-.03-.12-.05-.22-.1-.43-.2-.64-.32-.26-.13-.51-.28-.76-.43-.02-.01-.05-.03-.07-.05-.24-.14-.47-.29-.69-.44-.05-.04-.1-.07-.15-.11-.17-.12-.34-.25-.51-.39-.05-.03-.09-.07-.14-.11-.49-.38-.96-.8-1.39-1.25-.43-.45-.83-.93-1.21-1.43-.19-.25-.37-.51-.54-.78l-25.1-39c-.73-.46-1.56-.7-2.41-.7-.67,0-1.36.15-2.03.45-1.68.75-2.75,2.24-2.85,3.98l-.04.65-24.1,53.12c-1.77,5.42-5.81,9.87-11.12,12.24l-18.43,8.24c-2.7,1.2-5.58,1.81-8.45,1.81s-5.53-.57-8.1-1.7l-55.75-17.57-.51-.41c-.8-.63-1.76-.95-2.75-.95-.65,0-1.33.14-1.98.43-1.47.66-2.45,1.9-2.71,3.38l12.4,45.25c1.42,5.2-.18,10.86-4.19,14.78-5.1,4.99-6.64,12.54-3.85,18.79l22.69,50.77c5.55,12.42,15.81,21.85,28.88,26.56,1.46.53,2.94.99,4.43,1.38.75.2,1.5.38,2.25.54.65.15,1.31.28,1.97.4.47.08.95.16,1.42.23.38.06.76.11,1.14.16.76.1,1.52.18,2.29.24,1.52.14,3.05.2,4.58.2.48,0,.96-.01,1.44-.02.47-.01.94-.03,1.41-.06.83-.04,1.66-.1,2.49-.19.27-.02.55-.05.82-.09.79-.09,1.58-.19,2.37-.32.95-.15,1.89-.33,2.83-.53,3.75-.8,7.46-2.01,11.05-3.62l96.36-43.07c12.99-5.8,23.02-16.12,28.25-29.05,5.21-12.88,5.03-26.81-.52-39.23ZM302.23,258.24c-5.03,12.45-14.7,22.39-27.21,27.97l-96.36,43.07c-6.91,3.1-14.17,4.66-21.59,4.66-5.95,0-11.8-1.02-17.41-3.03-12.55-4.53-22.4-13.58-27.73-25.5l-22.69-50.77c-2.45-5.49-1.07-12.14,3.43-16.54,4.52-4.42,6.33-10.84,4.72-16.74l-12.27-44.75c.23-.67.74-1.2,1.47-1.53.38-.17.78-.25,1.16-.25.55,0,1.07.18,1.51.52l.49.4.3.23.36.12,55.64,17.54c2.79,1.2,5.75,1.82,8.81,1.82s6.32-.67,9.26-1.98l18.43-8.24c5.78-2.58,10.21-7.44,12.17-13.34l24.06-53.02.15-.34.02-.37.04-.65c.06-1,.67-1.83,1.67-2.27.41-.19.82-.28,1.22-.28.36,0,.69.07,1,.21l24.83,38.57c3.1,4.82,8.5,7.7,14.44,7.7.59,0,1.2-.03,1.79-.09.51-.05,1.03-.07,1.54-.07,5.93,0,11.25,3.34,13.56,8.52l22.7,50.77c5.33,11.91,5.5,25.28.49,37.66Z"/>
            </g>
          </g>
          <g>
            <path class="cls-4" d="M121.25,203.69h160.37c5.18,0,9.38,4.2,9.38,9.38v42.49c0,23.51-19.09,42.6-42.6,42.6h-93.92c-23.51,0-42.6-19.09-42.6-42.6v-42.49c0-5.18,4.2-9.38,9.38-9.38Z" transform="translate(-84.86 104.04) rotate(-24.08)"/>
            <path d="M286.01,218.2l-17.33-38.79c-1.13-2.53-3.18-4.47-5.77-5.46-2.59-.99-5.41-.91-7.94.22l-146.42,65.44c-5.22,2.34-7.57,8.49-5.24,13.71l17.34,38.79c4.75,10.63,13.36,18.78,24.24,22.94,5.06,1.93,10.33,2.89,15.58,2.89,6.06,0,12.09-1.27,17.78-3.82l85.75-38.32c21.95-9.81,31.82-35.65,22.01-57.6ZM145.61,313.18c-10.38-3.97-18.6-11.74-23.13-21.89l-17.34-38.78c-1.89-4.22.01-9.19,4.23-11.07l67.72-30.27,9.16-4.1,69.53-31.08c1.1-.48,2.26-.73,3.42-.73,1.01,0,2.02.19,2.99.56,2.09.8,3.75,2.36,4.66,4.4l17.34,38.79c9.36,20.95-.06,45.6-21.01,54.96l-85.74,38.33c-10.15,4.53-21.46,4.85-31.83.88Z"/>
          </g>
          <path d="M153.66,275.2c-.12,0-.24,0-.35-.02-15.13-2.15-18.11-7.63-18.55-8.71-.3-.74-.24-1.58.19-2.26.18-.29,18.46-29.08,50.11-12.9,1.23.63,1.72,2.13,1.09,3.36-.63,1.23-2.13,1.72-3.36,1.09-23.93-12.23-38.72,4.43-42.59,9.64,1.47,1.3,5.2,3.61,13.82,4.83,1.37.19,2.32,1.46,2.12,2.83-.18,1.25-1.25,2.15-2.47,2.15Z"/>
          <circle cx="169.03" cy="260.18" r="11.62"/>
          <path d="M212.74,243.14c-.21,0-.43-.03-.64-.08-1.33-.35-2.13-1.72-1.78-3.05,9.06-34.38,42.69-28.79,43.03-28.73.79.14,1.46.65,1.81,1.37.51,1.05,2.61,6.92-5.88,19.63-.77,1.15-2.32,1.46-3.47.69s-1.46-2.32-.69-3.47c4.84-7.24,5.6-11.56,5.62-13.52-6.46-.6-28.74-.69-35.59,25.3-.3,1.12-1.31,1.86-2.42,1.86Z"/>
          <circle cx="227.62" cy="233.99" r="11.62"/>
          <path d="M201.23,284.37c-.97,0-1.82-.7-1.97-1.68-.17-1.09.57-2.12,1.66-2.29,3.89-.62,7.79-4.09,7.38-8.27,0-.07-.01-.14,0-.21,0-.46.01-1.41.74-2.09.4-.37,1.02-.6,1.56-.57.38.02.74.14,1.04.36.8.56,1.46,1.36,2.1,2.13.55.66,1.12,1.34,1.61,1.66.05.03.1.07.15.1.54.42,1.36.77,3.26.17.04-.01.09-.03.13-.04,1.75-.42,3.25-1.73,3.91-3.41.4-1.03,1.56-1.54,2.59-1.14,1.03.4,1.54,1.56,1.14,2.59-1.14,2.91-3.61,5.08-6.63,5.83-1.08.34-4.09,1.22-6.76-.79-.44-.29-.85-.64-1.22-1.02-1.38,4.62-5.88,7.93-10.35,8.64-.11.02-.21.03-.32.03Z"/>
          <ellipse class="cls-1" cx="157.02" cy="290.19" rx="15.68" ry="9.45" transform="translate(-104.75 89.34) rotate(-24.08)"/>
          <ellipse class="cls-1" cx="257.99" cy="245.06" rx="15.68" ry="9.45" transform="translate(-77.54 126.61) rotate(-24.08)"/>
          <path d="M189.79,223.94c-.68-2.26-2.99-3.88-5.61-3.95-1.96-.07-3.64.65-5.18,1.42-1.77.88-3.47,1.87-5.1,2.97.23-1,.73-2.13,1.54-3.46,2.52-4.11,6.08-7.52,10.3-9.84,1.21-.67,1.65-2.19.98-3.4-.13-.23-.28-.44-.47-.61-.31-.29-.68-.5-1.09-.61h-.01c-.59-.15-1.24-.08-1.82.24-1.09.6-2.15,1.27-3.16,1.99h-.01s-.01.01-.02.02c-1.07.76-2.09,1.58-3.05,2.46-2.29,2.08-4.28,4.49-5.91,7.14-.97,1.59-2.28,4.02-2.4,6.81-.04,1.03.09,2.05.37,3.03-.94.85-1.84,1.76-2.71,2.7-4.58,5-5.99,10.29-3.88,14.52.2.39.42.77.68,1.13.67.96,1.55,1.8,2.6,2.51,1.61,1.11,3.65,1.89,6,2.31.15.03.3.04.44.04.96,0,1.84-.56,2.24-1.42.11-.2.18-.41.22-.64.13-.74-.08-1.46-.52-2.01-.36-.45-.88-.78-1.5-.89-1.66-.3-4.61-1.11-5.69-3.27-1.31-2.63.74-6.32,3.1-8.9.52-.57,1.06-1.13,1.62-1.66,1.69,1.73,3.96,2.91,6.46,3.13,5.09.45,10.14-3.13,11.52-8.16.36-1.35.39-2.52.06-3.6ZM184.9,226.22c-.73,2.68-3.57,4.74-6.24,4.5-1.14-.1-2.22-.63-3.07-1.4,1.76-1.3,3.65-2.45,5.63-3.43.97-.48,2.01-.9,2.83-.9.54.01.93.31.96.4,0,.03.06.24-.11.83Z"/>
        </g>
        <g>
          <path class="cls-4" d="M161.75,136.02c-1.82-1.46-4.04-2.35-6.35-2.56-.37-.04-.75-.06-1.13-.06-.3,0-.6.01-.9.04.42,1.82.49,3.52.17,5,.25-.03.5-.04.74-.04.42,0,.85.04,1.26.12,2.18.4,4.14,1.82,5.11,3.99h0s.01.02.01.02l1.07,2.4c1.12-2.09,1.78-4.43,1.97-6.95-.57-.74-1.23-1.4-1.95-1.96ZM173.09,163.18l-18.07,8.08c-.31.14-.61.3-.88.48.72.49,1.5.84,2.34,1.05h.01c.58.15,1.18.22,1.78.22.99,0,2-.2,2.97-.63l8.53-3.82c1.52-.67,2.72-1.81,3.48-3.26h0c.15-.26.27-.53.37-.8.2-.54.34-1.09.41-1.65-.32.08-.64.19-.94.33Z"/>
          <path class="cls-4" d="M174.03,162.85c-.32.08-.64.19-.94.33l-18.07,8.08c-.31.14-.61.3-.88.48-1.08-.74-1.98-1.77-2.55-3.05l-6.67-14.91-.91-2.04-.66-1.47c-.69-1.54-1.02-3.17-1.04-4.76,0-.68.05-1.35.15-2.01.62-3.86,3.11-7.36,6.94-9.06,1.29-.58,2.63-.91,3.97-1,.42,1.82.49,3.52.17,5-.71.07-1.42.26-2.1.56-2.02.9-3.4,2.66-3.91,4.65-.17.66-.24,1.36-.2,2.05.03.84.23,1.7.59,2.52l1.45,3.24.84,1.88,5.94,13.31c.1.21.22.41.37.58.14.16.31.31.5.42.18.12.38.21.59.27.21.06.43.09.65.09.32,0,.63-.06.94-.2l8.53-3.81c.57-.25,1-.71,1.22-1.28.22-.58.2-1.21-.05-1.77l-7.17-16.02c1.12-2.09,1.78-4.43,1.97-6.95.07.06.12.13.17.2.35.47.67.97.96,1.5.14.26.28.53.4.81l8.23,18.42c.56,1.25.75,2.61.57,3.94Z"/>
          <path d="M160.66,142.53h-.01v-.02c-.97-2.17-2.93-3.59-5.11-3.99-.41-.08-.84-.12-1.26-.12-.24,0-.49.01-.74.04-.18.83-.48,1.58-.91,2.25.53-.2,1.08-.29,1.65-.29.24,0,.48.02.71.05,1.68.24,3.15,1.32,3.85,2.89l.65,1.46.97,2.16c.47-.65.9-1.32,1.27-2.03l-1.07-2.4ZM160.66,142.53h-.01v-.02c-.97-2.17-2.93-3.59-5.11-3.99-.41-.08-.84-.12-1.26-.12-.24,0-.49.01-.74.04-.18.83-.48,1.58-.91,2.25.53-.2,1.08-.29,1.65-.29.24,0,.48.02.71.05,1.68.24,3.15,1.32,3.85,2.89l.65,1.46.97,2.16c.47-.65.9-1.32,1.27-2.03l-1.07-2.4ZM160.66,142.53h-.01v-.02c-.97-2.17-2.93-3.59-5.11-3.99-.41-.08-.84-.12-1.26-.12-.24,0-.49.01-.74.04-.18.83-.48,1.58-.91,2.25.53-.2,1.08-.29,1.65-.29.24,0,.48.02.71.05,1.68.24,3.15,1.32,3.85,2.89l.65,1.46.97,2.16c.47-.65.9-1.32,1.27-2.03l-1.07-2.4ZM160.66,142.53h-.01v-.02c-.97-2.17-2.93-3.59-5.11-3.99-.11.68-.3,1.32-.55,1.93,1.68.24,3.15,1.32,3.85,2.89l.65,1.46.97,2.16c.47-.65.9-1.32,1.27-2.03l-1.07-2.4ZM160.66,142.53h-.01v-.02c-.97-2.17-2.93-3.59-5.11-3.99-.41-.08-.84-.12-1.26-.12-.24,0-.49.01-.74.04-.18.83-.48,1.58-.91,2.25.53-.2,1.08-.29,1.65-.29.24,0,.48.02.71.05,1.68.24,3.15,1.32,3.85,2.89l.65,1.46.97,2.16c.47-.65.9-1.32,1.27-2.03l-1.07-2.4ZM175.29,158.09l-8.24-18.42c-.79-1.78-1.94-3.34-3.33-4.59-.67-.63-1.4-1.18-2.18-1.64-1.97-1.21-4.26-1.92-6.66-2.02-.2-.02-.41-.02-.61-.02-.49,0-.98.03-1.47.08.23.66.43,1.32.57,1.96.3-.03.6-.04.9-.04.38,0,.76.02,1.13.06,2.31.21,4.53,1.1,6.35,2.56.72.56,1.38,1.22,1.95,1.96.07.06.12.13.17.2.35.47.67.97.96,1.5.14.26.28.53.4.81l8.23,18.42c.56,1.25.75,2.61.57,3.94-.07.56-.21,1.11-.41,1.65-.1.27-.22.54-.37.79h0c-.76,1.46-1.96,2.6-3.48,3.27l-8.53,3.82c-.97.43-1.98.63-2.97.63-.6,0-1.2-.07-1.78-.22h-.01c-.84-.21-1.62-.56-2.34-1.05-.59.38-1.09.84-1.5,1.37.53.41,1.11.76,1.72,1.04,1.2.56,2.53.86,3.91.86s2.58-.27,3.79-.81l8.53-3.81c2.27-1.01,4.01-2.85,4.9-5.17.08-.2.14-.4.2-.6.2-.65.33-1.31.37-1.98.14-1.54-.12-3.1-.77-4.55ZM155.54,138.52c-.41-.08-.84-.12-1.26-.12-.24,0-.49.01-.74.04-.18.83-.48,1.58-.91,2.25.53-.2,1.08-.29,1.65-.29.24,0,.48.02.71.05,1.68.24,3.15,1.32,3.85,2.89l.65,1.46.97,2.16c.47-.65.9-1.32,1.27-2.03l-1.07-2.4h-.01v-.02c-.97-2.17-2.93-3.59-5.11-3.99ZM160.66,142.53h-.01v-.02c-.97-2.17-2.93-3.59-5.11-3.99-.41-.08-.84-.12-1.26-.12-.24,0-.49.01-.74.04-.18.83-.48,1.58-.91,2.25.53-.2,1.08-.29,1.65-.29.24,0,.48.02.71.05,1.68.24,3.15,1.32,3.85,2.89l.65,1.46.97,2.16c.47-.65.9-1.32,1.27-2.03l-1.07-2.4ZM160.66,142.53h-.01v-.02c-.97-2.17-2.93-3.59-5.11-3.99-.11.68-.3,1.32-.55,1.93,1.68.24,3.15,1.32,3.85,2.89l.65,1.46.97,2.16c.47-.65.9-1.32,1.27-2.03l-1.07-2.4Z"/>
          <path d="M168.95,162.72c-.22.57-.65,1.03-1.22,1.28l-8.53,3.81c-.31.14-.62.2-.94.2-.22,0-.44-.03-.65-.09-.21-.06-.41-.15-.59-.27-.19-.11-.36-.26-.5-.42-.15-.17-.27-.37-.37-.58l-5.94-13.31-.84-1.88-1.45-3.24c-.36-.82-.56-1.68-.59-2.52-.04-.69.03-1.39.2-2.05.51-1.99,1.89-3.75,3.91-4.65.68-.3,1.39-.49,2.1-.56-.18.83-.48,1.58-.91,2.25-.13.04-.25.09-.37.14-1.03.46-1.83,1.23-2.33,2.15-.39.71-.61,1.52-.62,2.34,0,.7.13,1.41.43,2.09l1.6,3.58.82,1.84,5.82,13c.06.14.19.18.28.18.04,0,.09-.01.12-.02l8.54-3.82c.08-.03.13-.09.16-.17.03-.08.03-.15-.01-.23l-6.61-14.81c.47-.65.9-1.32,1.27-2.03l7.17,16.02c.25.56.27,1.19.05,1.77Z"/>
          <path d="M154.14,171.74c-.59.38-1.09.84-1.5,1.37-1.23-.92-2.23-2.15-2.88-3.61l-7.09-15.87-.96-2.15-.18-.4c-.86-1.92-1.27-3.97-1.22-6.01.01-.68.08-1.35.2-2.02.15-.9.4-1.79.73-2.66,1.33-3.49,3.94-6.26,7.34-7.78,1.35-.61,2.77-.98,4.22-1.13.23.66.43,1.32.57,1.96-1.34.09-2.68.42-3.97,1-3.83,1.7-6.32,5.2-6.94,9.06-.1.66-.16,1.33-.15,2.01.02,1.59.35,3.22,1.04,4.76l.66,1.47.91,2.04,6.67,14.91c.57,1.28,1.47,2.31,2.55,3.05Z"/>
        </g>
        <g>
          <path class="cls-4" d="M157.36,168.53h19.8c2.41,0,4.37,1.96,4.37,4.37v3.41c0,2.17-1.76,3.93-3.93,3.93h-20.67c-2.17,0-3.93-1.76-3.93-3.93v-3.41c0-2.41,1.96-4.37,4.37-4.37Z" transform="translate(-56.6 83.43) rotate(-24.08)"/>
          <path d="M183.27,170.62c-.09-.38-.21-.76-.37-1.12l-1.4-3.11c-.97-2.18-3.08-3.62-5.44-3.75-.12-.02-.25-.02-.37-.02-.57,0-1.12.08-1.66.23-.32.08-.64.19-.94.33l-18.07,8.08c-.31.14-.61.3-.88.48-.59.38-1.09.84-1.5,1.37-1.44,1.8-1.84,4.32-.84,6.56l1.39,3.11c.28.62.65,1.18,1.12,1.66.84.9,1.95,1.52,3.18,1.76h.02c.36.07.73.1,1.1.1.84,0,1.65-.18,2.42-.52l18.87-8.44c1.37-.61,2.43-1.67,3.01-3.05h0c.05-.09.08-.17.11-.25.43-1.11.51-2.29.25-3.42ZM157.5,184.14c-.18-.05-.35-.12-.52-.2-.17-.08-.33-.17-.49-.26-.15-.1-.3-.21-.44-.33h-.01c-.14-.13-.27-.26-.4-.4-.12-.15-.23-.3-.34-.46-.1-.16-.2-.34-.28-.52l-1.39-3.12c-.26-.58-.38-1.18-.38-1.78,0-.13.01-.27.02-.4.01-.1.02-.21.04-.31v-.02c.01-.07.03-.15.05-.23.02-.09.04-.18.07-.27.04-.14.09-.28.15-.42.06-.17.15-.34.24-.5.06-.11.12-.22.2-.32.1-.16.21-.31.34-.45.02-.02.03-.03.05-.04.04-.05.07-.09.11-.12.03-.04.07-.07.11-.1.12-.13.26-.24.41-.35.01-.01.03-.02.04-.03.11-.08.21-.15.33-.21.14-.08.28-.16.42-.22l.65-.29h.01l8.38-3.75,8.38-3.75.66-.29c.58-.26,1.18-.38,1.78-.38.41,0,.82.06,1.22.18.07.01.14.04.21.07.05.01.1.03.15.05.1.04.2.08.29.13.2.09.38.2.56.32.1.06.2.14.3.22.01,0,.02.01.03.02.06.04.11.09.16.14.06.05.13.11.19.18.06.06.12.13.18.19.28.32.51.68.7,1.09l1.39,3.11c.12.26.2.53.26.8.02.11.04.22.06.34.01.11.02.22.02.34.01.23,0,.46-.03.68-.04.21-.08.42-.14.62t-.01.02s0,.01-.01.02c-.05.16-.11.31-.18.46-.07.14-.15.29-.24.43h0c-.1.15-.2.29-.3.42-.02.01-.03.02-.03.04-.11.11-.22.23-.33.33-.08.07-.16.14-.25.21-.02.01-.03.02-.05.04-.12.09-.26.18-.39.26-.12.07-.24.13-.37.19l-18.87,8.43c-.13.06-.26.11-.39.15-.27.1-.54.15-.81.18-.13.01-.26.02-.4.02-.28,0-.57-.03-.84-.09-.08-.02-.16-.04-.24-.07h-.03Z"/>
        </g>
      </g>
      <g>
        <path class="cls-4" d="M95.17,86.23c-.64-.02-1.33-.09-2.05-.2-1.03-.16-2.15-.41-3.33-.77-.76-.22-1.54-.49-2.35-.8-.04-.02-.08-.03-.12-.05-.6-.23-1.22-.48-1.85-.77-2.69-1.2-5.6-2.86-8.6-5.04-2.55-1.85-4.85-3.87-6.81-5.95-1.25,1.55-2.67,2.97-4.26,4.23,2.21,2.32,4.74,4.54,7.54,6.57,3.72,2.71,7.48,4.81,11.08,6.26.67.29,1.33.54,1.99.76,2.1.74,4.12,1.25,6.02,1.52.69.11,1.36.18,2.01.21-.16-2.21.1-4.23.73-5.97ZM75.2,51.32c-.73-.2-1.45-.36-2.16-.5-1.6-.31-3.12-.46-4.53-.46-.08,0-.17,0-.25.01-.69,0-1.35.05-1.98.13-3.19.41-5.7,1.75-7.3,3.96-2.46,3.38-2.33,8.14.36,13.49,1.77-1.49,3.2-3.3,4.29-5.35-.59-1.98-.53-3.6.2-4.61.41-.56,1.05-.98,1.89-1.25.6-.2,1.3-.32,2.08-.35.23-.02.47-.03.71-.03,1.02,0,2.17.12,3.4.36.9.17,1.82.4,2.76.68.63.19,1.26.41,1.89.64.36-1.99.56-4.05.61-6.14-.66-.21-1.32-.41-1.97-.58Z"/>
        <path class="cls-4" d="M105.35,88.15c-2.01,2.76-5.41,4.1-9.61,4.1-.43,0-.86-.01-1.3-.05-.16-2.21.1-4.23.73-5.97.2.02.4.02.59.02.29,0,.57-.01.84-.03.27-.02.52-.04.77-.08.25-.04.48-.08.7-.13.23-.06.44-.12.64-.19.8-.27,1.4-.68,1.78-1.2.68-.94.78-2.42.31-4.22-.15-.6-.37-1.24-.65-1.91-.26-.62-.57-1.27-.94-1.94-.6-1.09-1.32-2.19-2.14-3.29-.4-.53-.83-1.07-1.28-1.61-2.25-2.67-5.09-5.28-8.33-7.63-3.59-2.61-7.34-4.65-10.9-5.98.36-1.99.56-4.05.61-6.14,4.54,1.49,9.32,3.99,13.82,7.26,4.42,3.21,8.21,6.91,11.01,10.69.46.62.9,1.25,1.3,1.87,0,0,0,.01,0,.01.41.64.8,1.28,1.15,1.92.77,1.4,1.38,2.76,1.81,4.08.23.7.42,1.39.55,2.06.65,3.24.17,6.11-1.47,8.36Z"/>
        <path d="M74.67,57.4c-.12.67-.25,1.32-.41,1.97.62.19,1.25.41,1.89.66.15-.66.29-1.32.41-1.99-.63-.23-1.26-.45-1.89-.64ZM95.76,84.25c-.4,0-1.03-.03-1.87-.13-1.41-.19-3.41-.62-5.89-1.58-.59-.23-1.2-.48-1.85-.78-2.37-1.07-5.1-2.6-8.11-4.78-2.55-1.85-4.83-3.87-6.75-5.94-.39.55-.79,1.09-1.23,1.61,1.96,2.08,4.26,4.1,6.81,5.95,3,2.18,5.91,3.84,8.6,5.04.63.29,1.25.54,1.85.77.04.02.08.03.12.05.81.31,1.59.58,2.35.8,1.18.36,2.3.61,3.33.77.72.11,1.41.18,2.05.2.25-.71.57-1.38.94-1.99-.11.01-.23.01-.35.01ZM74.67,57.4c-.12.67-.25,1.32-.41,1.97.62.19,1.25.41,1.89.66.15-.66.29-1.32.41-1.99-.63-.23-1.26-.45-1.89-.64ZM95.76,84.25c-.4,0-1.03-.03-1.87-.13-1.41-.19-3.41-.62-5.89-1.58-.59-.23-1.2-.48-1.85-.78-2.37-1.07-5.1-2.6-8.11-4.78-2.55-1.85-4.83-3.87-6.75-5.94-.39.55-.79,1.09-1.23,1.61,1.96,2.08,4.26,4.1,6.81,5.95,3,2.18,5.91,3.84,8.6,5.04.63.29,1.25.54,1.85.77.04.02.08.03.12.05.81.31,1.59.58,2.35.8,1.18.36,2.3.61,3.33.77.72.11,1.41.18,2.05.2.25-.71.57-1.38.94-1.99-.11.01-.23.01-.35.01ZM74.67,57.4c-.12.67-.25,1.32-.41,1.97.62.19,1.25.41,1.89.66.15-.66.29-1.32.41-1.99-.63-.23-1.26-.45-1.89-.64ZM95.76,84.25c-.4,0-1.03-.03-1.87-.13-1.41-.19-3.41-.62-5.89-1.58-.59-.23-1.2-.48-1.85-.78-2.37-1.07-5.1-2.6-8.11-4.78-2.55-1.85-4.83-3.87-6.75-5.94-.39.55-.79,1.09-1.23,1.61,1.96,2.08,4.26,4.1,6.81,5.95,3,2.18,5.91,3.84,8.6,5.04.63.29,1.25.54,1.85.77.04.02.08.03.12.05.81.31,1.59.58,2.35.8,1.18.36,2.3.61,3.33.77.72.11,1.41.18,2.05.2.25-.71.57-1.38.94-1.99-.11.01-.23.01-.35.01ZM95.76,84.25c-.4,0-1.03-.03-1.87-.13-1.41-.19-3.41-.62-5.89-1.58-.59-.23-1.2-.48-1.85-.78-2.37-1.07-5.1-2.6-8.11-4.78-2.55-1.85-4.83-3.87-6.75-5.94-.39.55-.79,1.09-1.23,1.61,1.96,2.08,4.26,4.1,6.81,5.95,3,2.18,5.91,3.84,8.6,5.04.63.29,1.25.54,1.85.77.04.02.08.03.12.05.81.31,1.59.58,2.35.8,1.18.36,2.3.61,3.33.77.72.11,1.41.18,2.05.2.25-.71.57-1.38.94-1.99-.11.01-.23.01-.35.01ZM74.67,57.4c-.12.67-.25,1.32-.41,1.97.62.19,1.25.41,1.89.66.15-.66.29-1.32.41-1.99-.63-.23-1.26-.45-1.89-.64ZM86.15,81.76c-2.37-1.07-5.1-2.6-8.11-4.78-2.55-1.85-4.83-3.87-6.75-5.94-.39.55-.79,1.09-1.23,1.61,1.96,2.08,4.26,4.1,6.81,5.95,3,2.18,5.91,3.84,8.6,5.04.63.29,1.25.54,1.85.77.2-.64.42-1.26.68-1.87-.59-.23-1.2-.48-1.85-.78ZM86.15,81.76c-2.37-1.07-5.1-2.6-8.11-4.78-2.55-1.85-4.83-3.87-6.75-5.94-.39.55-.79,1.09-1.23,1.61,1.96,2.08,4.26,4.1,6.81,5.95,3,2.18,5.91,3.84,8.6,5.04.63.29,1.25.54,1.85.77.2-.64.42-1.26.68-1.87-.59-.23-1.2-.48-1.85-.78ZM86.15,81.76c-2.37-1.07-5.1-2.6-8.11-4.78-2.55-1.85-4.83-3.87-6.75-5.94-.39.55-.79,1.09-1.23,1.61,1.96,2.08,4.26,4.1,6.81,5.95,3,2.18,5.91,3.84,8.6,5.04.63.29,1.25.54,1.85.77.2-.64.42-1.26.68-1.87-.59-.23-1.2-.48-1.85-.78ZM86.15,81.76c-2.37-1.07-5.1-2.6-8.11-4.78-2.55-1.85-4.83-3.87-6.75-5.94-.39.55-.79,1.09-1.23,1.61,1.96,2.08,4.26,4.1,6.81,5.95,3,2.18,5.91,3.84,8.6,5.04.63.29,1.25.54,1.85.77.2-.64.42-1.26.68-1.87-.59-.23-1.2-.48-1.85-.78ZM108.92,80.18c-.1-.03-.21-.06-.31-.08-.6-.14-1.2-.25-1.79-.31.65,3.24.17,6.11-1.47,8.36-2.01,2.76-5.41,4.1-9.61,4.1-.43,0-.86-.01-1.3-.05-.65-.03-1.32-.1-2.01-.21-1.9-.27-3.92-.78-6.02-1.52-.66-.22-1.32-.47-1.99-.76-3.6-1.45-7.36-3.55-11.08-6.26-2.8-2.03-5.33-4.25-7.54-6.57-.46-.49-.91-.98-1.35-1.48-.26.2-.52.4-.78.59h0c-.28.21-.56.41-.84.59.44.5.88,1,1.35,1.49,2.32,2.48,5.02,4.84,7.98,7,4.04,2.93,8.21,5.23,12.25,6.8.69.27,1.37.51,2.05.72,2.13.71,4.2,1.2,6.18,1.44.7.1,1.39.16,2.06.19.35.02.7.03,1.04.03,5,0,8.88-1.7,11.22-4.92,1.85-2.54,2.5-5.67,1.96-9.15ZM76.87,78.6c3,2.18,5.91,3.84,8.6,5.04.63.29,1.25.54,1.85.77.2-.64.42-1.26.68-1.87-.59-.23-1.2-.48-1.85-.78-2.37-1.07-5.1-2.6-8.11-4.78-2.55-1.85-4.83-3.87-6.75-5.94-.39.55-.79,1.09-1.23,1.61,1.96,2.08,4.26,4.1,6.81,5.95ZM86.15,81.76c-2.37-1.07-5.1-2.6-8.11-4.78-2.55-1.85-4.83-3.87-6.75-5.94-.39.55-.79,1.09-1.23,1.61,1.96,2.08,4.26,4.1,6.81,5.95,3,2.18,5.91,3.84,8.6,5.04.63.29,1.25.54,1.85.77.2-.64.42-1.26.68-1.87-.59-.23-1.2-.48-1.85-.78ZM86.15,81.76c-2.37-1.07-5.1-2.6-8.11-4.78-2.55-1.85-4.83-3.87-6.75-5.94-.39.55-.79,1.09-1.23,1.61,1.96,2.08,4.26,4.1,6.81,5.95,3,2.18,5.91,3.84,8.6,5.04.63.29,1.25.54,1.85.77.2-.64.42-1.26.68-1.87-.59-.23-1.2-.48-1.85-.78ZM86.15,81.76c-2.37-1.07-5.1-2.6-8.11-4.78-2.55-1.85-4.83-3.87-6.75-5.94-.39.55-.79,1.09-1.23,1.61,1.96,2.08,4.26,4.1,6.81,5.95,3,2.18,5.91,3.84,8.6,5.04.63.29,1.25.54,1.85.77.2-.64.42-1.26.68-1.87-.59-.23-1.2-.48-1.85-.78ZM103.3,71.72s0,.01,0,.01c.19-.02.37-.03.56-.04-.19,0-.38.02-.57.03ZM74.67,57.4c-.12.67-.25,1.32-.41,1.97.62.19,1.25.41,1.89.66.15-.66.29-1.32.41-1.99-.63-.23-1.26-.45-1.89-.64ZM95.76,84.25c-.4,0-1.03-.03-1.87-.13-1.41-.19-3.41-.62-5.89-1.58-.59-.23-1.2-.48-1.85-.78-2.37-1.07-5.1-2.6-8.11-4.78-2.55-1.85-4.83-3.87-6.75-5.94-.39.55-.79,1.09-1.23,1.61,1.96,2.08,4.26,4.1,6.81,5.95,3,2.18,5.91,3.84,8.6,5.04.63.29,1.25.54,1.85.77.04.02.08.03.12.05.81.31,1.59.58,2.35.8,1.18.36,2.3.61,3.33.77.72.11,1.41.18,2.05.2.25-.71.57-1.38.94-1.99-.11.01-.23.01-.35.01ZM74.67,57.4c-.12.67-.25,1.32-.41,1.97.62.19,1.25.41,1.89.66.15-.66.29-1.32.41-1.99-.63-.23-1.26-.45-1.89-.64ZM74.67,57.4c-.12.67-.25,1.32-.41,1.97.62.19,1.25.41,1.89.66.15-.66.29-1.32.41-1.99-.63-.23-1.26-.45-1.89-.64ZM74.67,57.4c-.12.67-.25,1.32-.41,1.97.62.19,1.25.41,1.89.66.15-.66.29-1.32.41-1.99-.63-.23-1.26-.45-1.89-.64ZM77.17,51.9c.02-.69.01-1.39-.01-2.09-.68-.21-1.34-.4-2-.56-.59-.15-1.17-.28-1.74-.39-1.71-.33-3.37-.5-4.91-.5-.12,0-.24,0-.35.01-.68,0-1.34.05-1.98.13-3.84.45-6.86,2.08-8.82,4.78-2.97,4.09-2.84,9.71.34,15.89.23-.15.45-.3.67-.46.33-.24.66-.5.97-.76-2.69-5.35-2.82-10.11-.36-13.49,1.6-2.21,4.11-3.55,7.3-3.96.63-.08,1.29-.13,1.98-.13.08-.01.17-.01.25-.01,1.41,0,2.93.15,4.53.46.71.14,1.43.3,2.16.5.65.17,1.31.37,1.97.58ZM74.26,59.37c.62.19,1.25.41,1.89.66.15-.66.29-1.32.41-1.99-.63-.23-1.26-.45-1.89-.64-.12.67-.25,1.32-.41,1.97ZM74.67,57.4c-.12.67-.25,1.32-.41,1.97.62.19,1.25.41,1.89.66.15-.66.29-1.32.41-1.99-.63-.23-1.26-.45-1.89-.64ZM74.67,57.4c-.12.67-.25,1.32-.41,1.97.62.19,1.25.41,1.89.66.15-.66.29-1.32.41-1.99-.63-.23-1.26-.45-1.89-.64ZM74.67,57.4c-.12.67-.25,1.32-.41,1.97.62.19,1.25.41,1.89.66.15-.66.29-1.32.41-1.99-.63-.23-1.26-.45-1.89-.64ZM95.76,84.25c-.4,0-1.03-.03-1.87-.13-1.41-.19-3.41-.62-5.89-1.58-.26.61-.48,1.23-.68,1.87.04.02.08.03.12.05.81.31,1.59.58,2.35.8,1.18.36,2.3.61,3.33.77.72.11,1.41.18,2.05.2.25-.71.57-1.38.94-1.99-.11.01-.23.01-.35.01ZM74.67,57.4c-.12.67-.25,1.32-.41,1.97.62.19,1.25.41,1.89.66.15-.66.29-1.32.41-1.99-.63-.23-1.26-.45-1.89-.64ZM95.76,84.25c-.4,0-1.03-.03-1.87-.13-1.41-.19-3.41-.62-5.89-1.58-.59-.23-1.2-.48-1.85-.78-2.37-1.07-5.1-2.6-8.11-4.78-2.55-1.85-4.83-3.87-6.75-5.94-.39.55-.79,1.09-1.23,1.61,1.96,2.08,4.26,4.1,6.81,5.95,3,2.18,5.91,3.84,8.6,5.04.63.29,1.25.54,1.85.77.04.02.08.03.12.05.81.31,1.59.58,2.35.8,1.18.36,2.3.61,3.33.77.72.11,1.41.18,2.05.2.25-.71.57-1.38.94-1.99-.11.01-.23.01-.35.01ZM74.67,57.4c-.12.67-.25,1.32-.41,1.97.62.19,1.25.41,1.89.66.15-.66.29-1.32.41-1.99-.63-.23-1.26-.45-1.89-.64ZM95.76,84.25c-.4,0-1.03-.03-1.87-.13-1.41-.19-3.41-.62-5.89-1.58-.59-.23-1.2-.48-1.85-.78-2.37-1.07-5.1-2.6-8.11-4.78-2.55-1.85-4.83-3.87-6.75-5.94-.39.55-.79,1.09-1.23,1.61,1.96,2.08,4.26,4.1,6.81,5.95,3,2.18,5.91,3.84,8.6,5.04.63.29,1.25.54,1.85.77.04.02.08.03.12.05.81.31,1.59.58,2.35.8,1.18.36,2.3.61,3.33.77.72.11,1.41.18,2.05.2.25-.71.57-1.38.94-1.99-.11.01-.23.01-.35.01ZM74.67,57.4c-.12.67-.25,1.32-.41,1.97.62.19,1.25.41,1.89.66.15-.66.29-1.32.41-1.99-.63-.23-1.26-.45-1.89-.64ZM95.76,84.25c-.4,0-1.03-.03-1.87-.13-1.41-.19-3.41-.62-5.89-1.58-.59-.23-1.2-.48-1.85-.78-2.37-1.07-5.1-2.6-8.11-4.78-2.55-1.85-4.83-3.87-6.75-5.94-.39.55-.79,1.09-1.23,1.61,1.96,2.08,4.26,4.1,6.81,5.95,3,2.18,5.91,3.84,8.6,5.04.63.29,1.25.54,1.85.77.04.02.08.03.12.05.81.31,1.59.58,2.35.8,1.18.36,2.3.61,3.33.77.72.11,1.41.18,2.05.2.25-.71.57-1.38.94-1.99-.11.01-.23.01-.35.01ZM63.83,57.99c-.73,1.01-.79,2.63-.2,4.61.96-1.78,1.65-3.76,2.09-5.86-.84.27-1.48.69-1.89,1.25ZM74.67,57.4c-.94-.28-1.86-.51-2.76-.68-1.23-.24-2.38-.36-3.4-.36-.24,0-.48.01-.71.03-.12.69-.27,1.37-.44,2.03.33-.04.72-.06,1.15-.06.91,0,1.93.11,3.02.32.89.17,1.8.4,2.73.69.62.19,1.25.41,1.89.66.15-.66.29-1.32.41-1.99-.63-.23-1.26-.45-1.89-.64ZM95.76,84.25c-.4,0-1.03-.03-1.87-.13-1.41-.19-3.41-.62-5.89-1.58-.59-.23-1.2-.48-1.85-.78-2.37-1.07-5.1-2.6-8.11-4.78-2.55-1.85-4.83-3.87-6.75-5.94-.39.55-.79,1.09-1.23,1.61,1.96,2.08,4.26,4.1,6.81,5.95,3,2.18,5.91,3.84,8.6,5.04.63.29,1.25.54,1.85.77.04.02.08.03.12.05.81.31,1.59.58,2.35.8,1.18.36,2.3.61,3.33.77.72.11,1.41.18,2.05.2.25-.71.57-1.38.94-1.99-.11.01-.23.01-.35.01ZM63.83,57.99c-.73,1.01-.79,2.63-.2,4.61.96-1.78,1.65-3.76,2.09-5.86-.84.27-1.48.69-1.89,1.25ZM74.67,57.4c-.94-.28-1.86-.51-2.76-.68-1.23-.24-2.38-.36-3.4-.36-.24,0-.48.01-.71.03-.12.69-.27,1.37-.44,2.03.33-.04.72-.06,1.15-.06.91,0,1.93.11,3.02.32.89.17,1.8.4,2.73.69.62.19,1.25.41,1.89.66.15-.66.29-1.32.41-1.99-.63-.23-1.26-.45-1.89-.64ZM95.76,84.25c-.4,0-1.03-.03-1.87-.13-1.41-.19-3.41-.62-5.89-1.58-.59-.23-1.2-.48-1.85-.78-2.37-1.07-5.1-2.6-8.11-4.78-2.55-1.85-4.83-3.87-6.75-5.94-.39.55-.79,1.09-1.23,1.61,1.96,2.08,4.26,4.1,6.81,5.95,3,2.18,5.91,3.84,8.6,5.04.63.29,1.25.54,1.85.77.04.02.08.03.12.05.81.31,1.59.58,2.35.8,1.18.36,2.3.61,3.33.77.72.11,1.41.18,2.05.2.25-.71.57-1.38.94-1.99-.11.01-.23.01-.35.01ZM63.83,57.99c-.73,1.01-.79,2.63-.2,4.61.96-1.78,1.65-3.76,2.09-5.86-.84.27-1.48.69-1.89,1.25ZM74.67,57.4c-.94-.28-1.86-.51-2.76-.68-1.23-.24-2.38-.36-3.4-.36-.24,0-.48.01-.71.03-.12.69-.27,1.37-.44,2.03.33-.04.72-.06,1.15-.06.91,0,1.93.11,3.02.32.89.17,1.8.4,2.73.69.62.19,1.25.41,1.89.66.15-.66.29-1.32.41-1.99-.63-.23-1.26-.45-1.89-.64ZM95.76,84.25c-.4,0-1.03-.03-1.87-.13-1.41-.19-3.41-.62-5.89-1.58-.59-.23-1.2-.48-1.85-.78-2.37-1.07-5.1-2.6-8.11-4.78-2.55-1.85-4.83-3.87-6.75-5.94-.39.55-.79,1.09-1.23,1.61,1.96,2.08,4.26,4.1,6.81,5.95,3,2.18,5.91,3.84,8.6,5.04.63.29,1.25.54,1.85.77.04.02.08.03.12.05.81.31,1.59.58,2.35.8,1.18.36,2.3.61,3.33.77.72.11,1.41.18,2.05.2.25-.71.57-1.38.94-1.99-.11.01-.23.01-.35.01Z"/>
        <path d="M100.49,84.62c-.38.52-.98.93-1.78,1.2-.2.07-.41.13-.64.19-.22.05-.45.09-.7.13-.25.04-.5.06-.77.08-.27.02-.55.03-.84.03-.19,0-.39,0-.59-.02.25-.71.57-1.38.94-1.99h0c1.75-.05,2.55-.51,2.76-.79.22-.31.32-1.03.09-2.13-.11-.56-.31-1.22-.63-1.98-.23-.56-.52-1.16-.88-1.82-.61-1.1-1.35-2.22-2.19-3.33h-.01c-.4-.52-.82-1.04-1.27-1.56-2.1-2.45-4.73-4.83-7.71-7-3.35-2.43-6.83-4.35-10.13-5.6.15-.66.29-1.32.41-1.99,3.56,1.33,7.31,3.37,10.9,5.98,3.24,2.35,6.08,4.96,8.33,7.63.45.54.88,1.08,1.28,1.61.82,1.1,1.54,2.2,2.14,3.29.37.67.68,1.32.94,1.94.28.67.5,1.31.65,1.91.47,1.8.37,3.28-.31,4.22Z"/>
        <path d="M2.01,31.35c-.01.8,0,1.59.03,2.39,2.47-1.46,4.85-3.07,7.12-4.81.68-6.96,3.66-12.65,8.54-16.2,2.78-2.01,5.97-3.2,9.38-3.61-.47.76-.95,1.52-1.46,2.26-2.48.52-4.74,1.51-6.74,2.97-3.94,2.86-6.51,7.31-7.46,12.78-.17.93-.28,1.88-.35,2.86-.68.53-1.36,1.05-2.06,1.55-2.18,1.6-4.46,3.08-6.82,4.43-.63.36-1.27.72-1.91,1.06-.08-.73-.14-1.46-.19-2.18-.07-1.18-.1-2.36-.08-3.53C.21,20.3,4.61,11.12,12.41,5.45c2.46-1.79,5.19-3.15,8.12-4.06,2.92-.92,6.05-1.39,9.29-1.39v2s0,0,0,0c-4.05,0-7.97.77-11.56,2.37-.65.29-1.29.61-1.92.95-.95.52-1.87,1.1-2.75,1.75C6.31,12.36,2.2,20.98,2.01,31.35Z"/>
        <path d="M68.16,48.37c-.68,0-1.34.05-1.98.13-.54-6.87-3.26-14.32-8.16-21.06-3.6-4.96-8.01-9.02-12.73-11.85-.57-.35-1.16-.68-1.74-.99-4.44-2.36-9.11-3.66-13.61-3.66-.57,0-1.14.02-1.69.06-.9.07-1.78.2-2.63.38.51-.74.99-1.5,1.46-2.26.8-.11,1.62-.16,2.44-.17.14-.01.28-.01.42-.01,4.73,0,9.74,1.36,14.56,3.92.58.31,1.17.64,1.74.99,4.92,2.93,9.56,7.13,13.4,12.41,5.12,7.05,7.96,14.86,8.52,22.11Z"/>
        <path d="M71.29,71.04c-.39.55-.79,1.09-1.23,1.61-1.25,1.55-2.67,2.97-4.26,4.23-.46-.49-.91-.98-1.35-1.48,1.6-1.26,3.02-2.68,4.27-4.24.43-.54.83-1.09,1.21-1.66.43.52.88,1.03,1.36,1.54Z"/>
        <path class="cls-4" d="M75.16,49.25c-.59-.15-1.17-.28-1.74-.39-1.71-.33-3.37-.5-4.91-.5-.12,0-.24,0-.35.01-.56-7.25-3.4-15.06-8.52-22.11-3.84-5.28-8.48-9.48-13.4-12.41-.57-.35-1.16-.68-1.74-.99-4.82-2.56-9.83-3.92-14.56-3.92-.14,0-.28,0-.42.01-.82.01-1.64.06-2.44.17-3.41.41-6.6,1.6-9.38,3.61-4.88,3.55-7.86,9.24-8.54,16.2-2.27,1.74-4.65,3.35-7.12,4.81-.03-.8-.04-1.59-.03-2.39.19-10.37,4.3-18.99,11.58-24.28.88-.65,1.8-1.23,2.75-1.75.63-.34,1.27-.66,1.92-.95,3.59-1.6,7.51-2.37,11.56-2.37h.01c.36,0,.73.01,1.09.02.71.02,1.42.07,2.13.14.89.09,1.78.21,2.67.37.79.14,1.58.3,2.38.5,3.15.77,6.32,1.96,9.4,3.57.59.3,1.18.62,1.77.96,2.87,1.65,5.66,3.67,8.29,6,.69.63,1.38,1.27,2.06,1.94,2.02,2.01,3.93,4.23,5.68,6.65,6.22,8.56,9.49,18.15,9.86,27.1Z"/>
        <path class="cls-4" d="M74.26,59.37c-.85,3.7-2.29,7.13-4.33,10.13-.38.57-.78,1.12-1.21,1.66-1.25,1.56-2.67,2.98-4.27,4.24-.26.2-.52.4-.78.59h0c-.28.21-.56.41-.84.59-4.56,3.04-9.85,4.49-15.4,4.49-12.43,0-26.12-7.26-35.48-20.16-1.91-2.63-3.57-5.39-4.95-8.21,2.08-1.07,4.12-2.22,6.1-3.45,1.24,2.59,2.75,5.13,4.51,7.55,1.5,2.07,3.12,3.96,4.84,5.69.28.29.57.57.87.85,2.62,2.5,5.43,4.6,8.33,6.26.53.3,1.07.59,1.61.87,1.09.55,2.18,1.05,3.29,1.49.65.25,1.31.49,1.97.7.59.19,1.18.37,1.77.51,2.37.63,4.74.95,7.03.95,3.35,0,6.56-.69,9.45-2.11.49-.24.96-.5,1.42-.78.17-.1.33-.2.49-.31.29-.18.58-.38.87-.59.26-.19.52-.39.77-.59,1.68-1.36,3.1-2.97,4.24-4.78.45-.7.86-1.44,1.22-2.21.66-1.36,1.19-2.81,1.58-4.33.33-.04.72-.06,1.15-.06.91,0,1.93.11,3.02.32.89.17,1.8.4,2.73.69Z"/>
      </g>
      <g>
        <path class="cls-4" d="M117.86,123.68c-.59-2.11-.78-4.13-.53-5.94.08-.7.23-1.36.47-1.99-.78-.01-1.58-.08-2.38-.21-.75-.12-1.51-.29-2.27-.52-.43-.13-.87-.27-1.3-.44-.19.64-.34,1.3-.44,1.98-.32,1.98-.29,4.08.07,6.24.12.72.27,1.44.46,2.17,2.01.47,4.04.71,6.04.71.18,0,.37,0,.54-.01-.26-.67-.48-1.33-.66-1.99Z"/>
        <path d="M119.91,123.58c-.66-2.14-.87-4.17-.57-5.9.13-.77.35-1.47.69-2.11-.69.12-1.4.18-2.14.18h-.09c-.24.63-.39,1.29-.47,1.99-.25,1.81-.06,3.83.53,5.94.18.66.4,1.32.66,1.99h.14c.66-.02,1.31-.06,1.95-.14-.27-.66-.51-1.31-.7-1.95ZM119.91,123.58c-.66-2.14-.87-4.17-.57-5.9.13-.77.35-1.47.69-2.11-.69.12-1.4.18-2.14.18h-.09c-.24.63-.39,1.29-.47,1.99-.25,1.81-.06,3.83.53,5.94.18.66.4,1.32.66,1.99h.14c.66-.02,1.31-.06,1.95-.14-.27-.66-.51-1.31-.7-1.95ZM119.91,123.58c-.66-2.14-.87-4.17-.57-5.9.13-.77.35-1.47.69-2.11-.69.12-1.4.18-2.14.18h-.09c-.24.63-.39,1.29-.47,1.99-.25,1.81-.06,3.83.53,5.94.18.66.4,1.32.66,1.99h.14c.66-.02,1.31-.06,1.95-.14-.27-.66-.51-1.31-.7-1.95ZM111.48,122.8c-.36-2.16-.39-4.26-.07-6.24.1-.68.25-1.34.44-1.98-.63-.22-1.25-.49-1.87-.78-.2.65-.36,1.31-.48,1.99-.37,2-.42,4.13-.14,6.35.09.74.22,1.48.38,2.24h.01c.73.23,1.46.43,2.19.59-.19-.73-.34-1.45-.46-2.17ZM119.34,117.68c-.48.05-.96.07-1.45.07-.19,0-.37,0-.56-.01-.25,1.81-.06,3.83.53,5.94h.12c.56,0,1.11-.02,1.65-.07.09-.01.19-.01.28-.03-.66-2.14-.87-4.17-.57-5.9ZM119.91,123.58c-.66-2.14-.87-4.17-.57-5.9.13-.77.35-1.47.69-2.11-.69.12-1.4.18-2.14.18h-.09c-.24.63-.39,1.29-.47,1.99-.25,1.81-.06,3.83.53,5.94.18.66.4,1.32.66,1.99h.14c.66-.02,1.31-.06,1.95-.14-.27-.66-.51-1.31-.7-1.95ZM119.91,123.58c-.66-2.14-.87-4.17-.57-5.9.13-.77.35-1.47.69-2.11-.69.12-1.4.18-2.14.18h-.09c-.24.63-.39,1.29-.47,1.99-.25,1.81-.06,3.83.53,5.94.18.66.4,1.32.66,1.99h.14c.66-.02,1.31-.06,1.95-.14-.27-.66-.51-1.31-.7-1.95ZM119.91,123.58c-.66-2.14-.87-4.17-.57-5.9.13-.77.35-1.47.69-2.11-.69.12-1.4.18-2.14.18h-.09c-.24.63-.39,1.29-.47,1.99-.25,1.81-.06,3.83.53,5.94.18.66.4,1.32.66,1.99h.14c.66-.02,1.31-.06,1.95-.14-.27-.66-.51-1.31-.7-1.95ZM119.91,123.58c-.66-2.14-.87-4.17-.57-5.9.13-.77.35-1.47.69-2.11-.69.12-1.4.18-2.14.18h-.09c-.24.63-.39,1.29-.47,1.99-.25,1.81-.06,3.83.53,5.94.18.66.4,1.32.66,1.99h.14c.66-.02,1.31-.06,1.95-.14-.27-.66-.51-1.31-.7-1.95Z"/>
        <path d="M128.95,136.64c3.61,3.11,7.63,5.33,11.56,6.41-.12.67-.19,1.34-.2,2.02-4.31-1.13-8.73-3.53-12.67-6.91-4.34-3.73-7.48-8.2-9.12-12.49h.14c.66-.02,1.31-.06,1.95-.14,1.6,3.8,4.49,7.8,8.34,11.11Z"/>
        <path d="M155.54,138.52c-.11.68-.3,1.32-.55,1.93-.33.81-.77,1.55-1.34,2.21-.22.26-.46.5-.71.73-.25.22-.52.43-.8.63-.82.57-1.77,1-2.83,1.3.01-.82.23-1.63.62-2.34.88-.4,1.63-.94,2.21-1.62.18-.21.35-.44.49-.67.43-.67.73-1.42.91-2.25.32-1.48.25-3.18-.17-5-.14-.64-.34-1.3-.57-1.96-1.45-4.16-4.53-8.67-8.81-12.34-2.39-2.05-4.95-3.72-7.55-4.93-.61-.28-1.22-.54-1.83-.77-1.67-.64-3.34-1.07-4.96-1.3-.35-.05-.7-.09-1.04-.11-.44-.03-.87-.05-1.28-.05s-.76.02-1.12.05c-2.36.19-4.21,1-5.41,2.39-.3.35-.56.73-.77,1.15-.69.12-1.4.18-2.14.18h-.09c.32-.97.82-1.86,1.49-2.63,1.77-2.06,4.57-3.14,8.04-3.14h.13c.67.01,1.37.05,2.09.13.13.02.25.03.38.05,1.78.25,3.61.73,5.42,1.42.61.24,1.22.49,1.83.78,2.8,1.28,5.56,3.06,8.12,5.26,4.78,4.11,8.12,9.13,9.58,13.8.22.69.39,1.37.52,2.04.37,1.8.42,3.51.14,5.06Z"/>
        <path d="M141.71,151.48l.96,2.15c-.25-.03-.5-.06-.75-.09-6.66-.92-13.58-4.23-19.49-9.32-6.2-5.32-10.59-11.92-12.38-18.56-.11-.43-.22-.86-.3-1.28.73.23,1.46.43,2.19.59,1.59,6.08,5.63,12.45,11.79,17.74,5.49,4.72,11.86,7.82,17.98,8.77Z"/>
        <path d="M163.7,137.98c-.19,2.52-.85,4.86-1.97,6.95-.37.71-.8,1.38-1.27,2.03-.24.31-.48.62-.74.92-2.01,2.32-4.56,3.99-7.56,4.95l-.82-1.84c2.73-.84,5.07-2.33,6.86-4.42.48-.56.92-1.15,1.29-1.77.46-.73.84-1.49,1.16-2.28h0c.79-2.01,1.15-4.2,1.1-6.5-.01-.85-.08-1.71-.21-2.58-.98-6.84-5.28-14.31-12.33-20.37-3.37-2.9-7.07-5.18-10.85-6.73-.63-.27-1.27-.51-1.91-.73-1.91-.66-3.81-1.13-5.7-1.39-.07,0-.15-.02-.22-.02h0c-.67-.09-1.32-.15-1.96-.18-.42-.03-.84-.04-1.25-.04-.98,0-1.94.06-2.85.19-.56.07-1.11.17-1.64.3-1.22.27-2.37.67-3.44,1.19-.51.24-1.01.51-1.48.81-1.19.75-2.25,1.66-3.17,2.73-1.36,1.59-2.32,3.4-2.89,5.38-.63-.22-1.25-.49-1.87-.78.67-2.18,1.75-4.17,3.24-5.9,3.34-3.87,8.21-5.92,14.1-5.92.36,0,.71.01,1.08.03.65.02,1.32.07,2,.15.21.02.41.05.62.08,1.8.25,3.62.67,5.43,1.26.66.21,1.33.45,1.99.7,4.21,1.64,8.34,4.14,12.07,7.35,6.2,5.33,10.59,11.92,12.38,18.57.45,1.69.73,3.35.83,4.96.06.98.05,1.95-.02,2.9Z"/>
        <path class="cls-4" d="M141.53,151.08l.18.4c-6.12-.95-12.49-4.05-17.98-8.77-6.16-5.29-10.2-11.66-11.79-17.74,2.01.47,4.04.71,6.04.71.18,0,.37,0,.54-.01,1.64,4.29,4.78,8.76,9.12,12.49,3.94,3.38,8.36,5.78,12.67,6.91-.05,2.04.36,4.09,1.22,6.01Z"/>
        <path class="cls-4" d="M161.75,136.02c.05,2.3-.31,4.49-1.1,6.49h0c-.32.8-.7,1.56-1.16,2.29-.37.62-.81,1.21-1.29,1.77-1.79,2.09-4.13,3.58-6.86,4.42l-1.6-3.58c-.3-.68-.44-1.39-.43-2.09,1.06-.3,2.01-.73,2.83-1.3.28-.19.55-.41.8-.63.25-.23.49-.47.71-.73.57-.66,1.01-1.4,1.34-2.21.25-.61.44-1.25.55-1.93.28-1.55.23-3.26-.14-5.06-.13-.67-.3-1.35-.52-2.04-1.46-4.67-4.8-9.69-9.58-13.8-2.56-2.2-5.32-3.98-8.12-5.26-.61-.29-1.22-.54-1.83-.78-1.81-.69-3.64-1.17-5.42-1.42-.13-.02-.25-.03-.38-.05-.72-.08-1.42-.12-2.09-.13h-.13c-3.47,0-6.27,1.08-8.04,3.14-.67.77-1.17,1.66-1.49,2.63-.78-.01-1.58-.08-2.38-.21-.75-.12-1.51-.29-2.27-.52-.43-.13-.87-.27-1.3-.44.57-1.98,1.53-3.79,2.89-5.38.92-1.07,1.98-1.98,3.17-2.73.47-.29.97-.57,1.48-.81,1.07-.52,2.22-.92,3.44-1.19.53-.13,1.08-.23,1.64-.3.91-.13,1.87-.19,2.85-.19.41,0,.83.01,1.25.04.64.03,1.29.09,1.96.17h0c.07.01.15.02.22.03,1.89.26,3.79.73,5.7,1.39.64.22,1.28.46,1.91.73,3.78,1.55,7.48,3.83,10.85,6.73,7.05,6.06,11.35,13.53,12.33,20.37.13.87.2,1.73.21,2.58Z"/>
      </g>
      <g>
        <path class="cls-4" d="M136.3,101.53c-.07-.72-.18-1.46-.32-2.19-.42-2.18-1.09-4.39-2.03-6.57-.3-.72-.64-1.44-1.01-2.15-1.28-2.52-2.92-4.96-4.9-7.26-4.89-5.66-11.17-9.59-17.66-11.06-.47-.11-.93-.2-1.39-.28-.28-.05-.57-.1-.85-.13-.84-.11-1.67-.18-2.49-.2.19.33.38.66.56.99,1.02,1.84,1.76,3.63,2.24,5.35.2.03.4.07.6.12,5.26,1.19,10.39,4.43,14.45,9.14.99,1.14,1.87,2.32,2.64,3.53.41.61.78,1.23,1.12,1.85,1.06,1.91,1.86,3.87,2.41,5.81.19.67.35,1.33.47,1.99.11.57.2,1.13.26,1.69.21.02.41.05.62.08,1.8.25,3.62.67,5.43,1.26-.02-.65-.07-1.31-.15-1.97ZM129.65,112.14c-.35-.05-.7-.09-1.04-.11-.62,1.05-1.4,2-2.34,2.81-.43.37-.88.7-1.35,1-.15.1-.31.19-.46.29-.25.13-.49.26-.75.38-.26.11-.51.23-.77.33-.1.04-.2.08-.31.11-1.04.38-2.14.62-3.29.73-.48.05-.96.07-1.45.07-.19,0-.37,0-.56-.01-.35-.01-.71-.04-1.07-.07-.77-.07-1.54-.2-2.32-.38-.84-.18-1.69-.43-2.53-.73-.64-.22-1.28-.48-1.91-.77-.78-.34-1.55-.74-2.31-1.18-.4-.23-.79-.47-1.18-.72-1.83-1.18-3.59-2.61-5.22-4.29-.25-.24-.48-.49-.71-.75-.23-.24-.45-.49-.67-.74-3.68-4.26-6.05-9.2-6.77-14.08-.08-.51-.14-1.03-.18-1.54-.01-.17-.02-.33-.03-.5-.12-2.16.12-4.17.69-5.96.21-.67.46-1.31.77-1.91.68-1.38,1.61-2.58,2.75-3.57.53-.46,1.1-.86,1.7-1.21-.23-.56-.52-1.16-.88-1.82-.61-1.1-1.35-2.22-2.19-3.33h-.01c-.9.52-1.75,1.13-2.54,1.82-2.07,1.79-3.66,4-4.72,6.53-.26.61-.48,1.23-.68,1.87-.57,1.88-.88,3.92-.91,6.06-.02.69,0,1.4.05,2.12,0,.12.01.24.02.36.51,6.64,3.49,13.41,8.39,19.08,4.19,4.86,9.3,8.28,14.49,10.11.71.25,1.41.47,2.12.66,1.94.52,3.88.81,5.78.87.2.01.4.01.6.01h.12c.56,0,1.11-.02,1.65-.07.09-.01.19-.01.28-.03,2.14-.17,4.19-.69,6.1-1.54.62-.28,1.22-.59,1.81-.95.83-.49,1.62-1.06,2.37-1.71,1.91-1.66,3.39-3.67,4.42-5.94-1.67-.64-3.34-1.07-4.96-1.3Z"/>
        <path d="M130.14,100.47c-.12-.66-.28-1.32-.47-1.99-.55-1.94-1.35-3.9-2.41-5.81-.34-.62-.71-1.24-1.12-1.85-.77-1.21-1.65-2.39-2.64-3.53-4.06-4.71-9.19-7.95-14.45-9.14-.2-.05-.4-.09-.6-.12.21.73.36,1.45.47,2.15,4.73,1.14,9.36,4.12,13.07,8.41.76.88,1.46,1.79,2.09,2.71.4.58.78,1.18,1.12,1.77h.01c1.08,1.85,1.91,3.74,2.47,5.61.2.65.36,1.3.49,1.94h0c.1.47.17.93.23,1.39.65.02,1.32.07,2,.15-.06-.56-.15-1.12-.26-1.69ZM127.33,111.98c-.39,0-.76.02-1.12.05-.37.47-.79.9-1.25,1.3-.43.37-.89.7-1.38.98-.57.34-1.18.61-1.82.83-.55.19-1.13.33-1.73.43-.69.12-1.4.18-2.14.18h-.09c-.78-.01-1.58-.08-2.38-.21-.75-.12-1.51-.29-2.27-.52-.43-.13-.87-.27-1.3-.44-.63-.22-1.25-.49-1.87-.78-3.27-1.55-6.43-3.95-9.06-7-3.31-3.82-5.47-8.23-6.22-12.58-.12-.63-.2-1.26-.25-1.89,0-.04-.01-.09-.01-.13-.16-2.21.1-4.23.73-5.97.25-.71.57-1.38.94-1.99h0c.5-.82,1.11-1.55,1.83-2.17.32-.28.66-.53,1.02-.75-.11-.56-.31-1.22-.63-1.98-.6.35-1.17.75-1.7,1.21-1.14.99-2.07,2.19-2.75,3.57-.31.6-.56,1.24-.77,1.91-.57,1.79-.81,3.8-.69,5.96.01.17.02.33.03.5.04.51.1,1.03.18,1.54.72,4.88,3.09,9.82,6.77,14.08.22.25.44.5.67.74.23.26.46.51.71.75,1.63,1.68,3.39,3.11,5.22,4.29.39.25.78.49,1.18.72.76.44,1.53.84,2.31,1.18.63.29,1.27.55,1.91.77.84.3,1.69.55,2.53.73.78.18,1.55.31,2.32.38.36.03.72.06,1.07.07.19.01.37.01.56.01.49,0,.97-.02,1.45-.07,1.15-.11,2.25-.35,3.29-.73.11-.03.21-.07.31-.11.26-.1.51-.22.77-.33.25-.12.5-.25.74-.39.16-.09.32-.18.47-.28.47-.3.92-.63,1.35-1,.94-.81,1.72-1.76,2.34-2.81-.44-.03-.87-.05-1.28-.05ZM130.14,100.47c-.12-.66-.28-1.32-.47-1.99-.55-1.94-1.35-3.9-2.41-5.81-.34-.62-.71-1.24-1.12-1.85-.77-1.21-1.65-2.39-2.64-3.53-4.06-4.71-9.19-7.95-14.45-9.14-.2-.05-.4-.09-.6-.12.21.73.36,1.45.47,2.15,4.73,1.14,9.36,4.12,13.07,8.41.76.88,1.46,1.79,2.09,2.71.4.58.78,1.18,1.12,1.77h.01c1.08,1.85,1.91,3.74,2.47,5.61.2.65.36,1.3.49,1.94h0c.1.47.17.93.23,1.39.65.02,1.32.07,2,.15-.06-.56-.15-1.12-.26-1.69ZM127.33,111.98c-.39,0-.76.02-1.12.05-.37.47-.79.9-1.25,1.3-.43.37-.89.7-1.38.98-.57.34-1.18.61-1.82.83-.55.19-1.13.33-1.73.43-.69.12-1.4.18-2.14.18h-.09c-.78-.01-1.58-.08-2.38-.21-.75-.12-1.51-.29-2.27-.52-.43-.13-.87-.27-1.3-.44-.63-.22-1.25-.49-1.87-.78-3.27-1.55-6.43-3.95-9.06-7-3.31-3.82-5.47-8.23-6.22-12.58-.12-.63-.2-1.26-.25-1.89,0-.04-.01-.09-.01-.13-.16-2.21.1-4.23.73-5.97.25-.71.57-1.38.94-1.99h0c.5-.82,1.11-1.55,1.83-2.17.32-.28.66-.53,1.02-.75-.11-.56-.31-1.22-.63-1.98-.6.35-1.17.75-1.7,1.21-1.14.99-2.07,2.19-2.75,3.57-.31.6-.56,1.24-.77,1.91-.57,1.79-.81,3.8-.69,5.96.01.17.02.33.03.5.04.51.1,1.03.18,1.54.72,4.88,3.09,9.82,6.77,14.08.22.25.44.5.67.74.23.26.46.51.71.75,1.63,1.68,3.39,3.11,5.22,4.29.39.25.78.49,1.18.72.76.44,1.53.84,2.31,1.18.63.29,1.27.55,1.91.77.84.3,1.69.55,2.53.73.78.18,1.55.31,2.32.38.36.03.72.06,1.07.07.19.01.37.01.56.01.49,0,.97-.02,1.45-.07,1.15-.11,2.25-.35,3.29-.73.11-.03.21-.07.31-.11.26-.1.51-.22.77-.33.25-.12.5-.25.74-.39.16-.09.32-.18.47-.28.47-.3.92-.63,1.35-1,.94-.81,1.72-1.76,2.34-2.81-.44-.03-.87-.05-1.28-.05ZM130.14,100.47c-.12-.66-.28-1.32-.47-1.99-.55-1.94-1.35-3.9-2.41-5.81-.34-.62-.71-1.24-1.12-1.85-.77-1.21-1.65-2.39-2.64-3.53-4.06-4.71-9.19-7.95-14.45-9.14-.2-.05-.4-.09-.6-.12.21.73.36,1.45.47,2.15,4.73,1.14,9.36,4.12,13.07,8.41.76.88,1.46,1.79,2.09,2.71.4.58.78,1.18,1.12,1.77h.01c1.08,1.85,1.91,3.74,2.47,5.61.2.65.36,1.3.49,1.94h0c.1.47.17.93.23,1.39.65.02,1.32.07,2,.15-.06-.56-.15-1.12-.26-1.69ZM127.33,111.98c-.39,0-.76.02-1.12.05-.37.47-.79.9-1.25,1.3-.43.37-.89.7-1.38.98-.57.34-1.18.61-1.82.83-.55.19-1.13.33-1.73.43-.69.12-1.4.18-2.14.18h-.09c-.78-.01-1.58-.08-2.38-.21-.75-.12-1.51-.29-2.27-.52-.43-.13-.87-.27-1.3-.44-.63-.22-1.25-.49-1.87-.78-3.27-1.55-6.43-3.95-9.06-7-3.31-3.82-5.47-8.23-6.22-12.58-.12-.63-.2-1.26-.25-1.89,0-.04-.01-.09-.01-.13-.16-2.21.1-4.23.73-5.97.25-.71.57-1.38.94-1.99h0c.5-.82,1.11-1.55,1.83-2.17.32-.28.66-.53,1.02-.75-.11-.56-.31-1.22-.63-1.98-.6.35-1.17.75-1.7,1.21-1.14.99-2.07,2.19-2.75,3.57-.31.6-.56,1.24-.77,1.91-.57,1.79-.81,3.8-.69,5.96.01.17.02.33.03.5.04.51.1,1.03.18,1.54.72,4.88,3.09,9.82,6.77,14.08.22.25.44.5.67.74.23.26.46.51.71.75,1.63,1.68,3.39,3.11,5.22,4.29.39.25.78.49,1.18.72.76.44,1.53.84,2.31,1.18.63.29,1.27.55,1.91.77.84.3,1.69.55,2.53.73.78.18,1.55.31,2.32.38.36.03.72.06,1.07.07.19.01.37.01.56.01.49,0,.97-.02,1.45-.07,1.15-.11,2.25-.35,3.29-.73.11-.03.21-.07.31-.11.26-.1.51-.22.77-.33.25-.12.5-.25.74-.39.16-.09.32-.18.47-.28.47-.3.92-.63,1.35-1,.94-.81,1.72-1.76,2.34-2.81-.44-.03-.87-.05-1.28-.05ZM98.34,79.34c-.6.35-1.17.75-1.7,1.21-1.14.99-2.07,2.19-2.75,3.57.84.1,1.47.13,1.87.13.12,0,.24,0,.35-.01h0c.5-.82,1.11-1.55,1.83-2.17.32-.28.66-.53,1.02-.75-.11-.56-.31-1.22-.63-1.98ZM130.14,100.47c-.12-.66-.28-1.32-.47-1.99-.55-1.94-1.35-3.9-2.41-5.81-.34-.62-.71-1.24-1.12-1.85-.77-1.21-1.65-2.39-2.64-3.53-4.06-4.71-9.19-7.95-14.45-9.14-.2-.05-.4-.09-.6-.12.21.73.36,1.45.47,2.15,4.73,1.14,9.36,4.12,13.07,8.41.76.88,1.46,1.79,2.09,2.71.4.58.78,1.18,1.12,1.77h.01c1.08,1.85,1.91,3.74,2.47,5.61.2.65.36,1.3.49,1.94h0c.1.47.17.93.23,1.39.65.02,1.32.07,2,.15-.06-.56-.15-1.12-.26-1.69ZM127.33,111.98c-.39,0-.76.02-1.12.05-.37.47-.79.9-1.25,1.3-.43.37-.89.7-1.38.98-.57.34-1.18.61-1.82.83-.55.19-1.13.33-1.73.43-.69.12-1.4.18-2.14.18h-.09c-.78-.01-1.58-.08-2.38-.21-.75-.12-1.51-.29-2.27-.52-.43-.13-.87-.27-1.3-.44-.63-.22-1.25-.49-1.87-.78-3.27-1.55-6.43-3.95-9.06-7-3.31-3.82-5.47-8.23-6.22-12.58-.67-.03-1.36-.09-2.06-.19.72,4.88,3.09,9.82,6.77,14.08.22.25.44.5.67.74.23.26.46.51.71.75,1.63,1.68,3.39,3.11,5.22,4.29.39.25.78.49,1.18.72.76.44,1.53.84,2.31,1.18.63.29,1.27.55,1.91.77.84.3,1.69.55,2.53.73.78.18,1.55.31,2.32.38.36.03.72.06,1.07.07.19.01.37.01.56.01.49,0,.97-.02,1.45-.07,1.15-.11,2.25-.35,3.29-.73.11-.03.21-.07.31-.11.26-.1.51-.22.77-.33.25-.12.5-.25.74-.39.16-.09.32-.18.47-.28.47-.3.92-.63,1.35-1,.94-.81,1.72-1.76,2.34-2.81-.44-.03-.87-.05-1.28-.05ZM130.14,100.47c-.12-.66-.28-1.32-.47-1.99-.55-1.94-1.35-3.9-2.41-5.81-.34-.62-.71-1.24-1.12-1.85-.77-1.21-1.65-2.39-2.64-3.53-4.06-4.71-9.19-7.95-14.45-9.14-.2-.05-.4-.09-.6-.12.21.73.36,1.45.47,2.15,4.73,1.14,9.36,4.12,13.07,8.41.76.88,1.46,1.79,2.09,2.71.4.58.78,1.18,1.12,1.77h.01c1.08,1.85,1.91,3.74,2.47,5.61.2.65.36,1.3.49,1.94h0c.1.47.17.93.23,1.39.65.02,1.32.07,2,.15-.06-.56-.15-1.12-.26-1.69ZM127.33,111.98c-.39,0-.76.02-1.12.05-.37.47-.79.9-1.25,1.3-.43.37-.89.7-1.38.98-.57.34-1.18.61-1.82.83-.55.19-1.13.33-1.73.43-.69.12-1.4.18-2.14.18h-.09c-.78-.01-1.58-.08-2.38-.21-.75-.12-1.51-.29-2.27-.52-.43-.13-.87-.27-1.3-.44-.63-.22-1.25-.49-1.87-.78-3.27-1.55-6.43-3.95-9.06-7-3.31-3.82-5.47-8.23-6.22-12.58-.12-.63-.2-1.26-.25-1.89,0-.04-.01-.09-.01-.13-.65-.03-1.32-.1-2.01-.21.01.17.02.33.03.5.04.51.1,1.03.18,1.54.72,4.88,3.09,9.82,6.77,14.08.22.25.44.5.67.74.23.26.46.51.71.75,1.63,1.68,3.39,3.11,5.22,4.29.39.25.78.49,1.18.72.76.44,1.53.84,2.31,1.18.63.29,1.27.55,1.91.77.84.3,1.69.55,2.53.73.78.18,1.55.31,2.32.38.36.03.72.06,1.07.07.19.01.37.01.56.01.49,0,.97-.02,1.45-.07,1.15-.11,2.25-.35,3.29-.73.11-.03.21-.07.31-.11.26-.1.51-.22.77-.33.25-.12.5-.25.74-.39.16-.09.32-.18.47-.28.47-.3.92-.63,1.35-1,.94-.81,1.72-1.76,2.34-2.81-.44-.03-.87-.05-1.28-.05ZM138.36,102.3c-.05-.74-.13-1.49-.26-2.25-.33-2.26-.94-4.56-1.82-6.83-.28-.75-.6-1.5-.95-2.25-1.43-3.1-3.36-6.12-5.77-8.91l-.05-.06c-2.58-2.98-5.54-5.5-8.7-7.48-3.16-1.97-6.54-3.4-9.99-4.17-1.99-.46-3.97-.69-5.88-.69-.2,0-.4,0-.6.01.46.67.89,1.33,1.29,2,.82.02,1.66.1,2.51.22.28.03.57.08.85.13.46.08.92.17,1.39.28,6.49,1.47,12.77,5.4,17.66,11.06,1.98,2.3,3.62,4.74,4.9,7.26.37.71.71,1.43,1.01,2.15.94,2.18,1.61,4.39,2.03,6.57.14.73.25,1.47.32,2.19.08.66.13,1.32.15,1.97.66.21,1.33.45,1.99.7-.01-.63-.03-1.27-.08-1.9ZM134.61,113.44c-1.03,2.27-2.51,4.28-4.42,5.94-.75.65-1.54,1.22-2.37,1.71-.59.36-1.19.67-1.81.95-1.91.85-3.96,1.37-6.1,1.54-.09.02-.19.02-.28.03-.54.05-1.09.07-1.65.07h-.12c-.2,0-.4,0-.6-.01-1.9-.06-3.84-.35-5.78-.87-.71-.19-1.41-.41-2.12-.66-5.19-1.83-10.3-5.25-14.49-10.11-4.9-5.67-7.88-12.44-8.39-19.08-.01-.12-.02-.24-.02-.36-.05-.72-.07-1.43-.05-2.12.03-2.14.34-4.18.91-6.06.2-.64.42-1.26.68-1.87,1.06-2.53,2.65-4.74,4.72-6.53.79-.69,1.64-1.3,2.54-1.82-.4-.52-.82-1.04-1.27-1.56-.91.54-1.77,1.17-2.58,1.87-2.31,1.99-4.08,4.45-5.26,7.26-.26.61-.49,1.24-.68,1.88-.61,1.9-.96,3.93-1.05,6.07-.03.71-.03,1.43-.01,2.16.01.41.04.82.07,1.23.55,7.06,3.7,14.25,8.87,20.24,4.59,5.31,10.38,9.15,16.39,11.04h.01c.73.23,1.46.43,2.19.59,2.01.47,4.04.71,6.04.71.18,0,.37,0,.54-.01h.14c.66-.02,1.31-.06,1.95-.14.15,0,.29-.03.43-.05,2.25-.29,4.37-.92,6.32-1.86.62-.3,1.22-.63,1.8-1.01.82-.5,1.6-1.07,2.34-1.71,2.15-1.87,3.8-4.14,4.94-6.69-.61-.28-1.22-.54-1.83-.77ZM130.14,100.47c-.12-.66-.28-1.32-.47-1.99-.55-1.94-1.35-3.9-2.41-5.81-.34-.62-.71-1.24-1.12-1.85-.77-1.21-1.65-2.39-2.64-3.53-4.06-4.71-9.19-7.95-14.45-9.14-.2-.05-.4-.09-.6-.12.21.73.36,1.45.47,2.15,4.73,1.14,9.36,4.12,13.07,8.41.76.88,1.46,1.79,2.09,2.71.4.58.78,1.18,1.12,1.77h.01c1.08,1.85,1.91,3.74,2.47,5.61.2.65.36,1.3.49,1.94h0c.1.47.17.93.23,1.39.65.02,1.32.07,2,.15-.06-.56-.15-1.12-.26-1.69ZM127.33,111.98c-.39,0-.76.02-1.12.05-.37.47-.79.9-1.25,1.3-.43.37-.89.7-1.38.98-.57.34-1.18.61-1.82.83-.55.19-1.13.33-1.73.43-.69.12-1.4.18-2.14.18h-.09c-.78-.01-1.58-.08-2.38-.21-.75-.12-1.51-.29-2.27-.52-.43-.13-.87-.27-1.3-.44-.63-.22-1.25-.49-1.87-.78-3.27-1.55-6.43-3.95-9.06-7-3.31-3.82-5.47-8.23-6.22-12.58-.67-.03-1.36-.09-2.06-.19.72,4.88,3.09,9.82,6.77,14.08.22.25.44.5.67.74.23.26.46.51.71.75,1.63,1.68,3.39,3.11,5.22,4.29.39.25.78.49,1.18.72.76.44,1.53.84,2.31,1.18.63.29,1.27.55,1.91.77.84.3,1.69.55,2.53.73.78.18,1.55.31,2.32.38.36.03.72.06,1.07.07.19.01.37.01.56.01.49,0,.97-.02,1.45-.07,1.15-.11,2.25-.35,3.29-.73.11-.03.21-.07.31-.11.26-.1.51-.22.77-.33.25-.12.5-.25.74-.39.16-.09.32-.18.47-.28.47-.3.92-.63,1.35-1,.94-.81,1.72-1.76,2.34-2.81-.44-.03-.87-.05-1.28-.05ZM130.14,100.47c-.12-.66-.28-1.32-.47-1.99-.55-1.94-1.35-3.9-2.41-5.81-.34-.62-.71-1.24-1.12-1.85-.77-1.21-1.65-2.39-2.64-3.53-4.06-4.71-9.19-7.95-14.45-9.14-.2-.05-.4-.09-.6-.12.21.73.36,1.45.47,2.15,4.73,1.14,9.36,4.12,13.07,8.41.76.88,1.46,1.79,2.09,2.71.4.58.78,1.18,1.12,1.77h.01c1.08,1.85,1.91,3.74,2.47,5.61.2.65.36,1.3.49,1.94h0c.1.47.17.93.23,1.39.65.02,1.32.07,2,.15-.06-.56-.15-1.12-.26-1.69ZM127.33,111.98c-.39,0-.76.02-1.12.05-.37.47-.79.9-1.25,1.3-.43.37-.89.7-1.38.98-.57.34-1.18.61-1.82.83-.55.19-1.13.33-1.73.43-.69.12-1.4.18-2.14.18h-.09c-.78-.01-1.58-.08-2.38-.21-.75-.12-1.51-.29-2.27-.52-.43-.13-.87-.27-1.3-.44-.63-.22-1.25-.49-1.87-.78-3.27-1.55-6.43-3.95-9.06-7-3.31-3.82-5.47-8.23-6.22-12.58-.67-.03-1.36-.09-2.06-.19.72,4.88,3.09,9.82,6.77,14.08.22.25.44.5.67.74.23.26.46.51.71.75,1.63,1.68,3.39,3.11,5.22,4.29.39.25.78.49,1.18.72.76.44,1.53.84,2.31,1.18.63.29,1.27.55,1.91.77.84.3,1.69.55,2.53.73.78.18,1.55.31,2.32.38.36.03.72.06,1.07.07.19.01.37.01.56.01.49,0,.97-.02,1.45-.07,1.15-.11,2.25-.35,3.29-.73.11-.03.21-.07.31-.11.26-.1.51-.22.77-.33.25-.12.5-.25.74-.39.16-.09.32-.18.47-.28.47-.3.92-.63,1.35-1,.94-.81,1.72-1.76,2.34-2.81-.44-.03-.87-.05-1.28-.05ZM98.34,79.34c-.6.35-1.17.75-1.7,1.21-1.14.99-2.07,2.19-2.75,3.57.84.1,1.47.13,1.87.13.12,0,.24,0,.35-.01h0c.5-.82,1.11-1.55,1.83-2.17.32-.28.66-.53,1.02-.75-.11-.56-.31-1.22-.63-1.98Z"/>
        <path d="M108.92,80.18c-.1-.03-.21-.06-.31-.08-.6-.14-1.2-.25-1.79-.31-.13-.67-.32-1.36-.55-2.06-.43-1.32-1.04-2.68-1.81-4.08-.35-.64-.74-1.28-1.15-1.92.19-.02.37-.03.56-.04-.19,0-.38.02-.57.03-.4-.62-.84-1.25-1.3-1.87-2.8-3.78-6.59-7.48-11.01-10.69-4.5-3.27-9.28-5.77-13.82-7.26.02-.69.01-1.39-.01-2.09,4.92,1.52,10.13,4.19,15,7.73,4.97,3.61,9.2,7.83,12.18,12.13.46.67.89,1.33,1.29,2l.02.02c.19.33.38.66.56.99,1.02,1.84,1.76,3.63,2.24,5.35.21.73.36,1.45.47,2.15Z"/>
      </g>
    </g>
  </g>
</svg>