<?xml version="1.0" encoding="UTF-8"?>
<svg id="Calque_2" data-name="Calque 2" xmlns="http://www.w3.org/2000/svg" viewBox="0 0 239.44 432.68">
  <defs>
    <style>
      .cls-1 {
        fill: #fff;
      }

      .cls-2 {
        stroke: #000;
        stroke-miterlimit: 10;
        stroke-width: 2px;
      }

      .cls-2, .cls-3 {
        fill: #f3e8cc;
      }

      .cls-4 {
        fill: #ffca26;
      }
    </style>
  </defs>
  <g id="Calque_1-2" data-name="Calque 1">
    <g>
      <g>
        <path class="cls-1" d="M58.46,171.83l1.83,3.81c.81,1.68,1.22,3.49,1.22,5.37,0,2-.49,3.99-1.41,5.75l-1.96,3.73.33-18.66Z"/>
        <path d="M59.39,176.07c.72,1.5,1.12,3.17,1.12,4.94,0,1.91-.47,3.71-1.3,5.29l.18-10.23M57.54,167.59l-.15,8.44-.18,10.23-.15,8.43,3.92-7.46c1-1.9,1.53-4.06,1.53-6.22,0-2.03-.44-3.98-1.32-5.81l-3.65-7.61h0Z"/>
      </g>
      <g>
        <path class="cls-1" d="M21.56,94.85l1.51-1.31c.73.73,1.35,1.56,1.84,2.45l-1.68,1.08-1.67-2.22Z"/>
        <path d="M22.36,94.25c.66.66,1.22,1.4,1.67,2.22l-1.67-2.22M23.77,92.84l-3.01,2.62,1.67,2.22,3.35-2.16c-.54-.97-1.21-1.87-2.01-2.67h0Z"/>
      </g>
      <g>
        <path class="cls-1" d="M35.12,112.82l1.54-1.28c.47.51.9,1.08,1.27,1.69l-1.65,1.13-1.16-1.54Z"/>
        <path d="M35.92,112.22c.43.47.82.99,1.16,1.54l-1.16-1.54M37.39,110.87l-3.07,2.55,1.16,1.54,3.3-2.26c-.41-.66-.88-1.28-1.39-1.84h0Z"/>
      </g>
      <g>
        <path class="cls-4" d="M59.1,164.35c-3.04-1.83-6.52-2.8-10.05-2.8-3.17,0-6.18.74-8.96,2.2l-1.49.78.07-3.97c.11-6.19-1.89-12.32-5.61-17.25l-14.12-18.71-.03-.05c-1.11-1.9-1.62-4.06-1.48-6.26.31-5.08,4.15-9.38,9.14-10.21.63-.11,1.27-.16,1.91-.16,3.03,0,5.94,1.25,8,3.44l.05.02.18.22,1.37,1.82h0s12.54,16.63,12.54,16.63c6.68,8.84,10.24,19.81,10.04,30.9l-.07,4.28-1.49-.9Z"/>
        <path d="M28.48,108.92c2.93,0,5.58,1.26,7.4,3.26.02.01.03.03.04.04l1.16,1.54h0s12.74,16.9,12.74,16.9c6.58,8.71,10.04,19.37,9.84,30.28l-.04,2.55c-3.09-1.86-6.7-2.94-10.57-2.94-3.4,0-6.6.83-9.42,2.31l.04-2.28c.11-6.41-1.95-12.76-5.81-17.87l-12.65-16.76-1.43-1.9c-.97-1.66-1.48-3.6-1.35-5.69.28-4.6,3.77-8.53,8.31-9.29.59-.1,1.17-.15,1.74-.15M28.48,106.92h0c-.69,0-1.39.06-2.07.18-5.44.91-9.63,5.6-9.97,11.14-.15,2.39.41,4.75,1.62,6.82l.06.1.07.09,1.43,1.9,12.65,16.76c3.59,4.75,5.51,10.66,5.41,16.63l-.04,2.28-.06,3.37,2.99-1.57c2.63-1.38,5.49-2.08,8.49-2.08,3.36,0,6.65.92,9.54,2.65l2.98,1.79.05-3.47.04-2.55c.21-11.3-3.43-22.5-10.24-31.52l-12.36-16.39-.37-.51-1.16-1.54-.08-.11-.05-.05s-.07-.08-.11-.11c-2.26-2.43-5.46-3.83-8.8-3.83h0Z"/>
      </g>
    </g>
    <path class="cls-2" d="M109.19,227.92h21.05c6.77,0,12.26,5.5,12.26,12.26v9.45h-45.58v-9.45c0-6.77,5.5-12.26,12.26-12.26Z"/>
    <g>
      <path class="cls-3" d="M119.72,431.68c-50.05,0-90.77-40.72-90.77-90.77s40.72-90.77,90.77-90.77,90.77,40.72,90.77,90.77-40.72,90.77-90.77,90.77ZM119.72,267.13c-40.68,0-73.77,33.1-73.77,73.77s33.1,73.77,73.77,73.77,73.77-33.1,73.77-73.77-33.1-73.77-73.77-73.77Z"/>
      <path d="M119.72,251.13c49.5,0,89.77,40.27,89.77,89.77s-40.27,89.77-89.77,89.77-89.77-40.27-89.77-89.77,40.27-89.77,89.77-89.77M119.72,415.68c41.23,0,74.77-33.54,74.77-74.77s-33.54-74.77-74.77-74.77-74.77,33.54-74.77,74.77,33.54,74.77,74.77,74.77M119.72,249.13c-50.6,0-91.77,41.17-91.77,91.77s41.17,91.77,91.77,91.77,91.77-41.17,91.77-91.77-41.17-91.77-91.77-91.77h0ZM119.72,413.68c-40.13,0-72.77-32.65-72.77-72.77s32.65-72.77,72.77-72.77,72.77,32.65,72.77,72.77-32.65,72.77-72.77,72.77h0Z"/>
    </g>
    <path d="M19.78,124.05l1.43,1.9c-.55-.57-1.03-1.21-1.43-1.9Z"/>
    <path d="M37.08,113.76l-1.16-1.54c.43.47.82.99,1.16,1.54Z"/>
    <path d="M6.75,106.77l.95,1.26c-.35-.39-.67-.81-.95-1.26Z"/>
    <path d="M24.03,96.47l-1.67-2.22c.66.66,1.22,1.4,1.67,2.22Z"/>
    <g>
      <rect class="cls-3" x="103.9" y="197.28" width="31.64" height="33.66"/>
      <path d="M134.54,198.28v31.66h-29.64v-31.66h29.64M136.54,196.28h-33.64v35.66h33.64v-35.66h0Z"/>
    </g>
    <g>
      <path class="cls-3" d="M109.19,306.44c-7.31,0-13.26-5.95-13.26-13.26v-10.45h47.58v10.45c0,7.31-5.95,13.26-13.26,13.26h-21.05Z"/>
      <path d="M142.51,283.73v9.45c0,6.77-5.49,12.26-12.26,12.26h-21.05c-6.77,0-12.26-5.49-12.26-12.26v-9.45h45.58M144.51,281.73h-49.58v11.45c0,7.86,6.4,14.26,14.26,14.26h21.05c7.86,0,14.26-6.4,14.26-14.26v-11.45h0Z"/>
    </g>
    <g>
      <path class="cls-3" d="M83.36,284.73c-3.87,0-7.02-3.15-7.02-7.02v-10.45c0-10.27,8.35-18.62,18.62-18.62h49.52c10.27,0,18.62,8.35,18.62,18.62v10.45c0,3.87-3.15,7.02-7.02,7.02h-72.72Z"/>
      <path d="M144.48,249.63c9.73,0,17.62,7.89,17.62,17.62v10.45c0,3.33-2.7,6.02-6.02,6.02h-72.72c-3.33,0-6.02-2.7-6.02-6.02v-10.45c0-9.73,7.89-17.62,17.62-17.62h49.52M144.48,247.63h-49.52c-10.82,0-19.62,8.8-19.62,19.62v10.45c0,4.42,3.6,8.02,8.02,8.02h72.72c4.42,0,8.02-3.6,8.02-8.02v-10.45c0-10.82-8.8-19.62-19.62-19.62h0Z"/>
    </g>
    <g>
      <path class="cls-3" d="M179.33,229.01c-2.48,0-4.92-.41-7.27-1.21l-43.27-14.93c-2.92-1.01-5.97-1.52-9.07-1.52s-6.14.51-9.06,1.52l-43.27,14.92c-2.33.81-4.78,1.22-7.28,1.22-5.93,0-11.73-2.43-15.89-6.67-4.16-4.24-6.48-10.08-6.38-16.01l.12-6.96c-6.41-3.89-10.37-10.87-10.37-18.37,0-8.03,4.44-15.32,11.58-19.04,3.06-1.61,6.39-2.42,9.88-2.42,3.9,0,7.73,1.07,11.09,3.08,6.5,3.95,10.37,10.82,10.37,18.38s-4.02,14.6-10.54,18.46l-.13,7.25c0,.1.04.16.07.19.02.03.06.05.1.07l.1.02,43.36-14.95c1.95-.67,3.97-1.23,6.01-1.66.67-.14,1.36-.27,2.03-.38,2.68-.45,5.44-.68,8.2-.68s5.53.23,8.21.68c.67.11,1.36.23,2.03.38,2.04.43,4.06.99,6.01,1.66l43.27,14.93h.01s.2-.01.2-.01l.03-.03.07-.05s.07-.1.07-.17l-.83-45.78c-.19-11.09,3.37-22.06,10.04-30.9l27.57-36.54c.07-.1.06-.2.04-.25-.02-.06-.07-.14-.18-.18l-43.78-13.36c-10.59-3.23-19.92-10.01-26.29-19.09l-26.23-37.51s-.03-.03-.06-.06c-.05-.04-.1-.06-.17-.06-.05,0-.15.01-.21.11l-26.25,37.52c-6.35,9.08-15.69,15.86-26.29,19.09l-43.78,13.36c-.11.03-.16.12-.18.18-.02.06-.03.16.05.25l1.81,2.41.03.06c.91,1.64,1.4,3.5,1.4,5.39,0,6.1-4.96,11.06-11.06,11.06-3.18,0-6.2-1.36-8.29-3.74l-1.46-1.93c-4.37-5.79-5.64-13.38-3.4-20.29,2.24-6.91,7.73-12.3,14.69-14.43l43.78-13.36c5.92-1.81,11.13-5.59,14.67-10.66l26.24-37.51c4.16-5.96,10.98-9.52,18.25-9.52s14.09,3.55,18.26,9.51l26.23,37.52c3.55,5.07,8.77,8.85,14.68,10.66l43.78,13.36c6.95,2.13,12.44,7.52,14.68,14.43,2.25,6.91.98,14.5-3.4,20.3l-27.56,36.54c-3.73,4.94-5.72,11.07-5.61,17.25l.82,45.77c.12,5.92-2.21,11.76-6.38,16.01-4.16,4.24-9.95,6.67-15.89,6.67ZM49.05,170.55c-3.57,0-6.86,1.8-8.8,4.81-1.09,1.69-1.66,3.64-1.66,5.65,0,1.88.5,3.72,1.46,5.32,1.87,3.17,5.32,5.14,9,5.14,3.91,0,7.46-2.16,9.27-5.63.78-1.48,1.19-3.15,1.19-4.83,0-1.58-.34-3.1-1.02-4.51-1.73-3.62-5.43-5.95-9.44-5.95Z"/>
      <path d="M119.72,2c6.94,0,13.46,3.4,17.44,9.08l26.23,37.52c3.68,5.25,9.08,9.17,15.21,11.04l43.78,13.36c6.64,2.03,11.88,7.18,14.02,13.78,2.15,6.6.93,13.85-3.25,19.39l-27.56,36.54c-3.86,5.11-5.93,11.46-5.81,17.87l.82,45.77c.11,5.67-2.12,11.24-6.09,15.29-3.97,4.05-9.51,6.37-15.18,6.37-2.36,0-4.7-.39-6.94-1.16l-43.27-14.93c-3.03-1.05-6.19-1.58-9.4-1.58s-6.36.53-9.39,1.58l-43.27,14.92c-2.24.78-4.58,1.17-6.95,1.17-5.67,0-11.2-2.32-15.18-6.37-3.97-4.05-6.19-9.62-6.09-15.29l.13-7.54c-6.2-3.53-10.38-10.18-10.38-17.8s4.48-14.74,11.04-18.15c2.82-1.48,6.02-2.31,9.42-2.31,3.87,0,7.48,1.08,10.57,2.94,5.92,3.6,9.89,10.11,9.89,17.52s-4.25,14.38-10.53,17.88l-.14,7.82c-.01.37.14.7.38.93.06.06.12.11.19.16.09.05.18.1.27.13.13.05.28.08.43.08.14,0,.28-.02.42-.07l43.27-14.93c1.94-.67,3.9-1.21,5.89-1.63.66-.14,1.33-.26,1.99-.37,2.66-.45,5.35-.67,8.04-.67s5.38.22,8.04.67c.66.11,1.33.23,1.99.37,1.99.42,3.95.96,5.89,1.63l43.27,14.93c.14.05.28.07.42.07.17,0,.33-.03.49-.1.15-.06.29-.15.4-.27.25-.23.4-.56.39-.93l-.83-45.77c-.19-10.91,3.27-21.57,9.84-30.28l27.57-36.54c.53-.71.2-1.73-.65-1.99l-43.78-13.36c-10.44-3.18-19.5-9.77-25.76-18.71l-26.23-37.51c-.07-.09-.14-.17-.22-.24-.24-.21-.53-.31-.83-.31-.39,0-.79.18-1.04.55l-26.24,37.51c-6.25,8.94-15.32,15.53-25.76,18.71l-43.78,13.36c-.85.26-1.18,1.28-.64,1.99l.09.12h.01s1.67,2.23,1.67,2.23c.81,1.45,1.27,3.12,1.27,4.9,0,5.56-4.5,10.06-10.06,10.06-3,0-5.7-1.31-7.54-3.4l-.95-1.26-.46-.61c-4.18-5.54-5.39-12.78-3.25-19.38,2.14-6.6,7.39-11.75,14.03-13.78l43.78-13.36c6.13-1.87,11.53-5.79,15.2-11.04l26.24-37.51c3.97-5.69,10.49-9.09,17.43-9.09M49.05,192.47c4.41,0,8.25-2.51,10.16-6.17.83-1.58,1.3-3.38,1.3-5.29,0-1.77-.4-3.44-1.12-4.94-1.84-3.85-5.79-6.52-10.34-6.52-4.04,0-7.6,2.1-9.64,5.27-1.15,1.79-1.82,3.91-1.82,6.19,0,2.13.58,4.12,1.6,5.83,1.99,3.37,5.67,5.63,9.86,5.63M119.72,0c-7.6,0-14.73,3.72-19.07,9.95l-26.24,37.51c-3.41,4.88-8.44,8.53-14.14,10.27l-43.78,13.36c-7.27,2.22-13.01,7.86-15.35,15.08-2.34,7.22-1.01,15.15,3.56,21.2l.46.61.95,1.26.05.06.05.06c2.28,2.59,5.58,4.08,9.04,4.08,6.65,0,12.06-5.41,12.06-12.06,0-2.06-.53-4.09-1.52-5.88l-.07-.12-.08-.11-1.15-1.53,42.79-13.06c10.81-3.29,20.34-10.21,26.82-19.48l25.65-36.66,25.64,36.66c6.49,9.27,16.01,16.19,26.82,19.48l42.79,13.06-26.95,35.71c-6.8,9.02-10.44,20.21-10.24,31.52l.81,44.74-42.3-14.6c-1.99-.69-4.05-1.26-6.13-1.7-.6-.13-1.26-.25-2.07-.39-2.73-.46-5.55-.7-8.37-.7s-5.64.23-8.37.7c-.81.13-1.47.26-2.07.39-2.08.44-4.14,1.01-6.13,1.7l-42.29,14.59.1-5.67c6.54-4.1,10.55-11.29,10.55-19.03s-4.16-15.16-10.85-19.23c-3.51-2.12-7.53-3.23-11.61-3.23-3.66,0-7.14.85-10.35,2.54-7.47,3.88-12.11,11.52-12.11,19.92,0,7.65,3.94,14.79,10.36,18.91l-.11,6.39c-.11,6.2,2.32,12.29,6.66,16.72,4.35,4.43,10.41,6.97,16.61,6.97,2.61,0,5.17-.43,7.61-1.28l43.26-14.92c2.82-.98,5.76-1.47,8.74-1.47s5.93.49,8.75,1.47l43.27,14.93c2.45.84,5,1.27,7.59,1.27,6.21,0,12.27-2.54,16.61-6.97,4.35-4.44,6.78-10.54,6.66-16.73l-.82-45.77c-.11-5.96,1.81-11.87,5.41-16.63l27.56-36.54c4.58-6.07,5.91-14,3.55-21.21-2.34-7.22-8.07-12.85-15.34-15.07l-43.78-13.36c-5.7-1.74-10.73-5.39-14.16-10.28l-26.23-37.52c-4.36-6.22-11.49-9.93-19.08-9.93h0ZM49.05,190.47c-3.33,0-6.45-1.78-8.14-4.65-.87-1.45-1.32-3.11-1.32-4.81,0-1.81.52-3.58,1.5-5.11,1.75-2.72,4.73-4.35,7.96-4.35,3.62,0,6.97,2.11,8.54,5.38.61,1.28.92,2.65.92,4.08,0,1.54-.36,3.01-1.07,4.36-1.64,3.15-4.86,5.1-8.39,5.1h0Z"/>
    </g>
  </g>
</svg>